<svg width="1696" height="2302" viewBox="0 0 1696 2302" fill="none" xmlns="http://www.w3.org/2000/svg">
<path d="M23.488 68.96C20.5013 68.96 17.696 68.4373 15.072 67.392C12.4693 66.3253 10.176 64.768 8.192 62.72C6.22933 60.672 4.69333 58.1653 3.584 55.2C2.47467 52.2133 1.92 48.8 1.92 44.96C1.92 39.9253 2.85867 35.6267 4.736 32.064C6.61333 28.48 9.184 25.7387 12.448 23.84C15.712 21.92 19.392 20.96 23.488 20.96C29.1627 20.96 33.6533 22.2827 36.96 24.928C40.288 27.552 42.5387 31.2427 43.712 36L35.84 37.248C34.9653 34.5173 33.536 32.3413 31.552 30.72C29.568 29.0773 27.04 28.256 23.968 28.256C20.8747 28.2133 18.304 28.8853 16.256 30.272C14.208 31.6587 12.6613 33.6107 11.616 36.128C10.592 38.6453 10.08 41.5893 10.08 44.96C10.08 48.3307 10.592 51.264 11.616 53.76C12.64 56.2347 14.176 58.1653 16.224 59.552C18.2933 60.9387 20.8747 61.6533 23.968 61.696C26.2933 61.7173 28.3307 61.3013 30.08 60.448C31.8293 59.5733 33.2587 58.2613 34.368 56.512C35.4773 54.7413 36.224 52.5333 36.608 49.888H28.48V43.84H44.8C44.8427 44.1813 44.8747 44.6827 44.896 45.344C44.9173 46.0053 44.928 46.4 44.928 46.528C44.928 50.88 44.064 54.752 42.336 58.144C40.6293 61.5147 38.176 64.16 34.976 66.08C31.776 68 27.9467 68.96 23.488 68.96ZM51.355 68V33.44H58.171V41.856L57.339 40.768C57.7657 39.616 58.331 38.5707 59.035 37.632C59.7603 36.672 60.6243 35.8827 61.627 35.264C62.4803 34.688 63.419 34.24 64.443 33.92C65.4883 33.5787 66.555 33.376 67.643 33.312C68.731 33.2267 69.787 33.2693 70.811 33.44V40.64C69.787 40.3413 68.603 40.2453 67.259 40.352C65.9363 40.4587 64.7417 40.832 63.675 41.472C62.6083 42.048 61.7337 42.784 61.051 43.68C60.3897 44.576 59.899 45.6 59.579 46.752C59.259 47.8827 59.099 49.1093 59.099 50.432V68H51.355ZM77.5575 28.192V21.12H85.2695V28.192H77.5575ZM77.5575 68V33.44H85.2695V68H77.5575ZM108.711 68.96C105.532 68.96 102.759 68.16 100.391 66.56C98.023 64.96 96.1883 62.784 94.887 60.032C93.5857 57.28 92.935 54.176 92.935 50.72C92.935 47.2213 93.5857 44.1067 94.887 41.376C96.2097 38.624 98.0763 36.4587 100.487 34.88C102.898 33.28 105.735 32.48 108.999 32.48C112.284 32.48 115.036 33.28 117.255 34.88C119.495 36.4587 121.191 38.624 122.343 41.376C123.495 44.128 124.071 47.2427 124.071 50.72C124.071 54.1547 123.495 57.2587 122.343 60.032C121.191 62.784 119.474 64.96 117.191 66.56C114.908 68.16 112.082 68.96 108.711 68.96ZM109.895 62.048C111.964 62.048 113.628 61.5787 114.887 60.64C116.167 59.68 117.095 58.3467 117.671 56.64C118.268 54.9333 118.567 52.96 118.567 50.72C118.567 48.4587 118.268 46.4853 117.671 44.8C117.095 43.0933 116.188 41.7707 114.951 40.832C113.714 39.872 112.114 39.392 110.151 39.392C108.082 39.392 106.375 39.904 105.031 40.928C103.687 41.9307 102.695 43.296 102.055 45.024C101.415 46.7307 101.095 48.6293 101.095 50.72C101.095 52.832 101.404 54.752 102.023 56.48C102.663 58.1867 103.634 59.5413 104.935 60.544C106.236 61.5467 107.89 62.048 109.895 62.048ZM118.567 68V43.744H117.607V21.92H125.383V68H118.567Z" fill="white"/>
<line y1="113" x2="808" y2="113" stroke="black" stroke-width="5"/>
<rect width="848" height="1035" transform="matrix(2 0 0 2 0 232)" fill="white"/>
<g filter="url(#filter0_d_101_793)">
<rect x="40" y="272" width="1616" height="136" rx="10" fill="#EFF0F7"/>
</g>
<rect x="78" y="310" width="60" height="60" rx="10" fill="#F6E31A"/>
<path d="M165.542 350.39C164.329 350.39 163.189 350.178 162.123 349.753C161.066 349.32 160.134 348.687 159.328 347.855C158.531 347.023 157.907 346.005 157.456 344.8C157.005 343.587 156.78 342.2 156.78 340.64C156.78 338.595 157.161 336.848 157.924 335.401C158.687 333.945 159.731 332.831 161.057 332.06C162.383 331.28 163.878 330.89 165.542 330.89C167.847 330.89 169.672 331.427 171.015 332.502C172.367 333.568 173.281 335.067 173.758 337L170.56 337.507C170.205 336.398 169.624 335.514 168.818 334.855C168.012 334.188 166.985 333.854 165.737 333.854C164.48 333.837 163.436 334.11 162.604 334.673C161.772 335.236 161.144 336.029 160.719 337.052C160.303 338.075 160.095 339.271 160.095 340.64C160.095 342.009 160.303 343.201 160.719 344.215C161.135 345.22 161.759 346.005 162.591 346.568C163.432 347.131 164.48 347.422 165.737 347.439C166.682 347.448 167.509 347.279 168.22 346.932C168.931 346.577 169.511 346.044 169.962 345.333C170.413 344.614 170.716 343.717 170.872 342.642H167.57V340.185H174.2C174.217 340.324 174.23 340.527 174.239 340.796C174.248 341.065 174.252 341.225 174.252 341.277C174.252 343.045 173.901 344.618 173.199 345.996C172.506 347.365 171.509 348.44 170.209 349.22C168.909 350 167.353 350.39 165.542 350.39ZM176.863 350V335.96H179.632V339.379L179.294 338.937C179.467 338.469 179.697 338.044 179.983 337.663C180.278 337.273 180.629 336.952 181.036 336.701C181.383 336.467 181.764 336.285 182.18 336.155C182.605 336.016 183.038 335.934 183.48 335.908C183.922 335.873 184.351 335.891 184.767 335.96V338.885C184.351 338.764 183.87 338.725 183.324 338.768C182.787 338.811 182.301 338.963 181.868 339.223C181.435 339.457 181.079 339.756 180.802 340.12C180.533 340.484 180.334 340.9 180.204 341.368C180.074 341.827 180.009 342.326 180.009 342.863V350H176.863ZM187.508 333.828V330.955H190.641V333.828H187.508ZM187.508 350V335.96H190.641V350H187.508ZM200.164 350.39C198.873 350.39 197.746 350.065 196.784 349.415C195.822 348.765 195.077 347.881 194.548 346.763C194.019 345.645 193.755 344.384 193.755 342.98C193.755 341.559 194.019 340.293 194.548 339.184C195.085 338.066 195.844 337.186 196.823 336.545C197.802 335.895 198.955 335.57 200.281 335.57C201.616 335.57 202.734 335.895 203.635 336.545C204.545 337.186 205.234 338.066 205.702 339.184C206.17 340.302 206.404 341.567 206.404 342.98C206.404 344.375 206.17 345.636 205.702 346.763C205.234 347.881 204.536 348.765 203.609 349.415C202.682 350.065 201.533 350.39 200.164 350.39ZM200.645 347.582C201.486 347.582 202.162 347.391 202.673 347.01C203.193 346.62 203.57 346.078 203.804 345.385C204.047 344.692 204.168 343.89 204.168 342.98C204.168 342.061 204.047 341.26 203.804 340.575C203.57 339.882 203.202 339.344 202.699 338.963C202.196 338.573 201.546 338.378 200.749 338.378C199.908 338.378 199.215 338.586 198.669 339.002C198.123 339.409 197.72 339.964 197.46 340.666C197.2 341.359 197.07 342.131 197.07 342.98C197.07 343.838 197.196 344.618 197.447 345.32C197.707 346.013 198.101 346.564 198.63 346.971C199.159 347.378 199.83 347.582 200.645 347.582ZM204.168 350V340.146H203.778V331.28H206.937V350H204.168Z" fill="black"/>
<path d="M963.616 552.72C961.376 552.72 959.272 552.328 957.304 551.544C955.352 550.744 953.632 549.576 952.144 548.04C950.672 546.504 949.52 544.624 948.688 542.4C947.856 540.16 947.44 537.6 947.44 534.72C947.44 530.944 948.144 527.72 949.552 525.048C950.96 522.36 952.888 520.304 955.336 518.88C957.784 517.44 960.544 516.72 963.616 516.72C967.872 516.72 971.24 517.712 973.72 519.696C976.216 521.664 977.904 524.432 978.784 528L972.88 528.936C972.224 526.888 971.152 525.256 969.664 524.04C968.176 522.808 966.28 522.192 963.976 522.192C961.656 522.16 959.728 522.664 958.192 523.704C956.656 524.744 955.496 526.208 954.712 528.096C953.944 529.984 953.56 532.192 953.56 534.72C953.56 537.248 953.944 539.448 954.712 541.32C955.48 543.176 956.632 544.624 958.168 545.664C959.72 546.704 961.656 547.24 963.976 547.272C965.72 547.288 967.248 546.976 968.56 546.336C969.872 545.68 970.944 544.696 971.776 543.384C972.608 542.056 973.168 540.4 973.456 538.416H967.36V533.88H979.6C979.632 534.136 979.656 534.512 979.672 535.008C979.688 535.504 979.696 535.8 979.696 535.896C979.696 539.16 979.048 542.064 977.752 544.608C976.472 547.136 974.632 549.12 972.232 550.56C969.832 552 966.96 552.72 963.616 552.72ZM984.516 552V526.08H989.628V532.392L989.004 531.576C989.324 530.712 989.748 529.928 990.276 529.224C990.82 528.504 991.468 527.912 992.22 527.448C992.86 527.016 993.564 526.68 994.332 526.44C995.116 526.184 995.916 526.032 996.732 525.984C997.548 525.92 998.34 525.952 999.108 526.08V531.48C998.34 531.256 997.452 531.184 996.444 531.264C995.452 531.344 994.556 531.624 993.756 532.104C992.956 532.536 992.3 533.088 991.788 533.76C991.292 534.432 990.924 535.2 990.684 536.064C990.444 536.912 990.324 537.832 990.324 538.824V552H984.516ZM1004.17 522.144V516.84H1009.95V522.144H1004.17ZM1004.17 552V526.08H1009.95V552H1004.17ZM1027.53 552.72C1025.15 552.72 1023.07 552.12 1021.29 550.92C1019.52 549.72 1018.14 548.088 1017.17 546.024C1016.19 543.96 1015.7 541.632 1015.7 539.04C1015.7 536.416 1016.19 534.08 1017.17 532.032C1018.16 529.968 1019.56 528.344 1021.37 527.16C1023.17 525.96 1025.3 525.36 1027.75 525.36C1030.21 525.36 1032.28 525.96 1033.94 527.16C1035.62 528.344 1036.89 529.968 1037.76 532.032C1038.62 534.096 1039.05 536.432 1039.05 539.04C1039.05 541.616 1038.62 543.944 1037.76 546.024C1036.89 548.088 1035.61 549.72 1033.89 550.92C1032.18 552.12 1030.06 552.72 1027.53 552.72ZM1028.42 547.536C1029.97 547.536 1031.22 547.184 1032.17 546.48C1033.13 545.76 1033.82 544.76 1034.25 543.48C1034.7 542.2 1034.93 540.72 1034.93 539.04C1034.93 537.344 1034.7 535.864 1034.25 534.6C1033.82 533.32 1033.14 532.328 1032.21 531.624C1031.29 530.904 1030.09 530.544 1028.61 530.544C1027.06 530.544 1025.78 530.928 1024.77 531.696C1023.77 532.448 1023.02 533.472 1022.54 534.768C1022.06 536.048 1021.82 537.472 1021.82 539.04C1021.82 540.624 1022.05 542.064 1022.52 543.36C1023 544.64 1023.73 545.656 1024.7 546.408C1025.68 547.16 1026.92 547.536 1028.42 547.536ZM1034.93 552V533.808H1034.21V517.44H1040.04V552H1034.93ZM1069.17 552.72C1066.64 552.72 1064.36 552.28 1062.33 551.4C1060.31 550.52 1058.65 549.264 1057.34 547.632C1056.04 545.984 1055.22 544.032 1054.86 541.776L1060.86 540.864C1061.38 542.912 1062.42 544.496 1064.01 545.616C1065.61 546.736 1067.45 547.296 1069.53 547.296C1070.76 547.296 1071.92 547.104 1073.01 546.72C1074.1 546.336 1074.98 545.776 1075.65 545.04C1076.34 544.304 1076.68 543.4 1076.68 542.328C1076.68 541.848 1076.6 541.408 1076.44 541.008C1076.28 540.592 1076.04 540.224 1075.72 539.904C1075.42 539.584 1075.02 539.296 1074.52 539.04C1074.04 538.768 1073.48 538.536 1072.84 538.344L1063.91 535.704C1063.14 535.48 1062.31 535.184 1061.42 534.816C1060.54 534.432 1059.7 533.912 1058.9 533.256C1058.11 532.584 1057.46 531.736 1056.95 530.712C1056.46 529.672 1056.21 528.392 1056.21 526.872C1056.21 524.648 1056.77 522.784 1057.89 521.28C1059.02 519.76 1060.54 518.624 1062.45 517.872C1064.37 517.12 1066.5 516.752 1068.83 516.768C1071.2 516.784 1073.31 517.192 1075.17 517.992C1077.02 518.776 1078.58 519.92 1079.82 521.424C1081.07 522.928 1081.95 524.744 1082.46 526.872L1076.25 527.952C1075.99 526.736 1075.5 525.704 1074.76 524.856C1074.04 523.992 1073.15 523.336 1072.1 522.888C1071.06 522.44 1069.94 522.2 1068.76 522.168C1067.61 522.152 1066.54 522.328 1065.54 522.696C1064.57 523.048 1063.78 523.56 1063.17 524.232C1062.58 524.904 1062.28 525.688 1062.28 526.584C1062.28 527.432 1062.54 528.128 1063.05 528.672C1063.56 529.2 1064.19 529.624 1064.94 529.944C1065.71 530.248 1066.49 530.504 1067.27 530.712L1073.46 532.44C1074.31 532.664 1075.26 532.968 1076.32 533.352C1077.38 533.736 1078.39 534.272 1079.37 534.96C1080.34 535.648 1081.14 536.552 1081.77 537.672C1082.41 538.792 1082.73 540.216 1082.73 541.944C1082.73 543.736 1082.35 545.312 1081.6 546.672C1080.86 548.016 1079.86 549.136 1078.6 550.032C1077.34 550.928 1075.89 551.6 1074.26 552.048C1072.64 552.496 1070.94 552.72 1069.17 552.72ZM1099.71 552.72C1097.08 552.72 1094.78 552.152 1092.79 551.016C1090.81 549.88 1089.26 548.304 1088.14 546.288C1087.03 544.272 1086.48 541.952 1086.48 539.328C1086.48 536.496 1087.03 534.04 1088.11 531.96C1089.2 529.864 1090.71 528.24 1092.65 527.088C1094.59 525.936 1096.83 525.36 1099.37 525.36C1102.06 525.36 1104.34 525.992 1106.21 527.256C1108.1 528.504 1109.5 530.272 1110.41 532.56C1111.32 534.848 1111.67 537.544 1111.44 540.648H1105.71V538.536C1105.69 535.72 1105.19 533.664 1104.22 532.368C1103.24 531.072 1101.71 530.424 1099.61 530.424C1097.24 530.424 1095.48 531.16 1094.33 532.632C1093.18 534.088 1092.6 536.224 1092.6 539.04C1092.6 541.664 1093.18 543.696 1094.33 545.136C1095.48 546.576 1097.16 547.296 1099.37 547.296C1100.79 547.296 1102.02 546.984 1103.04 546.36C1104.08 545.72 1104.88 544.8 1105.44 543.6L1111.15 545.328C1110.16 547.664 1108.63 549.48 1106.55 550.776C1104.48 552.072 1102.2 552.72 1099.71 552.72ZM1090.78 540.648V536.28H1108.61V540.648H1090.78ZM1131.99 552C1130.28 552.32 1128.6 552.456 1126.95 552.408C1125.32 552.376 1123.85 552.08 1122.56 551.52C1121.26 550.944 1120.28 550.04 1119.61 548.808C1119.01 547.688 1118.7 546.544 1118.67 545.376C1118.64 544.208 1118.62 542.888 1118.62 541.416V518.88H1124.38V541.08C1124.38 542.12 1124.39 543.032 1124.41 543.816C1124.44 544.6 1124.61 545.24 1124.91 545.736C1125.49 546.696 1126.41 547.232 1127.67 547.344C1128.93 547.456 1130.37 547.392 1131.99 547.152V552ZM1113.92 530.616V526.08H1131.99V530.616H1113.92ZM1152.76 552C1151.04 552.32 1149.36 552.456 1147.72 552.408C1146.08 552.376 1144.62 552.08 1143.32 551.52C1142.03 550.944 1141.04 550.04 1140.37 548.808C1139.78 547.688 1139.47 546.544 1139.44 545.376C1139.4 544.208 1139.39 542.888 1139.39 541.416V518.88H1145.15V541.08C1145.15 542.12 1145.16 543.032 1145.17 543.816C1145.2 544.6 1145.37 545.24 1145.68 545.736C1146.25 546.696 1147.17 547.232 1148.44 547.344C1149.7 547.456 1151.14 547.392 1152.76 547.152V552ZM1134.68 530.616V526.08H1152.76V530.616H1134.68ZM1158.81 522.144V516.84H1164.59V522.144H1158.81ZM1158.81 552V526.08H1164.59V552H1158.81ZM1189.71 552V539.52C1189.71 538.704 1189.65 537.8 1189.54 536.808C1189.43 535.816 1189.17 534.864 1188.75 533.952C1188.35 533.024 1187.74 532.264 1186.93 531.672C1186.13 531.08 1185.04 530.784 1183.66 530.784C1182.93 530.784 1182.2 530.904 1181.48 531.144C1180.76 531.384 1180.1 531.8 1179.51 532.392C1178.93 532.968 1178.47 533.768 1178.12 534.792C1177.77 535.8 1177.59 537.096 1177.59 538.68L1174.16 537.216C1174.16 535.008 1174.58 533.008 1175.43 531.216C1176.29 529.424 1177.56 528 1179.22 526.944C1180.89 525.872 1182.93 525.336 1185.37 525.336C1187.29 525.336 1188.87 525.656 1190.12 526.296C1191.37 526.936 1192.36 527.752 1193.09 528.744C1193.83 529.736 1194.37 530.792 1194.73 531.912C1195.08 533.032 1195.3 534.096 1195.4 535.104C1195.51 536.096 1195.57 536.904 1195.57 537.528V552H1189.71ZM1171.73 552V526.08H1176.89V534.12H1177.59V552H1171.73ZM1212.72 564.24C1211.28 564.24 1209.9 564.016 1208.57 563.568C1207.26 563.12 1206.08 562.472 1205.02 561.624C1203.96 560.792 1203.1 559.784 1202.43 558.6L1207.76 555.96C1208.25 556.904 1208.95 557.6 1209.84 558.048C1210.76 558.512 1211.72 558.744 1212.75 558.744C1213.95 558.744 1215.02 558.528 1215.96 558.096C1216.91 557.68 1217.64 557.056 1218.15 556.224C1218.68 555.408 1218.92 554.384 1218.89 553.152V545.784H1219.61V526.08H1224.68V553.248C1224.68 553.904 1224.64 554.528 1224.58 555.12C1224.53 555.728 1224.44 556.32 1224.32 556.896C1223.93 558.576 1223.2 559.952 1222.11 561.024C1221.02 562.112 1219.67 562.92 1218.05 563.448C1216.45 563.976 1214.68 564.24 1212.72 564.24ZM1212.22 552.72C1209.84 552.72 1207.76 552.12 1205.98 550.92C1204.2 549.72 1202.83 548.088 1201.85 546.024C1200.88 543.96 1200.39 541.632 1200.39 539.04C1200.39 536.416 1200.88 534.08 1201.85 532.032C1202.84 529.968 1204.24 528.344 1206.05 527.16C1207.86 525.96 1209.99 525.36 1212.44 525.36C1214.9 525.36 1216.96 525.96 1218.63 527.16C1220.31 528.344 1221.58 529.968 1222.44 532.032C1223.31 534.096 1223.74 536.432 1223.74 539.04C1223.74 541.616 1223.31 543.944 1222.44 546.024C1221.58 548.088 1220.29 549.72 1218.58 550.92C1216.87 552.12 1214.75 552.72 1212.22 552.72ZM1213.11 547.536C1214.66 547.536 1215.91 547.184 1216.85 546.48C1217.81 545.76 1218.51 544.76 1218.94 543.48C1219.39 542.2 1219.61 540.72 1219.61 539.04C1219.61 537.344 1219.39 535.864 1218.94 534.6C1218.51 533.32 1217.83 532.328 1216.9 531.624C1215.97 530.904 1214.77 530.544 1213.3 530.544C1211.75 530.544 1210.47 530.928 1209.46 531.696C1208.45 532.448 1207.71 533.472 1207.23 534.768C1206.75 536.048 1206.51 537.472 1206.51 539.04C1206.51 540.624 1206.74 542.064 1207.2 543.36C1207.68 544.64 1208.41 545.656 1209.39 546.408C1210.36 547.16 1211.6 547.536 1213.11 547.536ZM1241.41 552.72C1238.21 552.72 1235.61 552 1233.61 550.56C1231.61 549.12 1230.4 547.096 1229.97 544.488L1235.87 543.576C1236.17 544.856 1236.85 545.864 1237.89 546.6C1238.93 547.336 1240.24 547.704 1241.82 547.704C1243.21 547.704 1244.29 547.432 1245.04 546.888C1245.81 546.328 1246.19 545.568 1246.19 544.608C1246.19 544.016 1246.05 543.544 1245.76 543.192C1245.49 542.824 1244.88 542.472 1243.93 542.136C1242.99 541.8 1241.54 541.376 1239.59 540.864C1237.41 540.288 1235.69 539.672 1234.41 539.016C1233.13 538.344 1232.21 537.552 1231.65 536.64C1231.09 535.728 1230.81 534.624 1230.81 533.328C1230.81 531.712 1231.23 530.304 1232.08 529.104C1232.93 527.904 1234.11 526.984 1235.63 526.344C1237.15 525.688 1238.94 525.36 1241.01 525.36C1243.02 525.36 1244.81 525.672 1246.36 526.296C1247.93 526.92 1249.19 527.808 1250.15 528.96C1251.11 530.112 1251.7 531.464 1251.93 533.016L1246.02 534.072C1245.88 532.968 1245.37 532.096 1244.51 531.456C1243.66 530.816 1242.53 530.456 1241.1 530.376C1239.74 530.296 1238.65 530.504 1237.81 531C1236.98 531.48 1236.57 532.16 1236.57 533.04C1236.57 533.536 1236.73 533.96 1237.07 534.312C1237.41 534.664 1238.08 535.016 1239.09 535.368C1240.11 535.72 1241.63 536.152 1243.65 536.664C1245.71 537.192 1247.36 537.8 1248.59 538.488C1249.84 539.16 1250.73 539.968 1251.28 540.912C1251.84 541.856 1252.12 543 1252.12 544.344C1252.12 546.952 1251.17 549 1249.26 550.488C1247.37 551.976 1244.76 552.72 1241.41 552.72Z" fill="black"/>
<path d="M946.28 626L953.112 615.808L946.476 605.84H950.606L955.198 612.938L959.748 605.84H963.906L957.27 615.808L964.074 626H959.944L955.198 618.678L950.438 626H946.28ZM973.313 614.604V611.958H987.593V614.604H973.313ZM973.313 619.882V617.236H987.593V619.882H973.313ZM1005.77 626.42C1004.34 626.42 1003.08 626.117 1001.99 625.51C1000.9 624.894 1000.04 624.04 999.429 622.948C998.822 621.856 998.519 620.596 998.519 619.168V612.672C998.519 611.244 998.822 609.984 999.429 608.892C1000.04 607.8 1000.9 606.951 1001.99 606.344C1003.08 605.728 1004.34 605.42 1005.77 605.42C1007.2 605.42 1008.45 605.728 1009.54 606.344C1010.63 606.951 1011.48 607.8 1012.1 608.892C1012.71 609.984 1013.02 611.244 1013.02 612.672V619.168C1013.02 620.596 1012.71 621.856 1012.1 622.948C1011.48 624.04 1010.63 624.894 1009.54 625.51C1008.45 626.117 1007.2 626.42 1005.77 626.42ZM1005.77 623.214C1006.48 623.214 1007.12 623.046 1007.7 622.71C1008.28 622.365 1008.74 621.907 1009.07 621.338C1009.41 620.759 1009.58 620.115 1009.58 619.406V612.42C1009.58 611.701 1009.41 611.057 1009.07 610.488C1008.74 609.909 1008.28 609.452 1007.7 609.116C1007.12 608.771 1006.48 608.598 1005.77 608.598C1005.06 608.598 1004.42 608.771 1003.84 609.116C1003.26 609.452 1002.8 609.909 1002.47 610.488C1002.13 611.057 1001.96 611.701 1001.96 612.42V619.406C1001.96 620.115 1002.13 620.759 1002.47 621.338C1002.8 621.907 1003.26 622.365 1003.84 622.71C1004.42 623.046 1005.06 623.214 1005.77 623.214Z" fill="black"/>
<path d="M951.278 663.972L952.762 658.512H947.68L948.52 655.334H953.602L954.47 652.044H949.388L950.256 648.88H955.324L956.682 643.84H959.972L958.6 648.88H962.044L963.402 643.84H966.692L965.32 648.88H970.402L969.548 652.044H964.48L963.584 655.334H968.666L967.812 658.512H962.744L961.288 663.972H957.998L959.454 658.512H956.024L954.568 663.972H951.278ZM956.892 655.334H960.308L961.19 652.044H957.76L956.892 655.334ZM981.298 664.42C979.87 664.42 978.61 664.117 977.518 663.51C976.426 662.894 975.572 662.04 974.956 660.948C974.349 659.856 974.046 658.596 974.046 657.168V650.672C974.046 649.244 974.349 647.984 974.956 646.892C975.572 645.8 976.426 644.951 977.518 644.344C978.61 643.728 979.87 643.42 981.298 643.42C982.726 643.42 983.981 643.728 985.064 644.344C986.156 644.951 987.01 645.8 987.626 646.892C988.242 647.984 988.55 649.244 988.55 650.672V657.168C988.55 658.596 988.242 659.856 987.626 660.948C987.01 662.04 986.156 662.894 985.064 663.51C983.981 664.117 982.726 664.42 981.298 664.42ZM981.298 661.214C982.007 661.214 982.651 661.046 983.23 660.71C983.809 660.365 984.266 659.907 984.602 659.338C984.938 658.759 985.106 658.115 985.106 657.406V650.42C985.106 649.701 984.938 649.057 984.602 648.488C984.266 647.909 983.809 647.452 983.23 647.116C982.651 646.771 982.007 646.598 981.298 646.598C980.589 646.598 979.945 646.771 979.366 647.116C978.787 647.452 978.33 647.909 977.994 648.488C977.658 649.057 977.49 649.701 977.49 650.42V657.406C977.49 658.115 977.658 658.759 977.994 659.338C978.33 659.907 978.787 660.365 979.366 660.71C979.945 661.046 980.589 661.214 981.298 661.214ZM999.728 664.42C998.3 664.42 997.04 664.117 995.948 663.51C994.856 662.894 994.002 662.04 993.386 660.948C992.779 659.856 992.476 658.596 992.476 657.168V650.672C992.476 649.244 992.779 647.984 993.386 646.892C994.002 645.8 994.856 644.951 995.948 644.344C997.04 643.728 998.3 643.42 999.728 643.42C1001.16 643.42 1002.41 643.728 1003.49 644.344C1004.59 644.951 1005.44 645.8 1006.06 646.892C1006.67 647.984 1006.98 649.244 1006.98 650.672V657.168C1006.98 658.596 1006.67 659.856 1006.06 660.948C1005.44 662.04 1004.59 662.894 1003.49 663.51C1002.41 664.117 1001.16 664.42 999.728 664.42ZM999.728 661.214C1000.44 661.214 1001.08 661.046 1001.66 660.71C1002.24 660.365 1002.7 659.907 1003.03 659.338C1003.37 658.759 1003.54 658.115 1003.54 657.406V650.42C1003.54 649.701 1003.37 649.057 1003.03 648.488C1002.7 647.909 1002.24 647.452 1001.66 647.116C1001.08 646.771 1000.44 646.598 999.728 646.598C999.018 646.598 998.374 646.771 997.796 647.116C997.217 647.452 996.76 647.909 996.424 648.488C996.088 649.057 995.92 649.701 995.92 650.42V657.406C995.92 658.115 996.088 658.759 996.424 659.338C996.76 659.907 997.217 660.365 997.796 660.71C998.374 661.046 999.018 661.214 999.728 661.214ZM1018.16 664.42C1016.73 664.42 1015.47 664.117 1014.38 663.51C1013.29 662.894 1012.43 662.04 1011.82 660.948C1011.21 659.856 1010.91 658.596 1010.91 657.168V650.672C1010.91 649.244 1011.21 647.984 1011.82 646.892C1012.43 645.8 1013.29 644.951 1014.38 644.344C1015.47 643.728 1016.73 643.42 1018.16 643.42C1019.59 643.42 1020.84 643.728 1021.92 644.344C1023.02 644.951 1023.87 645.8 1024.49 646.892C1025.1 647.984 1025.41 649.244 1025.41 650.672V657.168C1025.41 658.596 1025.1 659.856 1024.49 660.948C1023.87 662.04 1023.02 662.894 1021.92 663.51C1020.84 664.117 1019.59 664.42 1018.16 664.42ZM1018.16 661.214C1018.87 661.214 1019.51 661.046 1020.09 660.71C1020.67 660.365 1021.13 659.907 1021.46 659.338C1021.8 658.759 1021.97 658.115 1021.97 657.406V650.42C1021.97 649.701 1021.8 649.057 1021.46 648.488C1021.13 647.909 1020.67 647.452 1020.09 647.116C1019.51 646.771 1018.87 646.598 1018.16 646.598C1017.45 646.598 1016.8 646.771 1016.23 647.116C1015.65 647.452 1015.19 647.909 1014.85 648.488C1014.52 649.057 1014.35 649.701 1014.35 650.42V657.406C1014.35 658.115 1014.52 658.759 1014.85 659.338C1015.19 659.907 1015.65 660.365 1016.23 660.71C1016.8 661.046 1017.45 661.214 1018.16 661.214ZM1036.59 664.42C1035.16 664.42 1033.9 664.117 1032.81 663.51C1031.72 662.894 1030.86 662.04 1030.25 660.948C1029.64 659.856 1029.34 658.596 1029.34 657.168V650.672C1029.34 649.244 1029.64 647.984 1030.25 646.892C1030.86 645.8 1031.72 644.951 1032.81 644.344C1033.9 643.728 1035.16 643.42 1036.59 643.42C1038.02 643.42 1039.27 643.728 1040.35 644.344C1041.45 644.951 1042.3 645.8 1042.92 646.892C1043.53 647.984 1043.84 649.244 1043.84 650.672V657.168C1043.84 658.596 1043.53 659.856 1042.92 660.948C1042.3 662.04 1041.45 662.894 1040.35 663.51C1039.27 664.117 1038.02 664.42 1036.59 664.42ZM1036.59 661.214C1037.3 661.214 1037.94 661.046 1038.52 660.71C1039.1 660.365 1039.56 659.907 1039.89 659.338C1040.23 658.759 1040.4 658.115 1040.4 657.406V650.42C1040.4 649.701 1040.23 649.057 1039.89 648.488C1039.56 647.909 1039.1 647.452 1038.52 647.116C1037.94 646.771 1037.3 646.598 1036.59 646.598C1035.88 646.598 1035.23 646.771 1034.66 647.116C1034.08 647.452 1033.62 647.909 1033.28 648.488C1032.95 649.057 1032.78 649.701 1032.78 650.42V657.406C1032.78 658.115 1032.95 658.759 1033.28 659.338C1033.62 659.907 1034.08 660.365 1034.66 660.71C1035.23 661.046 1035.88 661.214 1036.59 661.214ZM1055.02 664.42C1053.59 664.42 1052.33 664.117 1051.24 663.51C1050.14 662.894 1049.29 662.04 1048.67 660.948C1048.07 659.856 1047.76 658.596 1047.76 657.168V650.672C1047.76 649.244 1048.07 647.984 1048.67 646.892C1049.29 645.8 1050.14 644.951 1051.24 644.344C1052.33 643.728 1053.59 643.42 1055.02 643.42C1056.44 643.42 1057.7 643.728 1058.78 644.344C1059.87 644.951 1060.73 645.8 1061.34 646.892C1061.96 647.984 1062.27 649.244 1062.27 650.672V657.168C1062.27 658.596 1061.96 659.856 1061.34 660.948C1060.73 662.04 1059.87 662.894 1058.78 663.51C1057.7 664.117 1056.44 664.42 1055.02 664.42ZM1055.02 661.214C1055.73 661.214 1056.37 661.046 1056.95 660.71C1057.53 660.365 1057.98 659.907 1058.32 659.338C1058.66 658.759 1058.82 658.115 1058.82 657.406V650.42C1058.82 649.701 1058.66 649.057 1058.32 648.488C1057.98 647.909 1057.53 647.452 1056.95 647.116C1056.37 646.771 1055.73 646.598 1055.02 646.598C1054.31 646.598 1053.66 646.771 1053.08 647.116C1052.51 647.452 1052.05 647.909 1051.71 648.488C1051.38 649.057 1051.21 649.701 1051.21 650.42V657.406C1051.21 658.115 1051.38 658.759 1051.71 659.338C1052.05 659.907 1052.51 660.365 1053.08 660.71C1053.66 661.046 1054.31 661.214 1055.02 661.214ZM1073.45 664.42C1072.02 664.42 1070.76 664.117 1069.67 663.51C1068.57 662.894 1067.72 662.04 1067.1 660.948C1066.5 659.856 1066.19 658.596 1066.19 657.168V650.672C1066.19 649.244 1066.5 647.984 1067.1 646.892C1067.72 645.8 1068.57 644.951 1069.67 644.344C1070.76 643.728 1072.02 643.42 1073.45 643.42C1074.87 643.42 1076.13 643.728 1077.21 644.344C1078.3 644.951 1079.16 645.8 1079.77 646.892C1080.39 647.984 1080.7 649.244 1080.7 650.672V657.168C1080.7 658.596 1080.39 659.856 1079.77 660.948C1079.16 662.04 1078.3 662.894 1077.21 663.51C1076.13 664.117 1074.87 664.42 1073.45 664.42ZM1073.45 661.214C1074.16 661.214 1074.8 661.046 1075.38 660.71C1075.96 660.365 1076.41 659.907 1076.75 659.338C1077.09 658.759 1077.25 658.115 1077.25 657.406V650.42C1077.25 649.701 1077.09 649.057 1076.75 648.488C1076.41 647.909 1075.96 647.452 1075.38 647.116C1074.8 646.771 1074.16 646.598 1073.45 646.598C1072.74 646.598 1072.09 646.771 1071.51 647.116C1070.94 647.452 1070.48 647.909 1070.14 648.488C1069.81 649.057 1069.64 649.701 1069.64 650.42V657.406C1069.64 658.115 1069.81 658.759 1070.14 659.338C1070.48 659.907 1070.94 660.365 1071.51 660.71C1072.09 661.046 1072.74 661.214 1073.45 661.214ZM1096.82 664.42C1095.49 664.42 1094.3 664.149 1093.27 663.608C1092.23 663.067 1091.42 662.315 1090.83 661.354C1090.24 660.393 1089.95 659.291 1089.95 658.05C1089.95 656.939 1090.21 655.908 1090.72 654.956C1091.23 654.004 1091.98 653.243 1092.97 652.674L1092.9 653.752C1092.13 653.164 1091.53 652.487 1091.1 651.722C1090.68 650.947 1090.47 650.079 1090.47 649.118C1090.47 647.961 1090.74 646.957 1091.28 646.108C1091.83 645.259 1092.58 644.601 1093.53 644.134C1094.49 643.658 1095.58 643.42 1096.82 643.42C1098.06 643.42 1099.16 643.658 1100.11 644.134C1101.07 644.601 1101.83 645.259 1102.37 646.108C1102.92 646.957 1103.19 647.961 1103.19 649.118C1103.19 650.079 1102.99 650.943 1102.58 651.708C1102.18 652.473 1101.56 653.164 1100.74 653.78L1100.73 652.688C1101.7 653.239 1102.44 653.995 1102.96 654.956C1103.48 655.908 1103.74 656.939 1103.74 658.05C1103.74 659.291 1103.44 660.393 1102.84 661.354C1102.26 662.315 1101.44 663.067 1100.39 663.608C1099.36 664.149 1098.17 664.42 1096.82 664.42ZM1096.82 661.242C1097.81 661.242 1098.62 660.971 1099.23 660.43C1099.86 659.889 1100.17 659.095 1100.17 658.05C1100.17 657.005 1099.86 656.211 1099.25 655.67C1098.63 655.119 1097.82 654.844 1096.82 654.844C1095.83 654.844 1095.04 655.119 1094.43 655.67C1093.82 656.211 1093.52 657.005 1093.52 658.05C1093.52 659.095 1093.82 659.889 1094.43 660.43C1095.04 660.971 1095.83 661.242 1096.82 661.242ZM1096.82 651.638C1097.65 651.638 1098.33 651.433 1098.84 651.022C1099.36 650.602 1099.62 649.967 1099.62 649.118C1099.62 648.269 1099.36 647.639 1098.84 647.228C1098.33 646.808 1097.65 646.598 1096.82 646.598C1096 646.598 1095.33 646.808 1094.81 647.228C1094.29 647.639 1094.04 648.269 1094.04 649.118C1094.04 649.967 1094.29 650.602 1094.81 651.022C1095.33 651.433 1096 651.638 1096.82 651.638ZM1110.17 664L1107.93 661.76L1125.87 643.84L1128.11 646.094L1110.17 664ZM1123.91 664.42C1122.98 664.42 1122.14 664.196 1121.37 663.748C1120.62 663.291 1120.01 662.684 1119.55 661.928C1119.1 661.163 1118.87 660.313 1118.87 659.38C1118.87 658.465 1119.1 657.625 1119.57 656.86C1120.03 656.095 1120.65 655.483 1121.42 655.026C1122.18 654.569 1123.01 654.34 1123.91 654.34C1124.83 654.34 1125.68 654.569 1126.44 655.026C1127.21 655.474 1127.81 656.081 1128.26 656.846C1128.72 657.602 1128.95 658.447 1128.95 659.38C1128.95 660.313 1128.72 661.163 1128.26 661.928C1127.81 662.684 1127.21 663.291 1126.44 663.748C1125.68 664.196 1124.83 664.42 1123.91 664.42ZM1123.91 661.536C1124.29 661.536 1124.65 661.438 1124.97 661.242C1125.31 661.046 1125.57 660.785 1125.77 660.458C1125.97 660.131 1126.06 659.772 1126.06 659.38C1126.06 658.988 1125.97 658.629 1125.77 658.302C1125.57 657.975 1125.31 657.714 1124.97 657.518C1124.65 657.322 1124.29 657.224 1123.91 657.224C1123.52 657.224 1123.16 657.322 1122.83 657.518C1122.5 657.714 1122.24 657.975 1122.03 658.302C1121.84 658.629 1121.74 658.988 1121.74 659.38C1121.74 659.772 1121.84 660.131 1122.03 660.458C1122.24 660.785 1122.5 661.046 1122.83 661.242C1123.16 661.438 1123.52 661.536 1123.91 661.536ZM1112.13 653.5C1111.21 653.5 1110.37 653.276 1109.6 652.828C1108.83 652.371 1108.22 651.764 1107.77 651.008C1107.32 650.243 1107.09 649.393 1107.09 648.46C1107.09 647.545 1107.33 646.705 1107.79 645.94C1108.26 645.175 1108.88 644.563 1109.64 644.106C1110.41 643.649 1111.24 643.42 1112.13 643.42C1113.06 643.42 1113.9 643.649 1114.65 644.106C1115.42 644.554 1116.03 645.161 1116.49 645.926C1116.95 646.682 1117.17 647.527 1117.17 648.46C1117.17 649.393 1116.95 650.243 1116.49 651.008C1116.03 651.764 1115.42 652.371 1114.65 652.828C1113.9 653.276 1113.06 653.5 1112.13 653.5ZM1112.13 650.616C1112.53 650.616 1112.89 650.518 1113.21 650.322C1113.54 650.126 1113.8 649.865 1114 649.538C1114.19 649.211 1114.29 648.852 1114.29 648.46C1114.29 648.068 1114.19 647.709 1114 647.382C1113.8 647.055 1113.54 646.794 1113.21 646.598C1112.89 646.402 1112.53 646.304 1112.13 646.304C1111.74 646.304 1111.38 646.402 1111.06 646.598C1110.73 646.794 1110.47 647.055 1110.27 647.382C1110.08 647.709 1109.98 648.068 1109.98 648.46C1109.98 648.852 1110.08 649.211 1110.27 649.538C1110.47 649.865 1110.73 650.126 1111.06 650.322C1111.38 650.518 1111.74 650.616 1112.13 650.616Z" fill="black"/>
<path d="M1052.86 626V617.74L1046 605.84H1049.93L1054.57 613.876L1059.19 605.84H1063.12L1056.28 617.74V626H1052.86ZM1070.96 614.604V611.958H1085.24V614.604H1070.96ZM1070.96 619.882V617.236H1085.24V619.882H1070.96ZM1103.42 626.42C1101.99 626.42 1100.73 626.117 1099.64 625.51C1098.55 624.894 1097.69 624.04 1097.08 622.948C1096.47 621.856 1096.17 620.596 1096.17 619.168V612.672C1096.17 611.244 1096.47 609.984 1097.08 608.892C1097.69 607.8 1098.55 606.951 1099.64 606.344C1100.73 605.728 1101.99 605.42 1103.42 605.42C1104.85 605.42 1106.1 605.728 1107.19 606.344C1108.28 606.951 1109.13 607.8 1109.75 608.892C1110.36 609.984 1110.67 611.244 1110.67 612.672V619.168C1110.67 620.596 1110.36 621.856 1109.75 622.948C1109.13 624.04 1108.28 624.894 1107.19 625.51C1106.1 626.117 1104.85 626.42 1103.42 626.42ZM1103.42 623.214C1104.13 623.214 1104.77 623.046 1105.35 622.71C1105.93 622.365 1106.39 621.907 1106.72 621.338C1107.06 620.759 1107.23 620.115 1107.23 619.406V612.42C1107.23 611.701 1107.06 611.057 1106.72 610.488C1106.39 609.909 1105.93 609.452 1105.35 609.116C1104.77 608.771 1104.13 608.598 1103.42 608.598C1102.71 608.598 1102.07 608.771 1101.49 609.116C1100.91 609.452 1100.45 609.909 1100.12 610.488C1099.78 611.057 1099.61 611.701 1099.61 612.42V619.406C1099.61 620.115 1099.78 620.759 1100.12 621.338C1100.45 621.907 1100.91 622.365 1101.49 622.71C1102.07 623.046 1102.71 623.214 1103.42 623.214Z" fill="black"/>
<path d="M1145.96 626V605.84H1153.95C1155.32 605.84 1156.43 606.115 1157.3 606.666C1158.18 607.207 1158.83 607.903 1159.25 608.752C1159.68 609.601 1159.89 610.479 1159.89 611.384C1159.89 612.495 1159.62 613.437 1159.09 614.212C1158.57 614.987 1157.86 615.509 1156.95 615.78V615.08C1158.22 615.369 1159.18 615.971 1159.83 616.886C1160.5 617.801 1160.83 618.841 1160.83 620.008C1160.83 621.203 1160.6 622.248 1160.14 623.144C1159.68 624.04 1159 624.74 1158.1 625.244C1157.2 625.748 1156.09 626 1154.77 626H1145.96ZM1149.38 622.822H1154.35C1154.93 622.822 1155.46 622.705 1155.93 622.472C1156.39 622.229 1156.76 621.893 1157.02 621.464C1157.29 621.025 1157.43 620.507 1157.43 619.91C1157.43 619.369 1157.31 618.883 1157.08 618.454C1156.84 618.025 1156.5 617.684 1156.05 617.432C1155.61 617.171 1155.07 617.04 1154.44 617.04H1149.38V622.822ZM1149.38 613.89H1153.91C1154.4 613.89 1154.83 613.797 1155.21 613.61C1155.6 613.423 1155.9 613.148 1156.12 612.784C1156.35 612.42 1156.46 611.972 1156.46 611.44C1156.46 610.74 1156.24 610.157 1155.79 609.69C1155.34 609.223 1154.71 608.99 1153.91 608.99H1149.38V613.89ZM1170.63 614.604V611.958H1184.91V614.604H1170.63ZM1170.63 619.882V617.236H1184.91V619.882H1170.63ZM1202.43 626.42C1201.09 626.42 1199.91 626.149 1198.87 625.608C1197.84 625.067 1197.03 624.315 1196.44 623.354C1195.85 622.393 1195.56 621.291 1195.56 620.05C1195.56 618.939 1195.81 617.908 1196.33 616.956C1196.84 616.004 1197.59 615.243 1198.58 614.674L1198.51 615.752C1197.73 615.164 1197.13 614.487 1196.7 613.722C1196.28 612.947 1196.07 612.079 1196.07 611.118C1196.07 609.961 1196.34 608.957 1196.89 608.108C1197.44 607.259 1198.19 606.601 1199.14 606.134C1200.09 605.658 1201.19 605.42 1202.43 605.42C1203.67 605.42 1204.77 605.658 1205.72 606.134C1206.68 606.601 1207.43 607.259 1207.97 608.108C1208.52 608.957 1208.8 609.961 1208.8 611.118C1208.8 612.079 1208.59 612.943 1208.18 613.708C1207.78 614.473 1207.17 615.164 1206.35 615.78L1206.34 614.688C1207.31 615.239 1208.05 615.995 1208.56 616.956C1209.08 617.908 1209.35 618.939 1209.35 620.05C1209.35 621.291 1209.05 622.393 1208.45 623.354C1207.86 624.315 1207.04 625.067 1206 625.608C1204.96 626.149 1203.77 626.42 1202.43 626.42ZM1202.43 623.242C1203.42 623.242 1204.22 622.971 1204.84 622.43C1205.46 621.889 1205.78 621.095 1205.78 620.05C1205.78 619.005 1205.47 618.211 1204.85 617.67C1204.24 617.119 1203.43 616.844 1202.43 616.844C1201.44 616.844 1200.64 617.119 1200.04 617.67C1199.43 618.211 1199.13 619.005 1199.13 620.05C1199.13 621.095 1199.43 621.889 1200.04 622.43C1200.64 622.971 1201.44 623.242 1202.43 623.242ZM1202.43 613.638C1203.26 613.638 1203.93 613.433 1204.45 613.022C1204.97 612.602 1205.23 611.967 1205.23 611.118C1205.23 610.269 1204.97 609.639 1204.45 609.228C1203.93 608.808 1203.26 608.598 1202.43 608.598C1201.61 608.598 1200.94 608.808 1200.41 609.228C1199.9 609.639 1199.64 610.269 1199.64 611.118C1199.64 611.967 1199.9 612.602 1200.41 613.022C1200.94 613.433 1201.61 613.638 1202.43 613.638Z" fill="black"/>
<path d="M1253.42 626.42C1251.95 626.42 1250.62 626.163 1249.43 625.65C1248.26 625.137 1247.29 624.404 1246.52 623.452C1245.76 622.491 1245.28 621.352 1245.08 620.036L1248.58 619.504C1248.88 620.699 1249.49 621.623 1250.41 622.276C1251.35 622.929 1252.42 623.256 1253.63 623.256C1254.35 623.256 1255.03 623.144 1255.66 622.92C1256.3 622.696 1256.81 622.369 1257.2 621.94C1257.6 621.511 1257.8 620.983 1257.8 620.358C1257.8 620.078 1257.76 619.821 1257.66 619.588C1257.57 619.345 1257.43 619.131 1257.24 618.944C1257.07 618.757 1256.83 618.589 1256.54 618.44C1256.26 618.281 1255.94 618.146 1255.56 618.034L1250.36 616.494C1249.91 616.363 1249.42 616.191 1248.9 615.976C1248.39 615.752 1247.9 615.449 1247.43 615.066C1246.97 614.674 1246.59 614.179 1246.3 613.582C1246.01 612.975 1245.86 612.229 1245.86 611.342C1245.86 610.045 1246.19 608.957 1246.84 608.08C1247.5 607.193 1248.39 606.531 1249.5 606.092C1250.62 605.653 1251.86 605.439 1253.23 605.448C1254.61 605.457 1255.84 605.695 1256.92 606.162C1258 606.619 1258.91 607.287 1259.64 608.164C1260.37 609.041 1260.88 610.101 1261.18 611.342L1257.55 611.972C1257.4 611.263 1257.11 610.661 1256.68 610.166C1256.26 609.662 1255.75 609.279 1255.13 609.018C1254.52 608.757 1253.87 608.617 1253.18 608.598C1252.51 608.589 1251.89 608.691 1251.31 608.906C1250.74 609.111 1250.28 609.41 1249.92 609.802C1249.58 610.194 1249.4 610.651 1249.4 611.174C1249.4 611.669 1249.55 612.075 1249.85 612.392C1250.15 612.7 1250.52 612.947 1250.96 613.134C1251.41 613.311 1251.86 613.461 1252.32 613.582L1255.93 614.59C1256.42 614.721 1256.98 614.898 1257.59 615.122C1258.21 615.346 1258.8 615.659 1259.37 616.06C1259.94 616.461 1260.41 616.989 1260.77 617.642C1261.15 618.295 1261.33 619.126 1261.33 620.134C1261.33 621.179 1261.11 622.099 1260.67 622.892C1260.24 623.676 1259.66 624.329 1258.92 624.852C1258.19 625.375 1257.34 625.767 1256.39 626.028C1255.45 626.289 1254.46 626.42 1253.42 626.42ZM1271.37 614.604V611.958H1285.65V614.604H1271.37ZM1271.37 619.882V617.236H1285.65V619.882H1271.37ZM1303.83 626.42C1302.4 626.42 1301.14 626.117 1300.05 625.51C1298.95 624.894 1298.1 624.04 1297.48 622.948C1296.88 621.856 1296.57 620.596 1296.57 619.168V612.672C1296.57 611.244 1296.88 609.984 1297.48 608.892C1298.1 607.8 1298.95 606.951 1300.05 606.344C1301.14 605.728 1302.4 605.42 1303.83 605.42C1305.25 605.42 1306.51 605.728 1307.59 606.344C1308.68 606.951 1309.54 607.8 1310.15 608.892C1310.77 609.984 1311.08 611.244 1311.08 612.672V619.168C1311.08 620.596 1310.77 621.856 1310.15 622.948C1309.54 624.04 1308.68 624.894 1307.59 625.51C1306.51 626.117 1305.25 626.42 1303.83 626.42ZM1303.83 623.214C1304.53 623.214 1305.18 623.046 1305.76 622.71C1306.34 622.365 1306.79 621.907 1307.13 621.338C1307.47 620.759 1307.63 620.115 1307.63 619.406V612.42C1307.63 611.701 1307.47 611.057 1307.13 610.488C1306.79 609.909 1306.34 609.452 1305.76 609.116C1305.18 608.771 1304.53 608.598 1303.83 608.598C1303.12 608.598 1302.47 608.771 1301.89 609.116C1301.31 609.452 1300.86 609.909 1300.52 610.488C1300.19 611.057 1300.02 611.701 1300.02 612.42V619.406C1300.02 620.115 1300.19 620.759 1300.52 621.338C1300.86 621.907 1301.31 622.365 1301.89 622.71C1302.47 623.046 1303.12 623.214 1303.83 623.214Z" fill="black"/>
<g filter="url(#filter1_d_101_793)">
<rect width="375" height="812" transform="matrix(2 0 0 2 40 438)" fill="#EFF0F7"/>
</g>
<defs>
<filter id="filter0_d_101_793" x="24" y="256" width="1648" height="168" filterUnits="userSpaceOnUse" color-interpolation-filters="sRGB">
<feFlood flood-opacity="0" result="BackgroundImageFix"/>
<feColorMatrix in="SourceAlpha" type="matrix" values="0 0 0 0 0 0 0 0 0 0 0 0 0 0 0 0 0 0 127 0" result="hardAlpha"/>
<feOffset/>
<feGaussianBlur stdDeviation="4"/>
<feComposite in2="hardAlpha" operator="out"/>
<feColorMatrix type="matrix" values="0 0 0 0 0 0 0 0 0 0 0 0 0 0 0 0 0 0 0.08 0"/>
<feBlend mode="normal" in2="BackgroundImageFix" result="effect1_dropShadow_101_793"/>
<feBlend mode="normal" in="SourceGraphic" in2="effect1_dropShadow_101_793" result="shape"/>
</filter>
<filter id="filter1_d_101_793" x="24" y="422" width="782" height="1656" filterUnits="userSpaceOnUse" color-interpolation-filters="sRGB">
<feFlood flood-opacity="0" result="BackgroundImageFix"/>
<feColorMatrix in="SourceAlpha" type="matrix" values="0 0 0 0 0 0 0 0 0 0 0 0 0 0 0 0 0 0 127 0" result="hardAlpha"/>
<feOffset/>
<feGaussianBlur stdDeviation="4"/>
<feComposite in2="hardAlpha" operator="out"/>
<feColorMatrix type="matrix" values="0 0 0 0 0 0 0 0 0 0 0 0 0 0 0 0 0 0 0.08 0"/>
<feBlend mode="normal" in2="BackgroundImageFix" result="effect1_dropShadow_101_793"/>
<feBlend mode="normal" in="SourceGraphic" in2="effect1_dropShadow_101_793" result="shape"/>
</filter>
</defs>
</svg>
