<svg width="1696" height="1396" viewBox="0 0 1696 1396" fill="none" xmlns="http://www.w3.org/2000/svg">
<path d="M5.12 68V21.92H12.832V68H5.12ZM37.4255 68.96C33.8628 68.96 30.8228 68.1707 28.3055 66.592C25.7882 64.992 23.8575 62.816 22.5135 60.064C21.1908 57.312 20.5188 54.1973 20.4975 50.72C20.5188 47.1787 21.2122 44.0427 22.5775 41.312C23.9642 38.56 25.9268 36.4053 28.4655 34.848C31.0042 33.2693 34.0228 32.48 37.5215 32.48C41.4468 32.48 44.7642 33.472 47.4735 35.456C50.2042 37.4187 51.9855 40.1067 52.8175 43.52L45.1375 45.6C44.5402 43.744 43.5482 42.304 42.1615 41.28C40.7748 40.2347 39.1962 39.712 37.4255 39.712C35.4202 39.712 33.7668 40.192 32.4655 41.152C31.1642 42.0907 30.2042 43.392 29.5855 45.056C28.9668 46.72 28.6575 48.608 28.6575 50.72C28.6575 54.0053 29.3935 56.6613 30.8655 58.688C32.3375 60.7147 34.5242 61.728 37.4255 61.728C39.4735 61.728 41.0842 61.2587 42.2575 60.32C43.4522 59.3813 44.3482 58.0267 44.9455 56.256L52.8175 58.016C51.7508 61.536 49.8842 64.2453 47.2175 66.144C44.5508 68.0213 41.2868 68.96 37.4255 68.96ZM73.5565 68.96C70.1005 68.96 67.0818 68.1813 64.5005 66.624C61.9192 65.0667 59.9138 62.9227 58.4845 60.192C57.0765 57.44 56.3725 54.2827 56.3725 50.72C56.3725 47.0933 57.0978 43.9147 58.5485 41.184C59.9992 38.4533 62.0152 36.32 64.5965 34.784C67.1778 33.248 70.1645 32.48 73.5565 32.48C77.0338 32.48 80.0632 33.2587 82.6445 34.816C85.2258 36.3733 87.2312 38.528 88.6605 41.28C90.0898 44.0107 90.8045 47.1573 90.8045 50.72C90.8045 54.304 90.0792 57.472 88.6285 60.224C87.1992 62.9547 85.1938 65.0987 82.6125 66.656C80.0312 68.192 77.0125 68.96 73.5565 68.96ZM73.5565 61.728C76.6285 61.728 78.9112 60.704 80.4045 58.656C81.8978 56.608 82.6445 53.9627 82.6445 50.72C82.6445 47.3707 81.8872 44.704 80.3725 42.72C78.8578 40.7147 76.5858 39.712 73.5565 39.712C71.4872 39.712 69.7805 40.1813 68.4365 41.12C67.1138 42.0373 66.1325 43.328 65.4925 44.992C64.8525 46.6347 64.5325 48.544 64.5325 50.72C64.5325 54.0693 65.2898 56.7467 66.8045 58.752C68.3405 60.736 70.5912 61.728 73.5565 61.728ZM121.759 68V51.36C121.759 50.272 121.684 49.0667 121.535 47.744C121.386 46.4213 121.034 45.152 120.479 43.936C119.946 42.6987 119.135 41.6853 118.047 40.896C116.98 40.1067 115.53 39.712 113.695 39.712C112.714 39.712 111.743 39.872 110.783 40.192C109.823 40.512 108.948 41.0667 108.159 41.856C107.391 42.624 106.772 43.6907 106.303 45.056C105.834 46.4 105.599 48.128 105.599 50.24L101.023 48.288C101.023 45.344 101.588 42.6773 102.719 40.288C103.871 37.8987 105.556 36 107.775 34.592C109.994 33.1627 112.724 32.448 115.967 32.448C118.527 32.448 120.639 32.8747 122.303 33.728C123.967 34.5813 125.29 35.6693 126.271 36.992C127.252 38.3147 127.978 39.7227 128.447 41.216C128.916 42.7093 129.215 44.128 129.343 45.472C129.492 46.7947 129.567 47.872 129.567 48.704V68H121.759ZM97.791 68V33.44H104.671V44.16H105.599V68H97.791ZM151.262 68.96C146.995 68.96 143.528 68 140.862 66.08C138.195 64.16 136.574 61.4613 135.998 57.984L143.87 56.768C144.275 58.4747 145.171 59.8187 146.558 60.8C147.944 61.7813 149.694 62.272 151.806 62.272C153.662 62.272 155.091 61.9093 156.094 61.184C157.118 60.4373 157.63 59.424 157.63 58.144C157.63 57.3547 157.438 56.7253 157.054 56.256C156.691 55.7653 155.88 55.296 154.622 54.848C153.363 54.4 151.432 53.8347 148.83 53.152C145.928 52.384 143.624 51.5627 141.918 50.688C140.211 49.792 138.984 48.736 138.238 47.52C137.491 46.304 137.118 44.832 137.118 43.104C137.118 40.9493 137.683 39.072 138.814 37.472C139.944 35.872 141.523 34.6453 143.55 33.792C145.576 32.9173 147.966 32.48 150.718 32.48C153.406 32.48 155.784 32.896 157.854 33.728C159.944 34.56 161.63 35.744 162.91 37.28C164.19 38.816 164.979 40.6187 165.278 42.688L157.406 44.096C157.214 42.624 156.542 41.4613 155.39 40.608C154.259 39.7547 152.744 39.2747 150.846 39.168C149.032 39.0613 147.571 39.3387 146.462 40C145.352 40.64 144.798 41.5467 144.798 42.72C144.798 43.3813 145.022 43.9467 145.47 44.416C145.918 44.8853 146.814 45.3547 148.158 45.824C149.523 46.2933 151.55 46.8693 154.238 47.552C156.99 48.256 159.187 49.0667 160.83 49.984C162.494 50.88 163.688 51.9573 164.414 53.216C165.16 54.4747 165.534 56 165.534 57.792C165.534 61.2693 164.264 64 161.726 65.984C159.208 67.968 155.72 68.96 151.262 68.96Z" fill="white"/>
<line y1="113" x2="808" y2="113" stroke="black" stroke-width="5"/>
<rect width="848" height="582" transform="matrix(2 0 0 2 0 232)" fill="white"/>
<g filter="url(#filter0_d_101_773)">
<rect x="40" y="272" width="1616" height="136" rx="10" fill="#EFF0F7"/>
</g>
<rect x="78" y="310" width="60" height="60" rx="10" fill="#F6E31A"/>
<path d="M158.08 350V331.28H161.213V350H158.08ZM171.204 350.39C169.757 350.39 168.522 350.069 167.499 349.428C166.476 348.778 165.692 347.894 165.146 346.776C164.609 345.658 164.336 344.393 164.327 342.98C164.336 341.541 164.617 340.267 165.172 339.158C165.735 338.04 166.533 337.165 167.564 336.532C168.595 335.891 169.822 335.57 171.243 335.57C172.838 335.57 174.185 335.973 175.286 336.779C176.395 337.576 177.119 338.668 177.457 340.055L174.337 340.9C174.094 340.146 173.691 339.561 173.128 339.145C172.565 338.72 171.923 338.508 171.204 338.508C170.389 338.508 169.718 338.703 169.189 339.093C168.66 339.474 168.27 340.003 168.019 340.679C167.768 341.355 167.642 342.122 167.642 342.98C167.642 344.315 167.941 345.394 168.539 346.217C169.137 347.04 170.025 347.452 171.204 347.452C172.036 347.452 172.69 347.261 173.167 346.88C173.652 346.499 174.016 345.948 174.259 345.229L177.457 345.944C177.024 347.374 176.265 348.475 175.182 349.246C174.099 350.009 172.773 350.39 171.204 350.39ZM185.882 350.39C184.478 350.39 183.252 350.074 182.203 349.441C181.155 348.808 180.34 347.937 179.759 346.828C179.187 345.71 178.901 344.427 178.901 342.98C178.901 341.507 179.196 340.215 179.785 339.106C180.375 337.997 181.194 337.13 182.242 336.506C183.291 335.882 184.504 335.57 185.882 335.57C187.295 335.57 188.526 335.886 189.574 336.519C190.623 337.152 191.438 338.027 192.018 339.145C192.599 340.254 192.889 341.533 192.889 342.98C192.889 344.436 192.595 345.723 192.005 346.841C191.425 347.95 190.61 348.821 189.561 349.454C188.513 350.078 187.286 350.39 185.882 350.39ZM185.882 347.452C187.13 347.452 188.058 347.036 188.664 346.204C189.271 345.372 189.574 344.297 189.574 342.98C189.574 341.619 189.267 340.536 188.651 339.73C188.036 338.915 187.113 338.508 185.882 338.508C185.042 338.508 184.348 338.699 183.802 339.08C183.265 339.453 182.866 339.977 182.606 340.653C182.346 341.32 182.216 342.096 182.216 342.98C182.216 344.341 182.524 345.428 183.139 346.243C183.763 347.049 184.678 347.452 185.882 347.452ZM205.465 350V343.24C205.465 342.798 205.434 342.308 205.374 341.771C205.313 341.234 205.17 340.718 204.945 340.224C204.728 339.721 204.399 339.31 203.957 338.989C203.523 338.668 202.934 338.508 202.189 338.508C201.79 338.508 201.396 338.573 201.006 338.703C200.616 338.833 200.26 339.058 199.94 339.379C199.628 339.691 199.376 340.124 199.186 340.679C198.995 341.225 198.9 341.927 198.9 342.785L197.041 341.992C197.041 340.796 197.27 339.713 197.73 338.742C198.198 337.771 198.882 337 199.784 336.428C200.685 335.847 201.794 335.557 203.112 335.557C204.152 335.557 205.01 335.73 205.686 336.077C206.362 336.424 206.899 336.866 207.298 337.403C207.696 337.94 207.991 338.512 208.182 339.119C208.372 339.726 208.494 340.302 208.546 340.848C208.606 341.385 208.637 341.823 208.637 342.161V350H205.465ZM195.728 350V335.96H198.523V340.315H198.9V350H195.728ZM217.45 350.39C215.717 350.39 214.308 350 213.225 349.22C212.142 348.44 211.483 347.344 211.249 345.931L214.447 345.437C214.612 346.13 214.976 346.676 215.539 347.075C216.102 347.474 216.813 347.673 217.671 347.673C218.425 347.673 219.006 347.526 219.413 347.231C219.829 346.928 220.037 346.516 220.037 345.996C220.037 345.675 219.959 345.42 219.803 345.229C219.656 345.03 219.326 344.839 218.815 344.657C218.304 344.475 217.519 344.245 216.462 343.968C215.283 343.656 214.347 343.322 213.654 342.967C212.961 342.603 212.462 342.174 212.159 341.68C211.856 341.186 211.704 340.588 211.704 339.886C211.704 339.011 211.934 338.248 212.393 337.598C212.852 336.948 213.494 336.45 214.317 336.103C215.14 335.748 216.111 335.57 217.229 335.57C218.321 335.57 219.287 335.739 220.128 336.077C220.977 336.415 221.662 336.896 222.182 337.52C222.702 338.144 223.023 338.876 223.144 339.717L219.946 340.289C219.868 339.691 219.595 339.219 219.127 338.872C218.668 338.525 218.052 338.33 217.281 338.287C216.544 338.244 215.951 338.356 215.5 338.625C215.049 338.885 214.824 339.253 214.824 339.73C214.824 339.999 214.915 340.228 215.097 340.419C215.279 340.61 215.643 340.8 216.189 340.991C216.744 341.182 217.567 341.416 218.659 341.693C219.777 341.979 220.67 342.308 221.337 342.681C222.013 343.045 222.498 343.483 222.793 343.994C223.096 344.505 223.248 345.125 223.248 345.853C223.248 347.266 222.732 348.375 221.701 349.181C220.678 349.987 219.261 350.39 217.45 350.39Z" fill="black"/>
<path d="M500.68 496.98L498.68 493.66C498.26 492.92 497.88 491.52 497.88 490.7V485.64C497.88 480.94 495.12 476.88 491.14 474.98C490.1 473.14 488.18 472 485.98 472C483.8 472 481.84 473.18 480.8 475.04C476.9 476.98 474.2 481 474.2 485.64V490.7C474.2 491.52 473.82 492.92 473.4 493.64L471.38 496.98C470.58 498.32 470.4 499.8 470.9 501.16C471.38 502.5 472.52 503.54 474 504.04C477.88 505.36 481.96 506 486.04 506C490.12 506 494.2 505.36 498.08 504.06C499.48 503.6 500.56 502.54 501.08 501.16C501.6 499.78 501.46 498.26 500.68 496.98Z" fill="#24252C"/>
<path d="M491.66 508.02C490.82 510.34 488.6 512 486 512C484.42 512 482.86 511.36 481.76 510.22C481.12 509.62 480.64 508.82 480.36 508C480.62 508.04 480.88 508.06 481.16 508.1C481.62 508.16 482.1 508.22 482.58 508.26C483.72 508.36 484.88 508.42 486.04 508.42C487.18 508.42 488.32 508.36 489.44 508.26C489.86 508.22 490.28 508.2 490.68 508.14C491 508.1 491.32 508.06 491.66 508.02Z" fill="#24252C"/>
<path d="M675.883 480C676.518 480 677.125 480.147 677.703 480.438C678.425 480.845 679.002 481.49 679.32 482.248C679.523 482.772 679.84 484.339 679.842 484.375C680.134 485.963 680.302 488.47 680.326 491.279L680.33 491.986C680.33 494.93 680.158 497.614 679.898 499.363L679.67 500.451C679.543 501.027 679.378 501.683 679.205 502.018C678.57 503.242 677.328 504 676 504H675.883C675.02 503.971 673.214 503.219 673.197 503.186C670.269 501.957 664.621 498.249 662.012 495.605L661.254 494.812C661.056 494.598 660.832 494.343 660.693 494.145C660.231 493.532 660 492.773 660 492.016C660 491.17 660.259 490.383 660.75 489.74L661.529 488.898L661.703 488.719C664.07 486.152 670.253 481.956 673.486 480.672L673.975 480.484C674.562 480.274 675.384 480.023 675.883 480ZM692.994 488.965C694.654 488.965 696 490.324 696 492C696 493.676 694.654 495.037 692.994 495.037L685.596 494.383C684.293 494.383 683.236 493.315 683.236 492C683.237 490.683 684.293 489.619 685.596 489.619L692.994 488.965Z" fill="#24252C"/>
<path d="M792.18 481.96C790.48 480.08 787.64 479.14 783.52 479.14H783.04V479.06C783.04 475.7 783.04 471.54 775.52 471.54H772.48C764.96 471.54 764.96 475.72 764.96 479.06V479.16H764.48C760.34 479.16 757.52 480.1 755.82 481.98C753.84 484.18 753.9 487.14 754.1 489.16L754.12 489.3L754.275 490.927C754.304 491.226 754.465 491.497 754.717 491.661C755.196 491.975 755.999 492.493 756.48 492.76C756.76 492.94 757.06 493.1 757.36 493.26C760.78 495.14 764.54 496.4 768.36 497.02C768.54 498.9 769.36 501.1 773.74 501.1C778.12 501.1 778.98 498.92 779.12 496.98C783.2 496.32 787.14 494.9 790.7 492.82C790.82 492.76 790.9 492.7 791 492.64C791.794 492.192 792.617 491.639 793.367 491.098C793.593 490.935 793.738 490.683 793.768 490.405L793.8 490.12L793.9 489.18C793.92 489.06 793.92 488.96 793.94 488.82C794.1 486.8 794.06 484.04 792.18 481.96ZM776.18 495.66C776.18 497.78 776.18 498.1 773.72 498.1C771.26 498.1 771.26 497.72 771.26 495.68V493.16H776.18V495.66ZM767.82 479.14V479.06C767.82 475.66 767.82 474.4 772.48 474.4H775.52C780.18 474.4 780.18 475.68 780.18 479.06V479.16H767.82V479.14Z" fill="#24252C"/>
<path d="M791.747 495.468C792.454 495.132 793.269 495.692 793.198 496.472L792.48 504.38C792.06 508.38 790.42 512.46 781.62 512.46H766.38C757.58 512.46 755.94 508.38 755.52 504.4L754.839 496.904C754.769 496.133 755.565 495.573 756.27 495.893C758.549 496.924 762.755 498.753 765.353 499.433C765.682 499.519 765.948 499.755 766.092 500.062C767.306 502.659 769.938 504.04 773.74 504.04C777.504 504.04 780.17 502.605 781.388 500.003C781.533 499.695 781.799 499.46 782.127 499.373C784.887 498.647 789.364 496.602 791.747 495.468Z" fill="#24252C"/>
<path d="M885.02 479.7L873.14 472.84C871.2 471.72 868.8 471.72 866.84 472.84L854.98 479.7C853.04 480.82 851.84 482.9 851.84 485.16V498.84C851.84 501.08 853.04 503.16 854.98 504.3L866.86 511.16C868.8 512.28 871.2 512.28 873.16 511.16L885.04 504.3C886.98 503.18 888.18 501.1 888.18 498.84V485.16C888.16 482.9 886.96 480.84 885.02 479.7ZM870 482.68C872.58 482.68 874.66 484.76 874.66 487.34C874.66 489.92 872.58 492 870 492C867.42 492 865.34 489.92 865.34 487.34C865.34 484.78 867.42 482.68 870 482.68ZM875.36 501.32H864.64C863.02 501.32 862.08 499.52 862.98 498.18C864.34 496.16 866.98 494.8 870 494.8C873.02 494.8 875.66 496.16 877.02 498.18C877.92 499.5 876.96 501.32 875.36 501.32Z" fill="#24252C"/>
<path d="M986 477.7V501.48C986 503.42 984.42 505.2 982.48 505.44L981.86 505.52C978.58 505.96 973.96 507.32 970.24 508.88C968.94 509.42 967.5 508.44 967.5 507.02V479.2C967.5 478.46 967.92 477.78 968.58 477.42C972.24 475.44 977.78 473.68 981.54 473.36H981.66C984.06 473.36 986 475.3 986 477.7Z" fill="#24252C"/>
<path d="M963.42 477.42C959.76 475.44 954.22 473.68 950.46 473.36H950.32C947.92 473.36 945.98 475.3 945.98 477.7V501.48C945.98 503.42 947.56 505.2 949.5 505.44L950.12 505.52C953.4 505.96 958.02 507.32 961.74 508.88C963.04 509.42 964.48 508.44 964.48 507.02V479.2C964.48 478.44 964.08 477.78 963.42 477.42ZM952 483.48H956.5C957.32 483.48 958 484.16 958 484.98C958 485.82 957.32 486.48 956.5 486.48H952C951.18 486.48 950.5 485.82 950.5 484.98C950.5 484.16 951.18 483.48 952 483.48ZM958 492.48H952C951.18 492.48 950.5 491.82 950.5 490.98C950.5 490.16 951.18 489.48 952 489.48H958C958.82 489.48 959.5 490.16 959.5 490.98C959.5 491.82 958.82 492.48 958 492.48Z" fill="#24252C"/>
<path d="M584.117 504C583.482 504 582.875 503.853 582.297 503.562C581.575 503.155 580.998 502.51 580.68 501.752C580.477 501.228 580.16 499.661 580.158 499.625C579.866 498.037 579.698 495.53 579.674 492.721L579.67 492.014C579.67 489.07 579.842 486.386 580.102 484.637L580.33 483.549C580.457 482.973 580.622 482.317 580.795 481.982C581.43 480.758 582.672 480 584 480H584.117C584.98 480.029 586.786 480.781 586.803 480.814C589.731 482.043 595.379 485.751 597.988 488.395L598.746 489.188C598.944 489.402 599.168 489.657 599.307 489.855C599.769 490.468 600 491.227 600 491.984C600 492.83 599.741 493.617 599.25 494.26L598.471 495.102L598.297 495.281C595.93 497.848 589.747 502.044 586.514 503.328L586.025 503.516C585.438 503.726 584.616 503.977 584.117 504ZM567.006 495.035C565.346 495.035 564 493.676 564 492C564 490.324 565.346 488.963 567.006 488.963L574.404 489.617C575.707 489.617 576.764 490.685 576.764 492C576.763 493.317 575.707 494.381 574.404 494.381L567.006 495.035Z" fill="#24252C"/>
<path d="M1050 492H1074" stroke="#24252C" stroke-width="4" stroke-linecap="round" stroke-linejoin="round"/>
<path d="M1062 504V480" stroke="#24252C" stroke-width="4" stroke-linecap="round" stroke-linejoin="round"/>
<path d="M119.66 484.02L106.56 473.54C104 471.5 99.9999 471.48 97.4599 473.52L84.3599 484.02C82.4799 485.52 81.3399 488.52 81.7399 490.88L84.2599 505.96C84.8399 509.34 87.9799 512 91.3999 512H112.6C115.98 512 119.18 509.28 119.76 505.94L122.28 490.86C122.64 488.52 121.5 485.52 119.66 484.02ZM103.5 504C103.5 504.82 102.82 505.5 102 505.5C101.18 505.5 100.5 504.82 100.5 504V498C100.5 497.18 101.18 496.5 102 496.5C102.82 496.5 103.5 497.18 103.5 498V504Z" fill="#24252C"/>
<path d="M207.5 475.12V472C207.5 471.18 206.82 470.5 206 470.5C205.18 470.5 204.5 471.18 204.5 472V475H191.5V472C191.5 471.18 190.82 470.5 190 470.5C189.18 470.5 188.5 471.18 188.5 472V475.12C183.1 475.62 180.48 478.84 180.08 483.62C180.04 484.2 180.52 484.68 181.08 484.68H214.92C215.5 484.68 215.98 484.18 215.92 483.62C215.52 478.84 212.9 475.62 207.5 475.12Z" fill="#24252C"/>
<path opacity="0.4" d="M214 487.68C215.1 487.68 216 488.58 216 489.68V502C216 508 213 512 206 512H190C183 512 180 508 180 502V489.68C180 488.58 180.9 487.68 182 487.68H214Z" fill="#24252C"/>
<path d="M191 498C190.48 498 189.96 497.78 189.58 497.42C189.22 497.04 189 496.52 189 496C189 495.48 189.22 494.96 189.58 494.58C190.14 494.02 191.02 493.84 191.76 494.16C192.02 494.26 192.24 494.4 192.42 494.58C192.78 494.96 193 495.48 193 496C193 496.52 192.78 497.04 192.42 497.42C192.04 497.78 191.52 498 191 498Z" fill="#24252C"/>
<path d="M198 498C197.48 498 196.96 497.78 196.58 497.42C196.22 497.04 196 496.52 196 496C196 495.48 196.22 494.96 196.58 494.58C196.76 494.4 196.98 494.26 197.24 494.16C197.98 493.84 198.86 494.02 199.42 494.58C199.78 494.96 200 495.48 200 496C200 496.52 199.78 497.04 199.42 497.42C199.32 497.5 199.22 497.58 199.12 497.66C199 497.74 198.88 497.8 198.76 497.84C198.64 497.9 198.52 497.94 198.4 497.96C198.26 497.98 198.14 498 198 498Z" fill="#24252C"/>
<path d="M205 498C204.48 498 203.96 497.78 203.58 497.42C203.22 497.04 203 496.52 203 496C203 495.48 203.22 494.96 203.58 494.58C203.78 494.4 203.98 494.26 204.24 494.16C204.6 494 205 493.96 205.4 494.04C205.52 494.06 205.64 494.1 205.76 494.16C205.88 494.2 206 494.26 206.12 494.34C206.22 494.42 206.32 494.5 206.42 494.58C206.78 494.96 207 495.48 207 496C207 496.52 206.78 497.04 206.42 497.42C206.32 497.5 206.22 497.58 206.12 497.66C206 497.74 205.88 497.8 205.76 497.84C205.64 497.9 205.52 497.94 205.4 497.96C205.26 497.98 205.12 498 205 498Z" fill="#24252C"/>
<path d="M191 505C190.74 505 190.48 504.94 190.24 504.84C189.98 504.74 189.78 504.6 189.58 504.42C189.22 504.04 189 503.52 189 503C189 502.48 189.22 501.96 189.58 501.58C189.78 501.4 189.98 501.26 190.24 501.16C190.6 501 191 500.96 191.4 501.04C191.52 501.06 191.64 501.1 191.76 501.16C191.88 501.2 192 501.26 192.12 501.34C192.22 501.42 192.32 501.5 192.42 501.58C192.78 501.96 193 502.48 193 503C193 503.52 192.78 504.04 192.42 504.42C192.32 504.5 192.22 504.6 192.12 504.66C192 504.74 191.88 504.8 191.76 504.84C191.64 504.9 191.52 504.94 191.4 504.96C191.26 504.98 191.14 505 191 505Z" fill="#24252C"/>
<path d="M198 505C197.48 505 196.96 504.78 196.58 504.42C196.22 504.04 196 503.52 196 503C196 502.48 196.22 501.96 196.58 501.58C197.32 500.84 198.68 500.84 199.42 501.58C199.78 501.96 200 502.48 200 503C200 503.52 199.78 504.04 199.42 504.42C199.04 504.78 198.52 505 198 505Z" fill="#24252C"/>
<path d="M205 505C204.48 505 203.96 504.78 203.58 504.42C203.22 504.04 203 503.52 203 503C203 502.48 203.22 501.96 203.58 501.58C204.32 500.84 205.68 500.84 206.42 501.58C206.78 501.96 207 502.48 207 503C207 503.52 206.78 504.04 206.42 504.42C206.04 504.78 205.52 505 205 505Z" fill="#24252C"/>
<path opacity="0.4" d="M311 488.38H305.22C300.48 488.38 296.62 484.52 296.62 479.78V474C296.62 472.9 295.72 472 294.62 472H286.14C279.98 472 275 476 275 483.14V500.86C275 508 279.98 512 286.14 512H301.86C308.02 512 313 508 313 500.86V490.38C313 489.28 312.1 488.38 311 488.38Z" fill="#24252C"/>
<path d="M301.6 472.42C300.78 471.6 299.36 472.16 299.36 473.3V480.28C299.36 483.2 301.84 485.62 304.86 485.62C306.76 485.64 309.4 485.64 311.66 485.64C312.8 485.64 313.4 484.3 312.6 483.5C309.72 480.6 304.56 475.38 301.6 472.42Z" fill="#24252C"/>
<path d="M297 495.5H285C284.18 495.5 283.5 494.82 283.5 494C283.5 493.18 284.18 492.5 285 492.5H297C297.82 492.5 298.5 493.18 298.5 494C298.5 494.82 297.82 495.5 297 495.5Z" fill="#24252C"/>
<path d="M293 503.5H285C284.18 503.5 283.5 502.82 283.5 502C283.5 501.18 284.18 500.5 285 500.5H293C293.82 500.5 294.5 501.18 294.5 502C294.5 502.82 293.82 503.5 293 503.5Z" fill="#24252C"/>
<path opacity="0.4" d="M384 472C378.76 472 374.5 476.26 374.5 481.5C374.5 486.64 378.52 490.8 383.76 490.98C383.92 490.96 384.08 490.96 384.2 490.98C384.24 490.98 384.26 490.98 384.3 490.98C384.32 490.98 384.32 490.98 384.34 490.98C389.46 490.8 393.48 486.64 393.5 481.5C393.5 476.26 389.24 472 384 472Z" fill="#24252C"/>
<path d="M394.16 496.3C388.58 492.58 379.48 492.58 373.86 496.3C371.32 498 369.92 500.3 369.92 502.76C369.92 505.22 371.32 507.5 373.84 509.18C376.64 511.06 380.32 512 384 512C387.68 512 391.36 511.06 394.16 509.18C396.68 507.48 398.08 505.2 398.08 502.72C398.06 500.26 396.68 497.98 394.16 496.3Z" fill="#24252C"/>
<path opacity="0.4" d="M405.98 482.68C406.3 486.56 403.54 489.96 399.72 490.42C399.7 490.42 399.7 490.42 399.68 490.42H399.62C399.5 490.42 399.38 490.42 399.28 490.46C397.34 490.56 395.56 489.94 394.22 488.8C396.28 486.96 397.46 484.2 397.22 481.2C397.08 479.58 396.52 478.1 395.68 476.84C396.44 476.46 397.32 476.22 398.22 476.14C402.14 475.8 405.64 478.72 405.98 482.68Z" fill="#24252C"/>
<path d="M409.98 501.18C409.82 503.12 408.58 504.8 406.5 505.94C404.5 507.04 401.98 507.56 399.48 507.5C400.92 506.2 401.76 504.58 401.92 502.86C402.12 500.38 400.94 498 398.58 496.1C397.24 495.04 395.68 494.2 393.98 493.58C398.4 492.3 403.96 493.16 407.38 495.92C409.22 497.4 410.16 499.26 409.98 501.18Z" fill="#24252C"/>
<path d="M1155.74 501.262C1155.62 501.149 1155.13 500.722 1154.72 500.324C1152.15 497.994 1147.95 491.915 1146.67 488.734C1146.46 488.25 1146.03 487.029 1146 486.376C1146 485.751 1146.14 485.154 1146.44 484.585C1146.84 483.876 1147.49 483.307 1148.24 482.996C1148.77 482.795 1150.34 482.483 1150.37 482.483C1152.09 482.171 1154.89 482 1157.98 482C1160.93 482 1163.61 482.171 1165.36 482.427C1165.39 482.456 1167.35 482.768 1168.02 483.109C1169.24 483.734 1170 484.956 1170 486.263V486.376C1169.97 487.227 1169.21 489.018 1169.18 489.018C1167.9 492.028 1163.9 497.967 1161.25 500.354C1161.25 500.354 1160.57 501.026 1160.14 501.318C1159.53 501.774 1158.77 502 1158.01 502C1157.17 502 1156.38 501.745 1155.74 501.262Z" fill="#24252C"/>
<defs>
<filter id="filter0_d_101_773" x="24" y="256" width="1648" height="168" filterUnits="userSpaceOnUse" color-interpolation-filters="sRGB">
<feFlood flood-opacity="0" result="BackgroundImageFix"/>
<feColorMatrix in="SourceAlpha" type="matrix" values="0 0 0 0 0 0 0 0 0 0 0 0 0 0 0 0 0 0 127 0" result="hardAlpha"/>
<feOffset/>
<feGaussianBlur stdDeviation="4"/>
<feComposite in2="hardAlpha" operator="out"/>
<feColorMatrix type="matrix" values="0 0 0 0 0 0 0 0 0 0 0 0 0 0 0 0 0 0 0.08 0"/>
<feBlend mode="normal" in2="BackgroundImageFix" result="effect1_dropShadow_101_773"/>
<feBlend mode="normal" in="SourceGraphic" in2="effect1_dropShadow_101_773" result="shape"/>
</filter>
</defs>
</svg>
