<svg width="1696" height="1272" viewBox="0 0 1696 1272" fill="none" xmlns="http://www.w3.org/2000/svg">
<path d="M23.968 68.96C19.36 68.96 15.4133 67.9573 12.128 65.952C8.84267 63.9253 6.31467 61.1093 4.544 57.504C2.79467 53.8987 1.92 49.7173 1.92 44.96C1.92 40.2027 2.79467 36.0213 4.544 32.416C6.31467 28.8107 8.84267 26.0053 12.128 24C15.4133 21.9733 19.36 20.96 23.968 20.96C29.28 20.96 33.7067 22.2933 37.248 24.96C40.7893 27.6053 43.2747 31.1787 44.704 35.68L36.928 37.824C36.032 34.816 34.5067 32.4693 32.352 30.784C30.1973 29.0773 27.4027 28.224 23.968 28.224C20.8747 28.224 18.2933 28.9173 16.224 30.304C14.176 31.6907 12.6293 33.6427 11.584 36.16C10.56 38.656 10.0373 41.5893 10.016 44.96C10.016 48.3307 10.528 51.2747 11.552 53.792C12.5973 56.288 14.1547 58.2293 16.224 59.616C18.2933 61.0027 20.8747 61.696 23.968 61.696C27.4027 61.696 30.1973 60.8427 32.352 59.136C34.5067 57.4293 36.032 55.0827 36.928 52.096L44.704 54.24C43.2747 58.7413 40.7893 62.3253 37.248 64.992C33.7067 67.6373 29.28 68.96 23.968 68.96ZM66.994 68.96C63.538 68.96 60.5193 68.1813 57.938 66.624C55.3567 65.0667 53.3513 62.9227 51.922 60.192C50.514 57.44 49.81 54.2827 49.81 50.72C49.81 47.0933 50.5353 43.9147 51.986 41.184C53.4367 38.4533 55.4527 36.32 58.034 34.784C60.6153 33.248 63.602 32.48 66.994 32.48C70.4713 32.48 73.5007 33.2587 76.082 34.816C78.6633 36.3733 80.6687 38.528 82.098 41.28C83.5273 44.0107 84.242 47.1573 84.242 50.72C84.242 54.304 83.5167 57.472 82.066 60.224C80.6367 62.9547 78.6313 65.0987 76.05 66.656C73.4687 68.192 70.45 68.96 66.994 68.96ZM66.994 61.728C70.066 61.728 72.3487 60.704 73.842 58.656C75.3353 56.608 76.082 53.9627 76.082 50.72C76.082 47.3707 75.3247 44.704 73.81 42.72C72.2953 40.7147 70.0233 39.712 66.994 39.712C64.9247 39.712 63.218 40.1813 61.874 41.12C60.5513 42.0373 59.57 43.328 58.93 44.992C58.29 46.6347 57.97 48.544 57.97 50.72C57.97 54.0693 58.7273 56.7467 60.242 58.752C61.778 60.736 64.0287 61.728 66.994 61.728ZM132.797 68V47.008C132.797 44.64 132.21 42.7947 131.037 41.472C129.863 40.128 128.274 39.456 126.269 39.456C125.031 39.456 123.922 39.744 122.941 40.32C121.959 40.8747 121.181 41.7067 120.604 42.816C120.029 43.904 119.741 45.2053 119.741 46.72L116.317 44.704C116.295 42.3147 116.829 40.2133 117.917 38.4C119.026 36.5653 120.519 35.136 122.397 34.112C124.274 33.088 126.365 32.576 128.669 32.576C132.487 32.576 135.41 33.728 137.437 36.032C139.485 38.3147 140.509 41.3227 140.509 45.056V68H132.797ZM91.2285 68V33.44H98.0445V44.16H99.0045V68H91.2285ZM112.061 68V47.104C112.061 44.6933 111.474 42.816 110.301 41.472C109.127 40.128 107.527 39.456 105.501 39.456C103.538 39.456 101.959 40.128 100.765 41.472C99.5912 42.816 99.0045 44.5653 99.0045 46.72L95.5485 44.416C95.5485 42.176 96.1032 40.16 97.2125 38.368C98.3218 36.576 99.8152 35.168 101.693 34.144C103.591 33.0987 105.714 32.576 108.061 32.576C110.642 32.576 112.797 33.1307 114.525 34.24C116.274 35.328 117.575 36.8213 118.429 38.72C119.303 40.5973 119.741 42.72 119.741 45.088V68H112.061ZM165.463 68.96C162.092 68.96 159.266 68.16 156.983 66.56C154.7 64.96 152.983 62.784 151.831 60.032C150.679 57.2587 150.103 54.1547 150.103 50.72C150.103 47.2427 150.679 44.128 151.831 41.376C152.983 38.624 154.668 36.4587 156.887 34.88C159.127 33.28 161.89 32.48 165.175 32.48C168.439 32.48 171.266 33.28 173.655 34.88C176.066 36.4587 177.932 38.624 179.255 41.376C180.578 44.1067 181.239 47.2213 181.239 50.72C181.239 54.176 180.588 57.28 179.287 60.032C177.986 62.784 176.151 64.96 173.783 66.56C171.415 68.16 168.642 68.96 165.463 68.96ZM148.791 83.36V33.44H155.607V57.696H156.567V83.36H148.791ZM164.279 62.048C166.284 62.048 167.938 61.5467 169.239 60.544C170.54 59.5413 171.5 58.1867 172.119 56.48C172.759 54.752 173.079 52.832 173.079 50.72C173.079 48.6293 172.759 46.7307 172.119 45.024C171.479 43.296 170.487 41.9307 169.143 40.928C167.799 39.904 166.092 39.392 164.023 39.392C162.06 39.392 160.46 39.872 159.223 40.832C157.986 41.7707 157.068 43.0933 156.471 44.8C155.895 46.4853 155.607 48.4587 155.607 50.72C155.607 52.96 155.895 54.9333 156.471 56.64C157.068 58.3467 157.996 59.68 159.255 60.64C160.535 61.5787 162.21 62.048 164.279 62.048ZM203.557 68.96C200.101 68.96 197.082 68.1813 194.501 66.624C191.919 65.0667 189.914 62.9227 188.485 60.192C187.077 57.44 186.373 54.2827 186.373 50.72C186.373 47.0933 187.098 43.9147 188.549 41.184C189.999 38.4533 192.015 36.32 194.597 34.784C197.178 33.248 200.165 32.48 203.557 32.48C207.034 32.48 210.063 33.2587 212.645 34.816C215.226 36.3733 217.231 38.528 218.661 41.28C220.09 44.0107 220.805 47.1573 220.805 50.72C220.805 54.304 220.079 57.472 218.629 60.224C217.199 62.9547 215.194 65.0987 212.613 66.656C210.031 68.192 207.013 68.96 203.557 68.96ZM203.557 61.728C206.629 61.728 208.911 60.704 210.405 58.656C211.898 56.608 212.645 53.9627 212.645 50.72C212.645 47.3707 211.887 44.704 210.373 42.72C208.858 40.7147 206.586 39.712 203.557 39.712C201.487 39.712 199.781 40.1813 198.437 41.12C197.114 42.0373 196.133 43.328 195.493 44.992C194.853 46.6347 194.533 48.544 194.533 50.72C194.533 54.0693 195.29 56.7467 196.805 58.752C198.341 60.736 200.591 61.728 203.557 61.728ZM251.759 68V51.36C251.759 50.272 251.684 49.0667 251.535 47.744C251.386 46.4213 251.034 45.152 250.479 43.936C249.946 42.6987 249.135 41.6853 248.047 40.896C246.98 40.1067 245.53 39.712 243.695 39.712C242.714 39.712 241.743 39.872 240.783 40.192C239.823 40.512 238.948 41.0667 238.159 41.856C237.391 42.624 236.772 43.6907 236.303 45.056C235.834 46.4 235.599 48.128 235.599 50.24L231.023 48.288C231.023 45.344 231.588 42.6773 232.719 40.288C233.871 37.8987 235.556 36 237.775 34.592C239.994 33.1627 242.724 32.448 245.967 32.448C248.527 32.448 250.639 32.8747 252.303 33.728C253.967 34.5813 255.29 35.6693 256.271 36.992C257.252 38.3147 257.978 39.7227 258.447 41.216C258.916 42.7093 259.215 44.128 259.343 45.472C259.492 46.7947 259.567 47.872 259.567 48.704V68H251.759ZM227.791 68V33.44H234.671V44.16H235.599V68H227.791ZM277.582 68.96C275.086 68.96 272.974 68.4907 271.246 67.552C269.518 66.592 268.206 65.3227 267.31 63.744C266.435 62.1653 265.998 60.4267 265.998 58.528C265.998 56.864 266.275 55.3707 266.83 54.048C267.384 52.704 268.238 51.552 269.39 50.592C270.542 49.6107 272.035 48.8107 273.87 48.192C275.256 47.744 276.878 47.3387 278.734 46.976C280.611 46.6133 282.638 46.2827 284.814 45.984C287.011 45.664 289.304 45.3227 291.694 44.96L288.942 46.528C288.963 44.1387 288.43 42.3787 287.342 41.248C286.254 40.1173 284.419 39.552 281.838 39.552C280.28 39.552 278.776 39.9147 277.326 40.64C275.875 41.3653 274.862 42.6133 274.286 44.384L267.246 42.176C268.099 39.2533 269.72 36.9067 272.11 35.136C274.52 33.3653 277.763 32.48 281.838 32.48C284.91 32.48 287.608 32.9813 289.934 33.984C292.28 34.9867 294.019 36.6293 295.15 38.912C295.768 40.128 296.142 41.376 296.27 42.656C296.398 43.9147 296.462 45.2907 296.462 46.784V68H289.71V60.512L290.83 61.728C289.272 64.224 287.448 66.0587 285.358 67.232C283.288 68.384 280.696 68.96 277.582 68.96ZM279.118 62.816C280.867 62.816 282.36 62.5067 283.598 61.888C284.835 61.2693 285.816 60.512 286.542 59.616C287.288 58.72 287.79 57.8773 288.046 57.088C288.451 56.1067 288.675 54.9867 288.718 53.728C288.782 52.448 288.814 51.4133 288.814 50.624L291.182 51.328C288.856 51.6907 286.862 52.0107 285.198 52.288C283.534 52.5653 282.104 52.832 280.91 53.088C279.715 53.3227 278.659 53.5893 277.742 53.888C276.846 54.208 276.088 54.5813 275.47 55.008C274.851 55.4347 274.371 55.9253 274.03 56.48C273.71 57.0347 273.55 57.6853 273.55 58.432C273.55 59.2853 273.763 60.0427 274.19 60.704C274.616 61.344 275.235 61.856 276.046 62.24C276.878 62.624 277.902 62.816 279.118 62.816ZM328.697 68V51.36C328.697 50.272 328.622 49.0667 328.473 47.744C328.323 46.4213 327.971 45.152 327.417 43.936C326.883 42.6987 326.073 41.6853 324.985 40.896C323.918 40.1067 322.467 39.712 320.633 39.712C319.651 39.712 318.681 39.872 317.721 40.192C316.761 40.512 315.886 41.0667 315.097 41.856C314.329 42.624 313.71 43.6907 313.241 45.056C312.771 46.4 312.537 48.128 312.537 50.24L307.961 48.288C307.961 45.344 308.526 42.6773 309.657 40.288C310.809 37.8987 312.494 36 314.713 34.592C316.931 33.1627 319.662 32.448 322.905 32.448C325.465 32.448 327.577 32.8747 329.241 33.728C330.905 34.5813 332.227 35.6693 333.208 36.992C334.19 38.3147 334.915 39.7227 335.385 41.216C335.854 42.7093 336.153 44.128 336.281 45.472C336.43 46.7947 336.505 47.872 336.505 48.704V68H328.697ZM304.729 68V33.44H311.609V44.16H312.537V68H304.729ZM365.111 68C362.828 68.4267 360.588 68.608 358.391 68.544C356.215 68.5013 354.263 68.1067 352.535 67.36C350.807 66.592 349.495 65.3867 348.599 63.744C347.81 62.2507 347.394 60.7253 347.351 59.168C347.308 57.6107 347.287 55.8507 347.287 53.888V23.84H354.967V53.44C354.967 54.8267 354.978 56.0427 354.999 57.088C355.042 58.1333 355.266 58.9867 355.671 59.648C356.439 60.928 357.666 61.6427 359.351 61.792C361.036 61.9413 362.956 61.856 365.111 61.536V68ZM341.015 39.488V33.44H365.111V39.488H341.015ZM385.887 68.96C381.62 68.96 378.153 68 375.487 66.08C372.82 64.16 371.199 61.4613 370.623 57.984L378.495 56.768C378.9 58.4747 379.796 59.8187 381.183 60.8C382.569 61.7813 384.319 62.272 386.431 62.272C388.287 62.272 389.716 61.9093 390.719 61.184C391.743 60.4373 392.255 59.424 392.255 58.144C392.255 57.3547 392.063 56.7253 391.679 56.256C391.316 55.7653 390.505 55.296 389.247 54.848C387.988 54.4 386.057 53.8347 383.455 53.152C380.553 52.384 378.249 51.5627 376.543 50.688C374.836 49.792 373.609 48.736 372.863 47.52C372.116 46.304 371.743 44.832 371.743 43.104C371.743 40.9493 372.308 39.072 373.439 37.472C374.569 35.872 376.148 34.6453 378.175 33.792C380.201 32.9173 382.591 32.48 385.343 32.48C388.031 32.48 390.409 32.896 392.479 33.728C394.569 34.56 396.255 35.744 397.535 37.28C398.815 38.816 399.604 40.6187 399.903 42.688L392.031 44.096C391.839 42.624 391.167 41.4613 390.015 40.608C388.884 39.7547 387.369 39.2747 385.471 39.168C383.657 39.0613 382.196 39.3387 381.087 40C379.977 40.64 379.423 41.5467 379.423 42.72C379.423 43.3813 379.647 43.9467 380.095 44.416C380.543 44.8853 381.439 45.3547 382.783 45.824C384.148 46.2933 386.175 46.8693 388.863 47.552C391.615 48.256 393.812 49.0667 395.455 49.984C397.119 50.88 398.313 51.9573 399.039 53.216C399.785 54.4747 400.159 56 400.159 57.792C400.159 61.2693 398.889 64 396.351 65.984C393.833 67.968 390.345 68.96 385.887 68.96Z" fill="white"/>
<line y1="113" x2="808" y2="113" stroke="black" stroke-width="5"/>
<rect width="848" height="520" transform="matrix(2 0 0 2 0 232)" fill="white"/>
<g clip-path="url(#clip0_101_704)">
<path fill-rule="evenodd" clip-rule="evenodd" d="M643.695 448.111H645.701C646.808 448.111 647.706 449.009 647.706 450.117V462.15C647.706 463.258 646.808 464.156 645.701 464.156H643.695C642.587 464.156 641.689 463.258 641.689 462.15V450.117C641.689 449.009 642.587 448.111 643.695 448.111Z" fill="#D1D1D6"/>
<path fill-rule="evenodd" clip-rule="evenodd" d="M634.67 452.123H636.675C637.783 452.123 638.681 453.021 638.681 454.129V462.151C638.681 463.259 637.783 464.156 636.675 464.156H634.67C633.562 464.156 632.664 463.259 632.664 462.151V454.129C632.664 453.021 633.562 452.123 634.67 452.123Z" fill="#D1D1D6"/>
<path fill-rule="evenodd" clip-rule="evenodd" d="M625.645 455.133H627.651C628.758 455.133 629.656 456.031 629.656 457.138V462.152C629.656 463.26 628.758 464.158 627.651 464.158H625.645C624.537 464.158 623.64 463.26 623.64 462.152V457.138C623.64 456.031 624.537 455.133 625.645 455.133Z" fill="#D1D1D6"/>
<path fill-rule="evenodd" clip-rule="evenodd" d="M652.72 444.102H654.726C655.834 444.102 656.732 444.999 656.732 446.107V462.152C656.732 463.259 655.834 464.157 654.726 464.157H652.72C651.613 464.157 650.715 463.259 650.715 462.152V446.107C650.715 444.999 651.613 444.102 652.72 444.102Z" fill="#3C3C43" fill-opacity="0.18"/>
<path fill-rule="evenodd" clip-rule="evenodd" d="M643.695 448.111H645.701C646.808 448.111 647.706 449.009 647.706 450.117V462.15C647.706 463.258 646.808 464.156 645.701 464.156H643.695C642.587 464.156 641.689 463.258 641.689 462.15V450.117C641.689 449.009 642.587 448.111 643.695 448.111Z" fill="black"/>
<path fill-rule="evenodd" clip-rule="evenodd" d="M634.67 452.123H636.675C637.783 452.123 638.681 453.021 638.681 454.129V462.151C638.681 463.259 637.783 464.156 636.675 464.156H634.67C633.562 464.156 632.664 463.259 632.664 462.151V454.129C632.664 453.021 633.562 452.123 634.67 452.123Z" fill="black"/>
<path fill-rule="evenodd" clip-rule="evenodd" d="M625.645 455.133H627.651C628.758 455.133 629.656 456.031 629.656 457.138V462.152C629.656 463.26 628.758 464.158 627.651 464.158H625.645C624.537 464.158 623.64 463.26 623.64 462.152V457.138C623.64 456.031 624.537 455.133 625.645 455.133Z" fill="black"/>
<path d="M684.072 458.02C685.355 458.02 686.601 458.357 687.699 458.999L688.144 459.26C688.481 459.457 688.541 459.919 688.264 460.195L684.465 463.983C684.232 464.216 683.854 464.216 683.62 463.983L679.846 460.219C679.571 459.945 679.628 459.485 679.963 459.286L680.402 459.024C681.511 458.366 682.773 458.02 684.072 458.02Z" fill="black"/>
<path d="M684.073 451.061C687.263 451.061 690.327 452.119 692.822 454.079L693.175 454.356C693.456 454.577 693.481 454.993 693.227 455.245L690.96 457.507C690.75 457.716 690.418 457.74 690.18 457.563L689.904 457.358C688.218 456.105 686.186 455.433 684.073 455.433C681.946 455.433 679.902 456.114 678.211 457.381L677.934 457.588C677.696 457.766 677.363 457.743 677.153 457.533L674.886 455.272C674.633 455.02 674.657 454.605 674.937 454.384L675.288 454.107C677.789 452.129 680.867 451.061 684.073 451.061Z" fill="black"/>
<path d="M684.073 444.102C689.136 444.102 693.978 445.888 697.811 449.162L698.138 449.441C698.403 449.667 698.418 450.069 698.172 450.315L695.911 452.569C695.692 452.787 695.342 452.803 695.105 452.604L694.825 452.37C691.808 449.847 688.025 448.474 684.073 448.474C680.107 448.474 676.312 449.856 673.29 452.395L673.01 452.631C672.773 452.83 672.422 452.815 672.203 452.596L669.943 450.342C669.697 450.097 669.712 449.695 669.975 449.469L670.301 449.19C674.139 445.898 678.994 444.102 684.073 444.102Z" fill="#3C3C43" fill-opacity="0.3"/>
<path d="M724.796 456.289H731.102L727.804 464.799C727.329 466.026 728.621 466.665 729.458 465.681L739.652 453.54C739.858 453.296 739.962 453.053 739.962 452.789C739.962 452.322 739.59 451.978 739.083 451.978H732.777L736.064 443.457C736.54 442.24 735.248 441.591 734.421 442.575L724.217 454.716C724.01 454.97 723.917 455.203 723.917 455.467C723.917 455.944 724.289 456.289 724.796 456.289Z" fill="black"/>
<path d="M730.519 444.101H713.89C711.675 444.101 709.879 445.897 709.879 448.112V460.146C709.879 462.361 711.675 464.157 713.89 464.157H725.904C725.672 464.805 725.635 465.517 725.822 466.163H713.89C710.567 466.163 707.873 463.469 707.873 460.146V448.112C707.873 444.789 710.567 442.096 713.89 442.096H732.204L730.519 444.101Z" fill="#3C3C43" fill-opacity="0.6"/>
<path d="M733.357 464.157H747.985C750.2 464.157 751.996 462.361 751.996 460.146V448.112C751.996 445.897 750.2 444.101 747.985 444.101H737.965C738.2 443.451 738.235 442.74 738.047 442.096H747.985C751.308 442.096 754.002 444.789 754.002 448.112V460.146C754.002 463.469 751.308 466.163 747.985 466.163H731.674L733.357 464.157Z" fill="#3C3C43" fill-opacity="0.6"/>
<path d="M756.006 450.117C757.114 450.117 758.012 451.015 758.012 452.123V456.134C758.012 457.242 757.114 458.139 756.006 458.139V450.117Z" fill="#3C3C43" fill-opacity="0.6"/>
<path d="M728.833 446.107L722.672 453.438L722.663 453.45C722.236 453.973 721.912 454.64 721.912 455.468C721.912 457.182 723.316 458.295 724.796 458.295H728.174L726.68 462.152H713.89C712.782 462.152 711.884 461.254 711.884 460.146V448.113C711.884 447.005 712.782 446.107 713.89 446.107H728.833Z" fill="#34C759"/>
<path d="M90.1124 463.165C95.5033 463.165 98.7056 458.95 98.7056 451.811C98.7056 449.122 98.1915 446.86 97.2073 445.112C95.7824 442.395 93.3293 440.926 90.2299 440.926C85.6175 440.926 82.3564 444.025 82.3564 448.373C82.3564 452.457 85.2943 455.424 89.3338 455.424C91.8163 455.424 93.8288 454.264 94.8276 452.251H94.8717C94.8717 452.251 94.9305 452.251 94.9452 452.251C94.9745 452.251 95.0774 452.251 95.0774 452.251C95.0774 457.099 93.2412 459.992 90.1418 459.992C88.3203 459.992 86.9101 458.994 86.4254 457.392H82.6502C83.2819 460.874 86.2344 463.165 90.1124 463.165ZM90.2446 452.413C87.8062 452.413 86.0728 450.679 86.0728 448.256C86.0728 445.891 87.8943 444.084 90.2593 444.084C92.6242 444.084 94.4457 445.92 94.4457 448.314C94.4457 450.679 92.6683 452.413 90.2446 452.413Z" fill="black"/>
<path d="M104.905 462.96C106.301 462.96 107.255 461.961 107.255 460.639C107.255 459.302 106.301 458.318 104.905 458.318C103.524 458.318 102.555 459.302 102.555 460.639C102.555 461.961 103.524 462.96 104.905 462.96ZM104.905 451.943C106.301 451.943 107.255 450.959 107.255 449.637C107.255 448.3 106.301 447.316 104.905 447.316C103.524 447.316 102.555 448.3 102.555 449.637C102.555 450.959 103.524 451.943 104.905 451.943Z" fill="black"/>
<path d="M121.005 462.651H124.633V458.7H127.498V455.498H124.633V441.455H119.286C115.541 447.095 112.559 451.811 110.649 455.321V458.7H121.005V462.651ZM114.16 455.365C116.628 451.017 118.831 447.536 120.858 444.539H121.064V455.586H114.16V455.365Z" fill="black"/>
<path d="M135.577 462.651H139.367V441.455H135.592L130.054 445.333V448.976L135.328 445.274H135.577V462.651Z" fill="black"/>
</g>
<g filter="url(#filter0_d_101_704)">
<rect x="40" y="272" width="1616" height="136" rx="10" fill="#EFF0F7"/>
</g>
<rect x="78" y="310" width="60" height="60" rx="10" fill="#F6E31A"/>
<path d="M156.52 350L162.422 331.28H167.011L172.913 350H169.689L164.333 333.204H165.035L159.744 350H156.52ZM159.809 345.944V343.019H169.637V345.944H159.809ZM182.01 350.39C180.641 350.39 179.493 350.065 178.565 349.415C177.638 348.765 176.94 347.881 176.472 346.763C176.004 345.636 175.77 344.375 175.77 342.98C175.77 341.567 176.004 340.302 176.472 339.184C176.94 338.066 177.625 337.186 178.526 336.545C179.436 335.895 180.559 335.57 181.893 335.57C183.219 335.57 184.368 335.895 185.338 336.545C186.318 337.186 187.076 338.066 187.613 339.184C188.151 340.293 188.419 341.559 188.419 342.98C188.419 344.384 188.155 345.645 187.626 346.763C187.098 347.881 186.352 348.765 185.39 349.415C184.428 350.065 183.302 350.39 182.01 350.39ZM175.237 356.24V335.96H178.006V345.814H178.396V356.24H175.237ZM181.529 347.582C182.344 347.582 183.016 347.378 183.544 346.971C184.073 346.564 184.463 346.013 184.714 345.32C184.974 344.618 185.104 343.838 185.104 342.98C185.104 342.131 184.974 341.359 184.714 340.666C184.454 339.964 184.051 339.409 183.505 339.002C182.959 338.586 182.266 338.378 181.425 338.378C180.628 338.378 179.978 338.573 179.475 338.963C178.973 339.344 178.6 339.882 178.357 340.575C178.123 341.26 178.006 342.061 178.006 342.98C178.006 343.89 178.123 344.692 178.357 345.385C178.6 346.078 178.977 346.62 179.488 347.01C180.008 347.391 180.689 347.582 181.529 347.582ZM198.032 350.39C196.663 350.39 195.514 350.065 194.587 349.415C193.66 348.765 192.962 347.881 192.494 346.763C192.026 345.636 191.792 344.375 191.792 342.98C191.792 341.567 192.026 340.302 192.494 339.184C192.962 338.066 193.647 337.186 194.548 336.545C195.458 335.895 196.58 335.57 197.915 335.57C199.241 335.57 200.389 335.895 201.36 336.545C202.339 337.186 203.098 338.066 203.635 339.184C204.172 340.293 204.441 341.559 204.441 342.98C204.441 344.384 204.177 345.645 203.648 346.763C203.119 347.881 202.374 348.765 201.412 349.415C200.45 350.065 199.323 350.39 198.032 350.39ZM191.259 356.24V335.96H194.028V345.814H194.418V356.24H191.259ZM197.551 347.582C198.366 347.582 199.037 347.378 199.566 346.971C200.095 346.564 200.485 346.013 200.736 345.32C200.996 344.618 201.126 343.838 201.126 342.98C201.126 342.131 200.996 341.359 200.736 340.666C200.476 339.964 200.073 339.409 199.527 339.002C198.981 338.586 198.288 338.378 197.447 338.378C196.65 338.378 196 338.573 195.497 338.963C194.994 339.344 194.622 339.882 194.379 340.575C194.145 341.26 194.028 342.061 194.028 342.98C194.028 343.89 194.145 344.692 194.379 345.385C194.622 346.078 194.999 346.62 195.51 347.01C196.03 347.391 196.71 347.582 197.551 347.582ZM220.428 350.39C218.556 350.39 216.953 349.983 215.618 349.168C214.284 348.345 213.257 347.201 212.537 345.736C211.827 344.271 211.471 342.573 211.471 340.64C211.471 338.707 211.827 337.009 212.537 335.544C213.257 334.079 214.284 332.94 215.618 332.125C216.953 331.302 218.556 330.89 220.428 330.89C222.586 330.89 224.385 331.432 225.823 332.515C227.262 333.59 228.272 335.041 228.852 336.87L225.693 337.741C225.329 336.519 224.71 335.566 223.834 334.881C222.959 334.188 221.824 333.841 220.428 333.841C219.172 333.841 218.123 334.123 217.282 334.686C216.45 335.249 215.822 336.042 215.397 337.065C214.981 338.079 214.769 339.271 214.76 340.64C214.76 342.009 214.968 343.205 215.384 344.228C215.809 345.242 216.442 346.031 217.282 346.594C218.123 347.157 219.172 347.439 220.428 347.439C221.824 347.439 222.959 347.092 223.834 346.399C224.71 345.706 225.329 344.752 225.693 343.539L228.852 344.41C228.272 346.239 227.262 347.695 225.823 348.778C224.385 349.853 222.586 350.39 220.428 350.39ZM237.908 350.39C236.504 350.39 235.277 350.074 234.229 349.441C233.18 348.808 232.365 347.937 231.785 346.828C231.213 345.71 230.927 344.427 230.927 342.98C230.927 341.507 231.221 340.215 231.811 339.106C232.4 337.997 233.219 337.13 234.268 336.506C235.316 335.882 236.53 335.57 237.908 335.57C239.32 335.57 240.551 335.886 241.6 336.519C242.648 337.152 243.463 338.027 244.044 339.145C244.624 340.254 244.915 341.533 244.915 342.98C244.915 344.436 244.62 345.723 244.031 346.841C243.45 347.95 242.635 348.821 241.587 349.454C240.538 350.078 239.312 350.39 237.908 350.39ZM237.908 347.452C239.156 347.452 240.083 347.036 240.69 346.204C241.296 345.372 241.6 344.297 241.6 342.98C241.6 341.619 241.292 340.536 240.677 339.73C240.061 338.915 239.138 338.508 237.908 338.508C237.067 338.508 236.374 338.699 235.828 339.08C235.29 339.453 234.892 339.977 234.632 340.653C234.372 341.32 234.242 342.096 234.242 342.98C234.242 344.341 234.549 345.428 235.165 346.243C235.789 347.049 236.703 347.452 237.908 347.452ZM264.64 350V341.472C264.64 340.51 264.402 339.76 263.925 339.223C263.448 338.677 262.803 338.404 261.988 338.404C261.485 338.404 261.035 338.521 260.636 338.755C260.237 338.98 259.921 339.318 259.687 339.769C259.453 340.211 259.336 340.74 259.336 341.355L257.945 340.536C257.936 339.565 258.153 338.712 258.595 337.975C259.046 337.23 259.652 336.649 260.415 336.233C261.178 335.817 262.027 335.609 262.963 335.609C264.514 335.609 265.702 336.077 266.525 337.013C267.357 337.94 267.773 339.162 267.773 340.679V350H264.64ZM247.753 350V335.96H250.522V340.315H250.912V350H247.753ZM256.216 350V341.511C256.216 340.532 255.978 339.769 255.501 339.223C255.024 338.677 254.374 338.404 253.551 338.404C252.754 338.404 252.112 338.677 251.627 339.223C251.15 339.769 250.912 340.48 250.912 341.355L249.508 340.419C249.508 339.509 249.733 338.69 250.184 337.962C250.635 337.234 251.241 336.662 252.004 336.246C252.775 335.821 253.638 335.609 254.591 335.609C255.64 335.609 256.515 335.834 257.217 336.285C257.928 336.727 258.456 337.334 258.803 338.105C259.158 338.868 259.336 339.73 259.336 340.692V350H256.216ZM277.911 350.39C276.541 350.39 275.393 350.065 274.466 349.415C273.538 348.765 272.841 347.881 272.373 346.763C271.905 345.636 271.671 344.375 271.671 342.98C271.671 341.567 271.905 340.302 272.373 339.184C272.841 338.066 273.525 337.186 274.427 336.545C275.337 335.895 276.459 335.57 277.794 335.57C279.12 335.57 280.268 335.895 281.239 336.545C282.218 337.186 282.976 338.066 283.514 339.184C284.051 340.293 284.32 341.559 284.32 342.98C284.32 344.384 284.055 345.645 283.527 346.763C282.998 347.881 282.253 348.765 281.291 349.415C280.329 350.065 279.202 350.39 277.911 350.39ZM271.138 356.24V335.96H273.907V345.814H274.297V356.24H271.138ZM277.43 347.582C278.244 347.582 278.916 347.378 279.445 346.971C279.973 346.564 280.363 346.013 280.615 345.32C280.875 344.618 281.005 343.838 281.005 342.98C281.005 342.131 280.875 341.359 280.615 340.666C280.355 339.964 279.952 339.409 279.406 339.002C278.86 338.586 278.166 338.378 277.326 338.378C276.528 338.378 275.878 338.573 275.376 338.963C274.873 339.344 274.5 339.882 274.258 340.575C274.024 341.26 273.907 342.061 273.907 342.98C273.907 343.89 274.024 344.692 274.258 345.385C274.5 346.078 274.877 346.62 275.389 347.01C275.909 347.391 276.589 347.582 277.43 347.582ZM293.386 350.39C291.982 350.39 290.756 350.074 289.707 349.441C288.659 348.808 287.844 347.937 287.263 346.828C286.691 345.71 286.405 344.427 286.405 342.98C286.405 341.507 286.7 340.215 287.289 339.106C287.879 337.997 288.698 337.13 289.746 336.506C290.795 335.882 292.008 335.57 293.386 335.57C294.799 335.57 296.03 335.886 297.078 336.519C298.127 337.152 298.942 338.027 299.522 339.145C300.103 340.254 300.393 341.533 300.393 342.98C300.393 344.436 300.099 345.723 299.509 346.841C298.929 347.95 298.114 348.821 297.065 349.454C296.017 350.078 294.79 350.39 293.386 350.39ZM293.386 347.452C294.634 347.452 295.562 347.036 296.168 346.204C296.775 345.372 297.078 344.297 297.078 342.98C297.078 341.619 296.771 340.536 296.155 339.73C295.54 338.915 294.617 338.508 293.386 338.508C292.546 338.508 291.852 338.699 291.306 339.08C290.769 339.453 290.37 339.977 290.11 340.653C289.85 341.32 289.72 342.096 289.72 342.98C289.72 344.341 290.028 345.428 290.643 346.243C291.267 347.049 292.182 347.452 293.386 347.452ZM312.969 350V343.24C312.969 342.798 312.938 342.308 312.878 341.771C312.817 341.234 312.674 340.718 312.449 340.224C312.232 339.721 311.903 339.31 311.461 338.989C311.027 338.668 310.438 338.508 309.693 338.508C309.294 338.508 308.9 338.573 308.51 338.703C308.12 338.833 307.764 339.058 307.444 339.379C307.132 339.691 306.88 340.124 306.69 340.679C306.499 341.225 306.404 341.927 306.404 342.785L304.545 341.992C304.545 340.796 304.774 339.713 305.234 338.742C305.702 337.771 306.386 337 307.288 336.428C308.189 335.847 309.298 335.557 310.616 335.557C311.656 335.557 312.514 335.73 313.19 336.077C313.866 336.424 314.403 336.866 314.801 337.403C315.2 337.94 315.495 338.512 315.686 339.119C315.876 339.726 315.998 340.302 316.05 340.848C316.11 341.385 316.141 341.823 316.141 342.161V350H312.969ZM303.232 350V335.96H306.027V340.315H306.404V350H303.232ZM323.459 350.39C322.445 350.39 321.587 350.199 320.885 349.818C320.183 349.428 319.65 348.912 319.286 348.271C318.931 347.63 318.753 346.923 318.753 346.152C318.753 345.476 318.866 344.869 319.091 344.332C319.316 343.786 319.663 343.318 320.131 342.928C320.599 342.529 321.206 342.204 321.951 341.953C322.514 341.771 323.173 341.606 323.927 341.459C324.69 341.312 325.513 341.177 326.397 341.056C327.29 340.926 328.221 340.787 329.192 340.64L328.074 341.277C328.083 340.306 327.866 339.591 327.424 339.132C326.982 338.673 326.237 338.443 325.188 338.443C324.555 338.443 323.944 338.59 323.355 338.885C322.766 339.18 322.354 339.687 322.12 340.406L319.26 339.509C319.607 338.322 320.265 337.368 321.236 336.649C322.215 335.93 323.533 335.57 325.188 335.57C326.436 335.57 327.532 335.774 328.477 336.181C329.43 336.588 330.137 337.256 330.596 338.183C330.847 338.677 330.999 339.184 331.051 339.704C331.103 340.215 331.129 340.774 331.129 341.381V350H328.386V346.958L328.841 347.452C328.208 348.466 327.467 349.211 326.618 349.688C325.777 350.156 324.724 350.39 323.459 350.39ZM324.083 347.894C324.794 347.894 325.4 347.768 325.903 347.517C326.406 347.266 326.804 346.958 327.099 346.594C327.402 346.23 327.606 345.888 327.71 345.567C327.875 345.168 327.966 344.713 327.983 344.202C328.009 343.682 328.022 343.262 328.022 342.941L328.984 343.227C328.039 343.374 327.229 343.504 326.553 343.617C325.877 343.73 325.296 343.838 324.811 343.942C324.326 344.037 323.897 344.146 323.524 344.267C323.16 344.397 322.852 344.549 322.601 344.722C322.35 344.895 322.155 345.095 322.016 345.32C321.886 345.545 321.821 345.81 321.821 346.113C321.821 346.46 321.908 346.767 322.081 347.036C322.254 347.296 322.506 347.504 322.835 347.66C323.173 347.816 323.589 347.894 324.083 347.894ZM344.224 350V343.24C344.224 342.798 344.194 342.308 344.133 341.771C344.073 341.234 343.93 340.718 343.704 340.224C343.488 339.721 343.158 339.31 342.716 338.989C342.283 338.668 341.694 338.508 340.948 338.508C340.55 338.508 340.155 338.573 339.765 338.703C339.375 338.833 339.02 339.058 338.699 339.379C338.387 339.691 338.136 340.124 337.945 340.679C337.755 341.225 337.659 341.927 337.659 342.785L335.8 341.992C335.8 340.796 336.03 339.713 336.489 338.742C336.957 337.771 337.642 337 338.543 336.428C339.445 335.847 340.554 335.557 341.871 335.557C342.911 335.557 343.769 335.73 344.445 336.077C345.121 336.424 345.659 336.866 346.057 337.403C346.456 337.94 346.751 338.512 346.941 339.119C347.132 339.726 347.253 340.302 347.305 340.848C347.366 341.385 347.396 341.823 347.396 342.161V350H344.224ZM334.487 350V335.96H337.282V340.315H337.659V350H334.487ZM359.018 350C358.09 350.173 357.18 350.247 356.288 350.221C355.404 350.204 354.611 350.043 353.909 349.74C353.207 349.428 352.674 348.938 352.31 348.271C351.989 347.664 351.82 347.045 351.803 346.412C351.785 345.779 351.777 345.064 351.777 344.267V332.06H354.897V344.085C354.897 344.648 354.901 345.142 354.91 345.567C354.927 345.992 355.018 346.338 355.183 346.607C355.495 347.127 355.993 347.417 356.678 347.478C357.362 347.539 358.142 347.504 359.018 347.374V350ZM349.229 338.417V335.96H359.018V338.417H349.229Z" fill="black"/>
<path d="M40 555.026C40 545.474 47.4345 537.592 56.9756 537.126C81.0623 535.949 125.804 534 158 534C190.196 534 234.938 535.949 259.024 537.126C268.566 537.592 276 545.474 276 555.026V588.974C276 598.526 268.566 606.408 259.024 606.874C234.938 608.051 190.196 610 158 610C125.804 610 81.0624 608.051 56.9756 606.874C47.4345 606.408 40 598.526 40 588.974V555.026Z" fill="#5F27FF"/>
<path d="M99.724 586V559.4H110.82C112.517 559.4 113.949 559.653 115.114 560.16C116.279 560.667 117.153 561.427 117.736 562.44C118.344 563.428 118.648 564.644 118.648 566.088C118.648 567.532 118.243 568.761 117.432 569.774C116.647 570.787 115.545 571.484 114.126 571.864V571.104C115.317 571.357 116.355 571.813 117.242 572.472C118.129 573.105 118.813 573.903 119.294 574.866C119.801 575.829 120.054 576.931 120.054 578.172C120.054 579.439 119.851 580.566 119.446 581.554C119.066 582.517 118.483 583.327 117.698 583.986C116.938 584.645 116.013 585.151 114.924 585.506C113.835 585.835 112.593 586 111.2 586H99.724ZM103.828 582.048H110.972C112.011 582.048 112.885 581.896 113.594 581.592C114.329 581.288 114.886 580.845 115.266 580.262C115.671 579.654 115.874 578.932 115.874 578.096C115.874 577.311 115.659 576.639 115.228 576.082C114.823 575.525 114.24 575.107 113.48 574.828C112.72 574.524 111.821 574.372 110.782 574.372H103.828V582.048ZM103.828 570.42H110.592C111.352 570.42 112.023 570.268 112.606 569.964C113.214 569.66 113.683 569.242 114.012 568.71C114.367 568.178 114.544 567.57 114.544 566.886C114.544 565.746 114.164 564.872 113.404 564.264C112.644 563.656 111.555 563.352 110.136 563.352H103.828V570.42ZM131.593 586.38C130.175 586.38 128.933 586.051 127.869 585.392C126.831 584.733 126.02 583.809 125.437 582.618C124.88 581.427 124.601 580.009 124.601 578.362V566.05H128.515V577.298C128.515 578.463 128.693 579.477 129.047 580.338C129.427 581.174 129.959 581.82 130.643 582.276C131.353 582.732 132.201 582.96 133.189 582.96C133.924 582.96 134.595 582.846 135.203 582.618C135.811 582.365 136.331 582.023 136.761 581.592C137.217 581.161 137.572 580.642 137.825 580.034C138.079 579.426 138.205 578.767 138.205 578.058V566.05H142.119V586H138.205V581.82L138.889 581.364C138.585 582.301 138.066 583.15 137.331 583.91C136.622 584.67 135.773 585.278 134.785 585.734C133.797 586.165 132.733 586.38 131.593 586.38ZM150.079 586V560.958H153.993V586H150.079ZM145.937 569.85V566.05H158.629V569.85H145.937ZM164.663 586V560.958H168.577V586H164.663ZM160.521 569.85V566.05H173.213V569.85H160.521ZM185.559 586.38C183.609 586.38 181.861 585.937 180.315 585.05C178.795 584.138 177.592 582.909 176.705 581.364C175.819 579.793 175.375 578.007 175.375 576.006C175.375 574.005 175.819 572.231 176.705 570.686C177.592 569.115 178.795 567.887 180.315 567C181.861 566.088 183.609 565.632 185.559 565.632C187.485 565.632 189.207 566.088 190.727 567C192.273 567.887 193.489 569.115 194.375 570.686C195.262 572.231 195.705 574.005 195.705 576.006C195.705 578.007 195.262 579.793 194.375 581.364C193.489 582.909 192.273 584.138 190.727 585.05C189.207 585.937 187.485 586.38 185.559 586.38ZM185.559 582.808C186.75 582.808 187.814 582.517 188.751 581.934C189.689 581.326 190.423 580.515 190.955 579.502C191.487 578.463 191.741 577.298 191.715 576.006C191.741 574.689 191.487 573.523 190.955 572.51C190.423 571.471 189.689 570.661 188.751 570.078C187.814 569.495 186.75 569.204 185.559 569.204C184.369 569.204 183.292 569.508 182.329 570.116C181.392 570.699 180.657 571.509 180.125 572.548C179.593 573.561 179.34 574.714 179.365 576.006C179.34 577.298 179.593 578.463 180.125 579.502C180.657 580.515 181.392 581.326 182.329 581.934C183.292 582.517 184.369 582.808 185.559 582.808ZM199.97 586V566.05H203.884V570.154L203.2 570.61C203.454 569.723 203.948 568.913 204.682 568.178C205.417 567.418 206.291 566.81 207.304 566.354C208.318 565.873 209.356 565.632 210.42 565.632C211.94 565.632 213.207 565.936 214.22 566.544C215.234 567.127 215.994 568.026 216.5 569.242C217.007 570.458 217.26 571.991 217.26 573.84V586H213.346V574.106C213.346 572.966 213.194 572.029 212.89 571.294C212.586 570.534 212.118 569.989 211.484 569.66C210.851 569.305 210.066 569.153 209.128 569.204C208.368 569.204 207.672 569.331 207.038 569.584C206.405 569.812 205.848 570.141 205.366 570.572C204.91 571.003 204.543 571.509 204.264 572.092C204.011 572.649 203.884 573.257 203.884 573.916V586H201.946C201.617 586 201.288 586 200.958 586C200.629 586 200.3 586 199.97 586Z" fill="white"/>
<defs>
<filter id="filter0_d_101_704" x="24" y="256" width="1648" height="168" filterUnits="userSpaceOnUse" color-interpolation-filters="sRGB">
<feFlood flood-opacity="0" result="BackgroundImageFix"/>
<feColorMatrix in="SourceAlpha" type="matrix" values="0 0 0 0 0 0 0 0 0 0 0 0 0 0 0 0 0 0 127 0" result="hardAlpha"/>
<feOffset/>
<feGaussianBlur stdDeviation="4"/>
<feComposite in2="hardAlpha" operator="out"/>
<feColorMatrix type="matrix" values="0 0 0 0 0 0 0 0 0 0 0 0 0 0 0 0 0 0 0.08 0"/>
<feBlend mode="normal" in2="BackgroundImageFix" result="effect1_dropShadow_101_704"/>
<feBlend mode="normal" in="SourceGraphic" in2="effect1_dropShadow_101_704" result="shape"/>
</filter>
<clipPath id="clip0_101_704">
<rect width="376.045" height="44.1227" fill="white" transform="matrix(2 0 0 2 40 408)"/>
</clipPath>
</defs>
</svg>
