<svg width="808" height="118" viewBox="0 0 808 118" fill="none" xmlns="http://www.w3.org/2000/svg">
<path d="M15.552 68V29.152H0.64V21.92H38.176V29.152H23.264V68H15.552ZM43.3365 83.36L49.9925 65.088L50.1205 70.464L35.0485 33.44H43.0805L53.7685 60.832H51.7205L62.1205 33.44H69.8325L50.5685 83.36H43.3365ZM91.213 68.96C87.8423 68.96 85.0157 68.16 82.733 66.56C80.4503 64.96 78.733 62.784 77.581 60.032C76.429 57.2587 75.853 54.1547 75.853 50.72C75.853 47.2427 76.429 44.128 77.581 41.376C78.733 38.624 80.4183 36.4587 82.637 34.88C84.877 33.28 87.6397 32.48 90.925 32.48C94.189 32.48 97.0157 33.28 99.405 34.88C101.816 36.4587 103.682 38.624 105.005 41.376C106.328 44.1067 106.989 47.2213 106.989 50.72C106.989 54.176 106.338 57.28 105.037 60.032C103.736 62.784 101.901 64.96 99.533 66.56C97.165 68.16 94.3917 68.96 91.213 68.96ZM74.541 83.36V33.44H81.357V57.696H82.317V83.36H74.541ZM90.029 62.048C92.0343 62.048 93.6877 61.5467 94.989 60.544C96.2903 59.5413 97.2503 58.1867 97.869 56.48C98.509 54.752 98.829 52.832 98.829 50.72C98.829 48.6293 98.509 46.7307 97.869 45.024C97.229 43.296 96.237 41.9307 94.893 40.928C93.549 39.904 91.8423 39.392 89.773 39.392C87.8103 39.392 86.2103 39.872 84.973 40.832C83.7357 41.7707 82.8183 43.0933 82.221 44.8C81.645 46.4853 81.357 48.4587 81.357 50.72C81.357 52.96 81.645 54.9333 82.221 56.64C82.8183 58.3467 83.7463 59.68 85.005 60.64C86.285 61.5787 87.9597 62.048 90.029 62.048ZM129.755 68.96C126.256 68.96 123.184 68.2027 120.539 66.688C117.893 65.1733 115.824 63.072 114.331 60.384C112.859 57.696 112.123 54.6027 112.123 51.104C112.123 47.328 112.848 44.0533 114.299 41.28C115.749 38.4853 117.765 36.32 120.347 34.784C122.928 33.248 125.915 32.48 129.307 32.48C132.891 32.48 135.931 33.3227 138.427 35.008C140.944 36.672 142.811 39.0293 144.027 42.08C145.243 45.1307 145.701 48.7253 145.403 52.864H137.755V50.048C137.733 46.2933 137.072 43.552 135.771 41.824C134.469 40.096 132.421 39.232 129.627 39.232C126.469 39.232 124.123 40.2133 122.587 42.176C121.051 44.1173 120.283 46.9653 120.283 50.72C120.283 54.2187 121.051 56.928 122.587 58.848C124.123 60.768 126.363 61.728 129.307 61.728C131.205 61.728 132.837 61.312 134.203 60.48C135.589 59.6267 136.656 58.4 137.403 56.8L145.019 59.104C143.696 62.2187 141.648 64.64 138.875 66.368C136.123 68.096 133.083 68.96 129.755 68.96ZM117.851 52.864V47.04H141.627V52.864H117.851ZM155.551 68V32.896C155.551 32.0213 155.583 31.0613 155.647 30.016C155.711 28.9493 155.892 27.8933 156.191 26.848C156.489 25.8027 157.033 24.8533 157.823 24C158.804 22.912 159.86 22.1653 160.991 21.76C162.143 21.3333 163.273 21.0987 164.383 21.056C165.492 20.992 166.463 20.96 167.295 20.96H171.615V27.232H167.615C166.143 27.232 165.044 27.6053 164.319 28.352C163.615 29.0773 163.263 30.0373 163.263 31.232V68H155.551ZM149.983 39.488V33.44H171.615V39.488H149.983ZM185.457 68.96C182.961 68.96 180.849 68.4907 179.121 67.552C177.393 66.592 176.081 65.3227 175.185 63.744C174.31 62.1653 173.873 60.4267 173.873 58.528C173.873 56.864 174.15 55.3707 174.705 54.048C175.259 52.704 176.113 51.552 177.265 50.592C178.417 49.6107 179.91 48.8107 181.745 48.192C183.131 47.744 184.753 47.3387 186.609 46.976C188.486 46.6133 190.513 46.2827 192.689 45.984C194.886 45.664 197.179 45.3227 199.569 44.96L196.817 46.528C196.838 44.1387 196.305 42.3787 195.217 41.248C194.129 40.1173 192.294 39.552 189.713 39.552C188.155 39.552 186.651 39.9147 185.201 40.64C183.75 41.3653 182.737 42.6133 182.161 44.384L175.121 42.176C175.974 39.2533 177.595 36.9067 179.985 35.136C182.395 33.3653 185.638 32.48 189.713 32.48C192.785 32.48 195.483 32.9813 197.809 33.984C200.155 34.9867 201.894 36.6293 203.025 38.912C203.643 40.128 204.017 41.376 204.145 42.656C204.273 43.9147 204.337 45.2907 204.337 46.784V68H197.585V60.512L198.705 61.728C197.147 64.224 195.323 66.0587 193.233 67.232C191.163 68.384 188.571 68.96 185.457 68.96ZM186.993 62.816C188.742 62.816 190.235 62.5067 191.473 61.888C192.71 61.2693 193.691 60.512 194.417 59.616C195.163 58.72 195.665 57.8773 195.921 57.088C196.326 56.1067 196.55 54.9867 196.593 53.728C196.657 52.448 196.689 51.4133 196.689 50.624L199.057 51.328C196.731 51.6907 194.737 52.0107 193.073 52.288C191.409 52.5653 189.979 52.832 188.785 53.088C187.59 53.3227 186.534 53.5893 185.617 53.888C184.721 54.208 183.963 54.5813 183.345 55.008C182.726 55.4347 182.246 55.9253 181.905 56.48C181.585 57.0347 181.425 57.6853 181.425 58.432C181.425 59.2853 181.638 60.0427 182.065 60.704C182.491 61.344 183.11 61.856 183.921 62.24C184.753 62.624 185.777 62.816 186.993 62.816ZM227.676 68.96C224.113 68.96 221.073 68.1707 218.556 66.592C216.038 64.992 214.108 62.816 212.764 60.064C211.441 57.312 210.769 54.1973 210.748 50.72C210.769 47.1787 211.462 44.0427 212.828 41.312C214.214 38.56 216.177 36.4053 218.716 34.848C221.254 33.2693 224.273 32.48 227.772 32.48C231.697 32.48 235.014 33.472 237.724 35.456C240.454 37.4187 242.236 40.1067 243.068 43.52L235.388 45.6C234.79 43.744 233.798 42.304 232.412 41.28C231.025 40.2347 229.446 39.712 227.676 39.712C225.67 39.712 224.017 40.192 222.716 41.152C221.414 42.0907 220.454 43.392 219.836 45.056C219.217 46.72 218.908 48.608 218.908 50.72C218.908 54.0053 219.644 56.6613 221.116 58.688C222.588 60.7147 224.774 61.728 227.676 61.728C229.724 61.728 231.334 61.2587 232.508 60.32C233.702 59.3813 234.598 58.0267 235.196 56.256L243.068 58.016C242.001 61.536 240.134 64.2453 237.468 66.144C234.801 68.0213 231.537 68.96 227.676 68.96ZM264.255 68.96C260.756 68.96 257.684 68.2027 255.039 66.688C252.393 65.1733 250.324 63.072 248.831 60.384C247.359 57.696 246.623 54.6027 246.623 51.104C246.623 47.328 247.348 44.0533 248.799 41.28C250.249 38.4853 252.265 36.32 254.847 34.784C257.428 33.248 260.415 32.48 263.807 32.48C267.391 32.48 270.431 33.3227 272.927 35.008C275.444 36.672 277.311 39.0293 278.527 42.08C279.743 45.1307 280.201 48.7253 279.903 52.864H272.255V50.048C272.233 46.2933 271.572 43.552 270.271 41.824C268.969 40.096 266.921 39.232 264.127 39.232C260.969 39.232 258.623 40.2133 257.087 42.176C255.551 44.1173 254.783 46.9653 254.783 50.72C254.783 54.2187 255.551 56.928 257.087 58.848C258.623 60.768 260.863 61.728 263.807 61.728C265.705 61.728 267.337 61.312 268.703 60.48C270.089 59.6267 271.156 58.4 271.903 56.8L279.519 59.104C278.196 62.2187 276.148 64.64 273.375 66.368C270.623 68.096 267.583 68.96 264.255 68.96ZM252.351 52.864V47.04H276.127V52.864H252.351Z" fill="white"/>
<line y1="113" x2="808" y2="113" stroke="black" stroke-width="5"/>
</svg>
