<svg width="1696" height="1396" viewBox="0 0 1696 1396" fill="none" xmlns="http://www.w3.org/2000/svg">
<path d="M23.968 68.96C19.36 68.96 15.4133 67.9573 12.128 65.952C8.84267 63.9253 6.31467 61.1093 4.544 57.504C2.79467 53.8987 1.92 49.7173 1.92 44.96C1.92 40.2027 2.79467 36.0213 4.544 32.416C6.31467 28.8107 8.84267 26.0053 12.128 24C15.4133 21.9733 19.36 20.96 23.968 20.96C29.28 20.96 33.7067 22.2933 37.248 24.96C40.7893 27.6053 43.2747 31.1787 44.704 35.68L36.928 37.824C36.032 34.816 34.5067 32.4693 32.352 30.784C30.1973 29.0773 27.4027 28.224 23.968 28.224C20.8747 28.224 18.2933 28.9173 16.224 30.304C14.176 31.6907 12.6293 33.6427 11.584 36.16C10.56 38.656 10.0373 41.5893 10.016 44.96C10.016 48.3307 10.528 51.2747 11.552 53.792C12.5973 56.288 14.1547 58.2293 16.224 59.616C18.2933 61.0027 20.8747 61.696 23.968 61.696C27.4027 61.696 30.1973 60.8427 32.352 59.136C34.5067 57.4293 36.032 55.0827 36.928 52.096L44.704 54.24C43.2747 58.7413 40.7893 62.3253 37.248 64.992C33.7067 67.6373 29.28 68.96 23.968 68.96ZM66.994 68.96C63.538 68.96 60.5193 68.1813 57.938 66.624C55.3567 65.0667 53.3513 62.9227 51.922 60.192C50.514 57.44 49.81 54.2827 49.81 50.72C49.81 47.0933 50.5353 43.9147 51.986 41.184C53.4367 38.4533 55.4527 36.32 58.034 34.784C60.6153 33.248 63.602 32.48 66.994 32.48C70.4713 32.48 73.5007 33.2587 76.082 34.816C78.6633 36.3733 80.6687 38.528 82.098 41.28C83.5273 44.0107 84.242 47.1573 84.242 50.72C84.242 54.304 83.5167 57.472 82.066 60.224C80.6367 62.9547 78.6313 65.0987 76.05 66.656C73.4687 68.192 70.45 68.96 66.994 68.96ZM66.994 61.728C70.066 61.728 72.3487 60.704 73.842 58.656C75.3353 56.608 76.082 53.9627 76.082 50.72C76.082 47.3707 75.3247 44.704 73.81 42.72C72.2953 40.7147 70.0233 39.712 66.994 39.712C64.9247 39.712 63.218 40.1813 61.874 41.12C60.5513 42.0373 59.57 43.328 58.93 44.992C58.29 46.6347 57.97 48.544 57.97 50.72C57.97 54.0693 58.7273 56.7467 60.242 58.752C61.778 60.736 64.0287 61.728 66.994 61.728ZM91.9325 68V20.96H99.6445V68H91.9325ZM124.494 68.96C121.038 68.96 118.019 68.1813 115.438 66.624C112.857 65.0667 110.851 62.9227 109.422 60.192C108.014 57.44 107.31 54.2827 107.31 50.72C107.31 47.0933 108.035 43.9147 109.486 41.184C110.937 38.4533 112.953 36.32 115.534 34.784C118.115 33.248 121.102 32.48 124.494 32.48C127.971 32.48 131.001 33.2587 133.582 34.816C136.163 36.3733 138.169 38.528 139.598 41.28C141.027 44.0107 141.742 47.1573 141.742 50.72C141.742 54.304 141.017 57.472 139.566 60.224C138.137 62.9547 136.131 65.0987 133.55 66.656C130.969 68.192 127.95 68.96 124.494 68.96ZM124.494 61.728C127.566 61.728 129.849 60.704 131.342 58.656C132.835 56.608 133.582 53.9627 133.582 50.72C133.582 47.3707 132.825 44.704 131.31 42.72C129.795 40.7147 127.523 39.712 124.494 39.712C122.425 39.712 120.718 40.1813 119.374 41.12C118.051 42.0373 117.07 43.328 116.43 44.992C115.79 46.6347 115.47 48.544 115.47 50.72C115.47 54.0693 116.227 56.7467 117.742 58.752C119.278 60.736 121.529 61.728 124.494 61.728ZM148.793 68V33.44H155.609V41.856L154.777 40.768C155.203 39.616 155.769 38.5707 156.473 37.632C157.198 36.672 158.062 35.8827 159.065 35.264C159.918 34.688 160.857 34.24 161.881 33.92C162.926 33.5787 163.993 33.376 165.081 33.312C166.169 33.2267 167.225 33.2693 168.249 33.44V40.64C167.225 40.3413 166.041 40.2453 164.697 40.352C163.374 40.4587 162.179 40.832 161.113 41.472C160.046 42.048 159.171 42.784 158.489 43.68C157.827 44.576 157.337 45.6 157.017 46.752C156.697 47.8827 156.537 49.1093 156.537 50.432V68H148.793Z" fill="white"/>
<line y1="113" x2="808" y2="113" stroke="black" stroke-width="5"/>
<rect width="848" height="582" transform="matrix(2 0 0 2 0 232)" fill="white"/>
<g filter="url(#filter0_d_101_746)">
<rect x="40" y="272" width="1616" height="136" rx="10" fill="#EFF0F7"/>
</g>
<rect x="78" y="310" width="60" height="60" rx="10" fill="#F6E31A"/>
<path d="M157.26 328V315.04H162.399C163.275 315.04 163.992 315.217 164.55 315.571C165.114 315.919 165.531 316.366 165.801 316.912C166.077 317.458 166.215 318.022 166.215 318.604C166.215 319.318 166.044 319.924 165.702 320.422C165.366 320.92 164.907 321.256 164.325 321.43V320.98C165.141 321.166 165.759 321.553 166.179 322.141C166.605 322.729 166.818 323.398 166.818 324.148C166.818 324.916 166.671 325.588 166.377 326.164C166.083 326.74 165.645 327.19 165.063 327.514C164.487 327.838 163.773 328 162.921 328H157.26ZM159.456 325.957H162.651C163.029 325.957 163.368 325.882 163.668 325.732C163.968 325.576 164.202 325.36 164.37 325.084C164.544 324.802 164.631 324.469 164.631 324.085C164.631 323.737 164.556 323.425 164.406 323.149C164.256 322.873 164.037 322.654 163.749 322.492C163.461 322.324 163.116 322.24 162.714 322.24H159.456V325.957ZM159.456 320.215H162.372C162.684 320.215 162.963 320.155 163.209 320.035C163.455 319.915 163.65 319.738 163.794 319.504C163.938 319.27 164.01 318.982 164.01 318.64C164.01 318.19 163.866 317.815 163.578 317.515C163.29 317.215 162.888 317.065 162.372 317.065H159.456V320.215ZM168.615 328V315.04H173.97C174.096 315.04 174.258 315.046 174.456 315.058C174.654 315.064 174.837 315.082 175.005 315.112C175.755 315.226 176.373 315.475 176.859 315.859C177.351 316.243 177.714 316.729 177.948 317.317C178.188 317.899 178.308 318.547 178.308 319.261C178.308 320.317 178.041 321.226 177.507 321.988C176.973 322.744 176.154 323.212 175.05 323.392L174.123 323.473H170.784V328H168.615ZM176.058 328L173.502 322.726L175.707 322.24L178.515 328H176.058ZM170.784 321.448H173.88C174 321.448 174.135 321.442 174.285 321.43C174.435 321.418 174.573 321.394 174.699 321.358C175.059 321.268 175.341 321.109 175.545 320.881C175.755 320.653 175.902 320.395 175.986 320.107C176.076 319.819 176.121 319.537 176.121 319.261C176.121 318.985 176.076 318.703 175.986 318.415C175.902 318.121 175.755 317.86 175.545 317.632C175.341 317.404 175.059 317.245 174.699 317.155C174.573 317.119 174.435 317.098 174.285 317.092C174.135 317.08 174 317.074 173.88 317.074H170.784V321.448ZM179.598 328L183.684 315.04H186.861L190.947 328H188.715L185.007 316.372H185.493L181.83 328H179.598ZM181.875 325.192V323.167H188.679V325.192H181.875ZM192.574 328V315.04H194.77L200.782 324.175V315.04H202.978V328H200.782L194.77 318.865V328H192.574ZM205.494 328V315.04H209.625C209.733 315.04 209.946 315.043 210.264 315.049C210.588 315.055 210.9 315.076 211.2 315.112C212.226 315.244 213.093 315.61 213.801 316.21C214.515 316.804 215.055 317.563 215.421 318.487C215.787 319.411 215.97 320.422 215.97 321.52C215.97 322.618 215.787 323.629 215.421 324.553C215.055 325.477 214.515 326.239 213.801 326.839C213.093 327.433 212.226 327.796 211.2 327.928C210.906 327.964 210.597 327.985 210.273 327.991C209.949 327.997 209.733 328 209.625 328H205.494ZM207.699 325.957H209.625C209.805 325.957 210.033 325.951 210.309 325.939C210.591 325.927 210.84 325.9 211.056 325.858C211.668 325.744 212.166 325.471 212.55 325.039C212.934 324.607 213.216 324.082 213.396 323.464C213.582 322.846 213.675 322.198 213.675 321.52C213.675 320.818 213.582 320.158 213.396 319.54C213.21 318.922 212.922 318.403 212.532 317.983C212.148 317.563 211.656 317.296 211.056 317.182C210.84 317.134 210.591 317.107 210.309 317.101C210.033 317.089 209.805 317.083 209.625 317.083H207.699V325.957ZM218.278 328V315.04H220.447V328H218.278ZM223.143 328V315.04H225.339L231.351 324.175V315.04H233.547V328H231.351L225.339 318.865V328H223.143ZM241.409 328.27C240.569 328.27 239.78 328.123 239.042 327.829C238.31 327.529 237.665 327.091 237.107 326.515C236.555 325.939 236.123 325.234 235.811 324.4C235.499 323.56 235.343 322.6 235.343 321.52C235.343 320.104 235.607 318.895 236.135 317.893C236.663 316.885 237.386 316.114 238.304 315.58C239.222 315.04 240.257 314.77 241.409 314.77C243.005 314.77 244.268 315.142 245.198 315.886C246.134 316.624 246.767 317.662 247.097 319L244.883 319.351C244.637 318.583 244.235 317.971 243.677 317.515C243.119 317.053 242.408 316.822 241.544 316.822C240.674 316.81 239.951 316.999 239.375 317.389C238.799 317.779 238.364 318.328 238.07 319.036C237.782 319.744 237.638 320.572 237.638 321.52C237.638 322.468 237.782 323.293 238.07 323.995C238.358 324.691 238.79 325.234 239.366 325.624C239.948 326.014 240.674 326.215 241.544 326.227C242.198 326.233 242.771 326.116 243.263 325.876C243.755 325.63 244.157 325.261 244.469 324.769C244.781 324.271 244.991 323.65 245.099 322.906H242.813V321.205H247.403C247.415 321.301 247.424 321.442 247.43 321.628C247.436 321.814 247.439 321.925 247.439 321.961C247.439 323.185 247.196 324.274 246.71 325.228C246.23 326.176 245.54 326.92 244.64 327.46C243.74 328 242.663 328.27 241.409 328.27Z" fill="black"/>
<path d="M165.737 362.39C163.865 362.39 162.262 361.983 160.927 361.168C159.592 360.345 158.565 359.201 157.846 357.736C157.135 356.271 156.78 354.573 156.78 352.64C156.78 350.707 157.135 349.009 157.846 347.544C158.565 346.079 159.592 344.94 160.927 344.125C162.262 343.302 163.865 342.89 165.737 342.89C167.895 342.89 169.693 343.432 171.132 344.515C172.571 345.59 173.58 347.041 174.161 348.87L171.002 349.741C170.638 348.519 170.018 347.566 169.143 346.881C168.268 346.188 167.132 345.841 165.737 345.841C164.48 345.841 163.432 346.123 162.591 346.686C161.759 347.249 161.131 348.042 160.706 349.065C160.29 350.079 160.078 351.271 160.069 352.64C160.069 354.009 160.277 355.205 160.693 356.228C161.118 357.242 161.75 358.031 162.591 358.594C163.432 359.157 164.48 359.439 165.737 359.439C167.132 359.439 168.268 359.092 169.143 358.399C170.018 357.706 170.638 356.752 171.002 355.539L174.161 356.41C173.58 358.239 172.571 359.695 171.132 360.778C169.693 361.853 167.895 362.39 165.737 362.39ZM183.216 362.39C181.812 362.39 180.586 362.074 179.537 361.441C178.489 360.808 177.674 359.937 177.093 358.828C176.521 357.71 176.235 356.427 176.235 354.98C176.235 353.507 176.53 352.215 177.119 351.106C177.709 349.997 178.528 349.13 179.576 348.506C180.625 347.882 181.838 347.57 183.216 347.57C184.629 347.57 185.86 347.886 186.908 348.519C187.957 349.152 188.772 350.027 189.352 351.145C189.933 352.254 190.223 353.533 190.223 354.98C190.223 356.436 189.929 357.723 189.339 358.841C188.759 359.95 187.944 360.821 186.895 361.454C185.847 362.078 184.62 362.39 183.216 362.39ZM183.216 359.452C184.464 359.452 185.392 359.036 185.998 358.204C186.605 357.372 186.908 356.297 186.908 354.98C186.908 353.619 186.601 352.536 185.985 351.73C185.37 350.915 184.447 350.508 183.216 350.508C182.376 350.508 181.682 350.699 181.136 351.08C180.599 351.453 180.2 351.977 179.94 352.653C179.68 353.32 179.55 354.096 179.55 354.98C179.55 356.341 179.858 357.428 180.473 358.243C181.097 359.049 182.012 359.452 183.216 359.452ZM193.348 362V342.89H196.481V362H193.348ZM206.576 362.39C205.172 362.39 203.945 362.074 202.897 361.441C201.848 360.808 201.033 359.937 200.453 358.828C199.881 357.71 199.595 356.427 199.595 354.98C199.595 353.507 199.889 352.215 200.479 351.106C201.068 349.997 201.887 349.13 202.936 348.506C203.984 347.882 205.198 347.57 206.576 347.57C207.988 347.57 209.219 347.886 210.268 348.519C211.316 349.152 212.131 350.027 212.712 351.145C213.292 352.254 213.583 353.533 213.583 354.98C213.583 356.436 213.288 357.723 212.699 358.841C212.118 359.95 211.303 360.821 210.255 361.454C209.206 362.078 207.98 362.39 206.576 362.39ZM206.576 359.452C207.824 359.452 208.751 359.036 209.358 358.204C209.964 357.372 210.268 356.297 210.268 354.98C210.268 353.619 209.96 352.536 209.345 351.73C208.729 350.915 207.806 350.508 206.576 350.508C205.735 350.508 205.042 350.699 204.496 351.08C203.958 351.453 203.56 351.977 203.3 352.653C203.04 353.32 202.91 354.096 202.91 354.98C202.91 356.341 203.217 357.428 203.833 358.243C204.457 359.049 205.371 359.452 206.576 359.452ZM216.447 362V347.96H219.216V351.379L218.878 350.937C219.051 350.469 219.281 350.044 219.567 349.663C219.862 349.273 220.213 348.952 220.62 348.701C220.967 348.467 221.348 348.285 221.764 348.155C222.189 348.016 222.622 347.934 223.064 347.908C223.506 347.873 223.935 347.891 224.351 347.96V350.885C223.935 350.764 223.454 350.725 222.908 350.768C222.371 350.811 221.885 350.963 221.452 351.223C221.019 351.457 220.663 351.756 220.386 352.12C220.117 352.484 219.918 352.9 219.788 353.368C219.658 353.827 219.593 354.326 219.593 354.863V362H216.447ZM238.966 362.39C237.596 362.39 236.361 362.152 235.261 361.675C234.169 361.198 233.267 360.518 232.557 359.634C231.855 358.741 231.408 357.684 231.218 356.462L234.468 355.968C234.745 357.077 235.313 357.935 236.171 358.542C237.037 359.149 238.034 359.452 239.161 359.452C239.828 359.452 240.456 359.348 241.046 359.14C241.635 358.932 242.112 358.629 242.476 358.23C242.848 357.831 243.035 357.342 243.035 356.761C243.035 356.501 242.991 356.263 242.905 356.046C242.818 355.821 242.688 355.621 242.515 355.448C242.35 355.275 242.133 355.119 241.865 354.98C241.605 354.833 241.301 354.707 240.955 354.603L236.119 353.173C235.703 353.052 235.252 352.891 234.767 352.692C234.29 352.484 233.835 352.202 233.402 351.847C232.977 351.483 232.626 351.024 232.349 350.469C232.08 349.906 231.946 349.212 231.946 348.389C231.946 347.184 232.249 346.175 232.856 345.36C233.471 344.537 234.294 343.921 235.326 343.514C236.366 343.107 237.518 342.907 238.784 342.916C240.066 342.925 241.21 343.146 242.216 343.579C243.221 344.004 244.062 344.623 244.738 345.438C245.414 346.253 245.89 347.236 246.168 348.389L242.801 348.974C242.662 348.315 242.393 347.756 241.995 347.297C241.605 346.829 241.124 346.474 240.552 346.231C239.988 345.988 239.386 345.858 238.745 345.841C238.121 345.832 237.54 345.928 237.003 346.127C236.474 346.318 236.045 346.595 235.716 346.959C235.395 347.323 235.235 347.748 235.235 348.233C235.235 348.692 235.373 349.069 235.651 349.364C235.928 349.65 236.27 349.88 236.678 350.053C237.094 350.218 237.514 350.356 237.939 350.469L241.293 351.405C241.752 351.526 242.268 351.691 242.84 351.899C243.412 352.107 243.962 352.397 244.491 352.77C245.019 353.143 245.453 353.632 245.791 354.239C246.137 354.846 246.311 355.617 246.311 356.553C246.311 357.524 246.107 358.377 245.7 359.114C245.301 359.842 244.759 360.449 244.075 360.934C243.39 361.419 242.606 361.783 241.722 362.026C240.846 362.269 239.928 362.39 238.966 362.39ZM250.717 368.24L253.421 360.817L253.473 363.001L247.35 347.96H250.613L254.955 359.088H254.123L258.348 347.96H261.481L253.655 368.24H250.717ZM268.841 362.39C267.107 362.39 265.699 362 264.616 361.22C263.532 360.44 262.874 359.344 262.64 357.931L265.838 357.437C266.002 358.13 266.366 358.676 266.93 359.075C267.493 359.474 268.204 359.673 269.062 359.673C269.816 359.673 270.396 359.526 270.804 359.231C271.22 358.928 271.428 358.516 271.428 357.996C271.428 357.675 271.35 357.42 271.194 357.229C271.046 357.03 270.717 356.839 270.206 356.657C269.694 356.475 268.91 356.245 267.853 355.968C266.674 355.656 265.738 355.322 265.045 354.967C264.351 354.603 263.853 354.174 263.55 353.68C263.246 353.186 263.095 352.588 263.095 351.886C263.095 351.011 263.324 350.248 263.784 349.598C264.243 348.948 264.884 348.45 265.708 348.103C266.531 347.748 267.502 347.57 268.62 347.57C269.712 347.57 270.678 347.739 271.519 348.077C272.368 348.415 273.053 348.896 273.573 349.52C274.093 350.144 274.413 350.876 274.535 351.717L271.337 352.289C271.259 351.691 270.986 351.219 270.518 350.872C270.058 350.525 269.443 350.33 268.672 350.287C267.935 350.244 267.341 350.356 266.891 350.625C266.44 350.885 266.215 351.253 266.215 351.73C266.215 351.999 266.306 352.228 266.488 352.419C266.67 352.61 267.034 352.8 267.58 352.991C268.134 353.182 268.958 353.416 270.05 353.693C271.168 353.979 272.06 354.308 272.728 354.681C273.404 355.045 273.889 355.483 274.184 355.994C274.487 356.505 274.639 357.125 274.639 357.853C274.639 359.266 274.123 360.375 273.092 361.181C272.069 361.987 270.652 362.39 268.841 362.39ZM285.715 362C284.788 362.173 283.878 362.247 282.985 362.221C282.101 362.204 281.308 362.043 280.606 361.74C279.904 361.428 279.371 360.938 279.007 360.271C278.686 359.664 278.517 359.045 278.5 358.412C278.483 357.779 278.474 357.064 278.474 356.267V344.06H281.594V356.085C281.594 356.648 281.598 357.142 281.607 357.567C281.624 357.992 281.715 358.338 281.88 358.607C282.192 359.127 282.69 359.417 283.375 359.478C284.06 359.539 284.84 359.504 285.715 359.374V362ZM275.926 350.417V347.96H285.715V350.417H275.926ZM294.406 362.39C292.985 362.39 291.737 362.082 290.662 361.467C289.587 360.852 288.747 359.998 288.14 358.906C287.542 357.814 287.243 356.557 287.243 355.136C287.243 353.602 287.538 352.272 288.127 351.145C288.716 350.01 289.535 349.13 290.584 348.506C291.633 347.882 292.846 347.57 294.224 347.57C295.68 347.57 296.915 347.912 297.929 348.597C298.952 349.273 299.71 350.231 300.204 351.47C300.698 352.709 300.884 354.17 300.763 355.851H297.656V354.707C297.647 353.182 297.379 352.068 296.85 351.366C296.321 350.664 295.489 350.313 294.354 350.313C293.071 350.313 292.118 350.712 291.494 351.509C290.87 352.298 290.558 353.455 290.558 354.98C290.558 356.401 290.87 357.502 291.494 358.282C292.118 359.062 293.028 359.452 294.224 359.452C294.995 359.452 295.658 359.283 296.213 358.945C296.776 358.598 297.21 358.1 297.513 357.45L300.607 358.386C300.07 359.651 299.238 360.635 298.111 361.337C296.993 362.039 295.758 362.39 294.406 362.39ZM289.57 355.851V353.485H299.229V355.851H289.57ZM312.994 362V355.24C312.994 354.798 312.964 354.308 312.903 353.771C312.842 353.234 312.699 352.718 312.474 352.224C312.257 351.721 311.928 351.31 311.486 350.989C311.053 350.668 310.463 350.508 309.718 350.508C309.319 350.508 308.925 350.573 308.535 350.703C308.145 350.833 307.79 351.058 307.469 351.379C307.157 351.691 306.906 352.124 306.715 352.679C306.524 353.225 306.429 353.927 306.429 354.785L304.57 353.992C304.57 352.796 304.8 351.713 305.259 350.742C305.727 349.771 306.412 349 307.313 348.428C308.214 347.847 309.324 347.557 310.641 347.557C311.681 347.557 312.539 347.73 313.215 348.077C313.891 348.424 314.428 348.866 314.827 349.403C315.226 349.94 315.52 350.512 315.711 351.119C315.902 351.726 316.023 352.302 316.075 352.848C316.136 353.385 316.166 353.823 316.166 354.161V362H312.994ZM303.257 362V347.96H306.052V352.315H306.429V362H303.257Z" fill="black"/>
<path d="M50.9225 464.351C48.7571 464.351 46.9291 463.873 45.4386 462.916C43.948 461.949 42.82 460.615 42.0546 458.913C41.2891 457.211 40.9064 455.247 40.9064 453.021C40.9064 450.795 41.2891 448.831 42.0546 447.129C42.82 445.427 43.948 444.098 45.4386 443.141C46.9291 442.174 48.7571 441.69 50.9225 441.69C53.4504 441.69 55.515 442.34 57.1164 443.639C58.7178 444.928 59.8155 446.661 60.4098 448.836L58.1437 449.425C57.6804 447.703 56.8495 446.338 55.651 445.331C54.4525 444.324 52.8763 443.821 50.9225 443.821C49.2204 443.821 47.8054 444.208 46.6774 444.984C45.5494 445.759 44.6983 446.842 44.1243 448.232C43.5603 449.612 43.2682 451.208 43.248 453.021C43.238 454.834 43.5149 456.43 44.0789 457.81C44.653 459.19 45.5091 460.272 46.6471 461.058C47.7953 461.833 49.2204 462.221 50.9225 462.221C52.8763 462.221 54.4525 461.717 55.651 460.71C56.8495 459.693 57.6804 458.328 58.1437 456.616L60.4098 457.205C59.8155 459.381 58.7178 461.118 57.1164 462.417C55.515 463.707 53.4504 464.351 50.9225 464.351ZM71.0959 464.351C69.4744 464.351 68.0895 463.984 66.9414 463.248C65.7933 462.513 64.912 461.496 64.2976 460.197C63.6833 458.897 63.3761 457.407 63.3761 455.725C63.3761 454.013 63.6883 452.512 64.3128 451.223C64.9372 449.934 65.8235 448.932 66.9716 448.217C68.1298 447.492 69.5046 447.129 71.0959 447.129C72.7274 447.129 74.1173 447.497 75.2654 448.232C76.4236 448.957 77.3049 449.969 77.9092 451.268C78.5235 452.558 78.8307 454.043 78.8307 455.725C78.8307 457.437 78.5235 458.943 77.9092 460.242C77.2948 461.531 76.4085 462.538 75.2503 463.263C74.0921 463.989 72.7073 464.351 71.0959 464.351ZM71.0959 462.221C72.9087 462.221 74.2583 461.622 75.1446 460.423C76.0309 459.215 76.474 457.649 76.474 455.725C76.474 453.751 76.0258 452.18 75.1295 451.012C74.2432 449.843 72.8986 449.259 71.0959 449.259C69.8772 449.259 68.8701 449.536 68.0744 450.09C67.2889 450.634 66.6997 451.394 66.3069 452.371C65.9242 453.338 65.7328 454.456 65.7328 455.725C65.7328 457.689 66.186 459.265 67.0925 460.454C67.9989 461.632 69.3334 462.221 71.0959 462.221ZM102.161 463.898L102.176 453.187C102.176 451.928 101.823 450.941 101.118 450.226C100.423 449.501 99.5372 449.138 98.4596 449.138C97.8452 449.138 97.2459 449.279 96.6618 449.561C96.0777 449.843 95.5942 450.296 95.2115 450.921C94.8389 451.545 94.6526 452.361 94.6526 453.368L93.3382 452.991C93.308 451.822 93.5346 450.8 94.0181 449.924C94.5116 449.048 95.1863 448.368 96.0424 447.884C96.9086 447.391 97.8855 447.144 98.9732 447.144C100.615 447.144 101.929 447.653 102.916 448.67C103.903 449.677 104.397 451.042 104.397 452.764L104.382 463.898H102.161ZM82.6877 463.898V447.582H84.6818V451.601H84.9236V463.898H82.6877ZM92.4469 463.898L92.462 453.338C92.462 452.039 92.1146 451.017 91.4196 450.271C90.7348 449.516 89.8283 449.138 88.7003 449.138C87.5723 449.138 86.6609 449.526 85.9659 450.302C85.271 451.067 84.9236 452.089 84.9236 453.368L83.5941 452.643C83.5941 451.596 83.8409 450.659 84.3344 449.833C84.8279 448.997 85.5027 448.343 86.3587 447.869C87.2148 447.386 88.1867 447.144 89.2744 447.144C90.3118 447.144 91.2333 447.366 92.039 447.809C92.8548 448.252 93.4943 448.897 93.9576 449.743C94.4209 450.589 94.6526 451.616 94.6526 452.824L94.6374 463.898H92.4469ZM128.312 463.898L128.327 453.187C128.327 451.928 127.974 450.941 127.269 450.226C126.574 449.501 125.688 449.138 124.61 449.138C123.996 449.138 123.397 449.279 122.813 449.561C122.229 449.843 121.745 450.296 121.362 450.921C120.99 451.545 120.803 452.361 120.803 453.368L119.489 452.991C119.459 451.822 119.685 450.8 120.169 449.924C120.662 449.048 121.337 448.368 122.193 447.884C123.059 447.391 124.036 447.144 125.124 447.144C126.766 447.144 128.08 447.653 129.067 448.67C130.054 449.677 130.548 451.042 130.548 452.764L130.532 463.898H128.312ZM108.839 463.898V447.582H110.833V451.601H111.074V463.898H108.839ZM118.598 463.898L118.613 453.338C118.613 452.039 118.265 451.017 117.57 450.271C116.886 449.516 115.979 449.138 114.851 449.138C113.723 449.138 112.812 449.526 112.117 450.302C111.422 451.067 111.074 452.089 111.074 453.368L109.745 452.643C109.745 451.596 109.992 450.659 110.485 449.833C110.979 448.997 111.654 448.343 112.51 447.869C113.366 447.386 114.338 447.144 115.425 447.144C116.463 447.144 117.384 447.366 118.19 447.809C119.006 448.252 119.645 448.897 120.108 449.743C120.572 450.589 120.803 451.616 120.803 452.824L120.788 463.898H118.598ZM141.729 464.351C140.108 464.351 138.723 463.984 137.575 463.248C136.427 462.513 135.545 461.496 134.931 460.197C134.317 458.897 134.01 457.407 134.01 455.725C134.01 454.013 134.322 452.512 134.946 451.223C135.571 449.934 136.457 448.932 137.605 448.217C138.763 447.492 140.138 447.129 141.729 447.129C143.361 447.129 144.751 447.497 145.899 448.232C147.057 448.957 147.938 449.969 148.543 451.268C149.157 452.558 149.464 454.043 149.464 455.725C149.464 457.437 149.157 458.943 148.543 460.242C147.928 461.531 147.042 462.538 145.884 463.263C144.726 463.989 143.341 464.351 141.729 464.351ZM141.729 462.221C143.542 462.221 144.892 461.622 145.778 460.423C146.664 459.215 147.107 457.649 147.107 455.725C147.107 453.751 146.659 452.18 145.763 451.012C144.877 449.843 143.532 449.259 141.729 449.259C140.511 449.259 139.504 449.536 138.708 450.09C137.922 450.634 137.333 451.394 136.94 452.371C136.558 453.338 136.366 454.456 136.366 455.725C136.366 457.689 136.82 459.265 137.726 460.454C138.632 461.632 139.967 462.221 141.729 462.221ZM165.12 463.898V455.574C165.12 454.667 165.034 453.837 164.863 453.081C164.692 452.316 164.415 451.651 164.032 451.087C163.659 450.513 163.171 450.07 162.567 449.758C161.973 449.445 161.247 449.289 160.391 449.289C159.606 449.289 158.911 449.425 158.307 449.697C157.712 449.969 157.209 450.362 156.796 450.876C156.393 451.379 156.086 451.994 155.874 452.719C155.663 453.444 155.557 454.27 155.557 455.196L153.986 454.849C153.986 453.177 154.278 451.772 154.862 450.634C155.446 449.496 156.252 448.635 157.279 448.051C158.307 447.466 159.485 447.174 160.814 447.174C161.791 447.174 162.642 447.325 163.367 447.628C164.103 447.93 164.722 448.338 165.226 448.851C165.739 449.365 166.152 449.954 166.464 450.619C166.777 451.273 167.003 451.973 167.144 452.719C167.285 453.454 167.356 454.189 167.356 454.924V463.898H165.12ZM153.321 463.898V447.582H155.33V451.601H155.557V463.898H153.321ZM187.211 464.351C185.046 464.351 183.218 463.873 181.727 462.916C180.237 461.949 179.109 460.615 178.343 458.913C177.578 457.211 177.195 455.247 177.195 453.021C177.195 450.795 177.578 448.831 178.343 447.129C179.109 445.427 180.237 444.098 181.727 443.141C183.218 442.174 185.046 441.69 187.211 441.69C189.739 441.69 191.804 442.34 193.405 443.639C195.007 444.928 196.104 446.661 196.699 448.836L194.433 449.425C193.969 447.703 193.138 446.338 191.94 445.331C190.741 444.324 189.165 443.821 187.211 443.821C185.509 443.821 184.094 444.208 182.966 444.984C181.838 445.759 180.987 446.842 180.413 448.232C179.849 449.612 179.557 451.208 179.537 453.021C179.527 454.834 179.804 456.43 180.368 457.81C180.942 459.19 181.798 460.272 182.936 461.058C184.084 461.833 185.509 462.221 187.211 462.221C189.165 462.221 190.741 461.717 191.94 460.71C193.138 459.693 193.969 458.328 194.433 456.616L196.699 457.205C196.104 459.381 195.007 461.118 193.405 462.417C191.804 463.707 189.739 464.351 187.211 464.351ZM207.385 464.351C205.763 464.351 204.378 463.984 203.23 463.248C202.082 462.513 201.201 461.496 200.586 460.197C199.972 458.897 199.665 457.407 199.665 455.725C199.665 454.013 199.977 452.512 200.602 451.223C201.226 449.934 202.112 448.932 203.26 448.217C204.419 447.492 205.793 447.129 207.385 447.129C209.016 447.129 210.406 447.497 211.554 448.232C212.712 448.957 213.594 449.969 214.198 451.268C214.812 452.558 215.12 454.043 215.12 455.725C215.12 457.437 214.812 458.943 214.198 460.242C213.584 461.531 212.697 462.538 211.539 463.263C210.381 463.989 208.996 464.351 207.385 464.351ZM207.385 462.221C209.198 462.221 210.547 461.622 211.433 460.423C212.32 459.215 212.763 457.649 212.763 455.725C212.763 453.751 212.315 452.18 211.418 451.012C210.532 449.843 209.187 449.259 207.385 449.259C206.166 449.259 205.159 449.536 204.363 450.09C203.578 450.634 202.989 451.394 202.596 452.371C202.213 453.338 202.022 454.456 202.022 455.725C202.022 457.689 202.475 459.265 203.381 460.454C204.288 461.632 205.622 462.221 207.385 462.221ZM238.45 463.898L238.465 453.187C238.465 451.928 238.112 450.941 237.407 450.226C236.712 449.501 235.826 449.138 234.748 449.138C234.134 449.138 233.535 449.279 232.951 449.561C232.367 449.843 231.883 450.296 231.5 450.921C231.128 451.545 230.941 452.361 230.941 453.368L229.627 452.991C229.597 451.822 229.823 450.8 230.307 449.924C230.8 449.048 231.475 448.368 232.331 447.884C233.197 447.391 234.174 447.144 235.262 447.144C236.904 447.144 238.218 447.653 239.205 448.67C240.192 449.677 240.686 451.042 240.686 452.764L240.67 463.898H238.45ZM218.977 463.898V447.582H220.971V451.601H221.212V463.898H218.977ZM228.736 463.898L228.751 453.338C228.751 452.039 228.403 451.017 227.708 450.271C227.024 449.516 226.117 449.138 224.989 449.138C223.861 449.138 222.95 449.526 222.255 450.302C221.56 451.067 221.212 452.089 221.212 453.368L219.883 452.643C219.883 451.596 220.13 450.659 220.623 449.833C221.117 448.997 221.792 448.343 222.648 447.869C223.504 447.386 224.476 447.144 225.563 447.144C226.601 447.144 227.522 447.366 228.328 447.809C229.144 448.252 229.783 448.897 230.246 449.743C230.71 450.589 230.941 451.616 230.941 452.824L230.926 463.898H228.736ZM252.469 464.351C250.969 464.351 249.7 463.973 248.662 463.218C247.625 462.453 246.84 461.42 246.306 460.121C245.772 458.812 245.505 457.346 245.505 455.725C245.505 454.073 245.772 452.603 246.306 451.314C246.85 450.014 247.645 448.992 248.693 448.247C249.74 447.502 251.029 447.129 252.56 447.129C254.051 447.129 255.33 447.507 256.397 448.262C257.465 449.017 258.281 450.045 258.845 451.344C259.419 452.643 259.706 454.103 259.706 455.725C259.706 457.357 259.419 458.822 258.845 460.121C258.271 461.42 257.445 462.453 256.367 463.218C255.289 463.973 253.99 464.351 252.469 464.351ZM245.127 471.149V447.582H247.122V459.864H247.363V471.149H245.127ZM252.243 462.281C253.381 462.281 254.328 461.994 255.083 461.42C255.838 460.846 256.402 460.066 256.775 459.079C257.158 458.082 257.349 456.964 257.349 455.725C257.349 454.496 257.163 453.388 256.79 452.401C256.417 451.414 255.848 450.634 255.083 450.06C254.328 449.486 253.366 449.199 252.198 449.199C251.059 449.199 250.113 449.476 249.357 450.03C248.612 450.584 248.053 451.354 247.681 452.341C247.308 453.318 247.122 454.446 247.122 455.725C247.122 456.984 247.308 458.112 247.681 459.109C248.053 460.096 248.617 460.871 249.373 461.435C250.128 461.999 251.085 462.281 252.243 462.281ZM270.376 464.351C268.755 464.351 267.37 463.984 266.222 463.248C265.073 462.513 264.192 461.496 263.578 460.197C262.964 458.897 262.656 457.407 262.656 455.725C262.656 454.013 262.969 452.512 263.593 451.223C264.217 449.934 265.104 448.932 266.252 448.217C267.41 447.492 268.785 447.129 270.376 447.129C272.008 447.129 273.398 447.497 274.546 448.232C275.704 448.957 276.585 449.969 277.189 451.268C277.804 452.558 278.111 454.043 278.111 455.725C278.111 457.437 277.804 458.943 277.189 460.242C276.575 461.531 275.689 462.538 274.531 463.263C273.372 463.989 271.988 464.351 270.376 464.351ZM270.376 462.221C272.189 462.221 273.539 461.622 274.425 460.423C275.311 459.215 275.754 457.649 275.754 455.725C275.754 453.751 275.306 452.18 274.41 451.012C273.523 449.843 272.179 449.259 270.376 449.259C269.157 449.259 268.15 449.536 267.355 450.09C266.569 450.634 265.98 451.394 265.587 452.371C265.204 453.338 265.013 454.456 265.013 455.725C265.013 457.689 265.466 459.265 266.373 460.454C267.279 461.632 268.614 462.221 270.376 462.221ZM293.767 463.898V455.574C293.767 454.667 293.681 453.837 293.51 453.081C293.339 452.316 293.062 451.651 292.679 451.087C292.306 450.513 291.818 450.07 291.214 449.758C290.619 449.445 289.894 449.289 289.038 449.289C288.253 449.289 287.558 449.425 286.953 449.697C286.359 449.969 285.856 450.362 285.443 450.876C285.04 451.379 284.733 451.994 284.521 452.719C284.31 453.444 284.204 454.27 284.204 455.196L282.633 454.849C282.633 453.177 282.925 451.772 283.509 450.634C284.093 449.496 284.899 448.635 285.926 448.051C286.953 447.466 288.132 447.174 289.461 447.174C290.438 447.174 291.289 447.325 292.014 447.628C292.749 447.93 293.369 448.338 293.872 448.851C294.386 449.365 294.799 449.954 295.111 450.619C295.423 451.273 295.65 451.973 295.791 452.719C295.932 453.454 296.002 454.189 296.002 454.924V463.898H293.767ZM281.968 463.898V447.582H283.977V451.601H284.204V463.898H281.968ZM307.278 464.351C305.686 464.351 304.307 463.999 303.138 463.294C301.98 462.589 301.079 461.597 300.434 460.318C299.79 459.038 299.467 457.538 299.467 455.816C299.467 454.033 299.785 452.492 300.419 451.193C301.054 449.894 301.945 448.892 303.093 448.187C304.251 447.482 305.616 447.129 307.187 447.129C308.799 447.129 310.173 447.502 311.311 448.247C312.449 448.982 313.311 450.04 313.895 451.419C314.479 452.799 314.746 454.446 314.695 456.359H312.429V455.574C312.389 453.459 311.931 451.863 311.055 450.785C310.188 449.707 308.919 449.168 307.248 449.168C305.495 449.168 304.151 449.738 303.214 450.876C302.287 452.014 301.824 453.635 301.824 455.74C301.824 457.795 302.287 459.391 303.214 460.529C304.151 461.657 305.475 462.221 307.187 462.221C308.355 462.221 309.373 461.954 310.239 461.42C311.115 460.877 311.805 460.096 312.308 459.079L314.378 459.879C313.734 461.3 312.782 462.402 311.523 463.188C310.274 463.963 308.859 464.351 307.278 464.351ZM301.039 456.359V454.501H313.502V456.359H301.039ZM329.929 463.898V455.574C329.929 454.667 329.843 453.837 329.672 453.081C329.5 452.316 329.224 451.651 328.841 451.087C328.468 450.513 327.98 450.07 327.375 449.758C326.781 449.445 326.056 449.289 325.2 449.289C324.414 449.289 323.719 449.425 323.115 449.697C322.521 449.969 322.017 450.362 321.604 450.876C321.202 451.379 320.894 451.994 320.683 452.719C320.471 453.444 320.366 454.27 320.366 455.196L318.795 454.849C318.795 453.177 319.087 451.772 319.671 450.634C320.255 449.496 321.061 448.635 322.088 448.051C323.115 447.466 324.294 447.174 325.623 447.174C326.6 447.174 327.451 447.325 328.176 447.628C328.911 447.93 329.531 448.338 330.034 448.851C330.548 449.365 330.961 449.954 331.273 450.619C331.585 451.273 331.812 451.973 331.953 452.719C332.094 453.454 332.164 454.189 332.164 454.924V463.898H329.929ZM318.13 463.898V447.582H320.139V451.601H320.366V463.898H318.13ZM345.507 463.898C344.591 464.089 343.684 464.165 342.788 464.125C341.902 464.084 341.106 463.893 340.401 463.55C339.706 463.208 339.177 462.674 338.815 461.949C338.523 461.345 338.362 460.736 338.331 460.121C338.311 459.497 338.301 458.787 338.301 457.991V443.05H340.507V457.9C340.507 458.585 340.512 459.159 340.522 459.623C340.542 460.076 340.648 460.479 340.839 460.831C341.202 461.506 341.776 461.909 342.561 462.04C343.357 462.171 344.339 462.14 345.507 461.949V463.898ZM334.811 449.486V447.582H345.507V449.486H334.811ZM361.636 463.898V444.274H354.037V442.144H371.455V444.274H363.856V463.898H361.636ZM386.201 463.898V455.574C386.201 454.667 386.115 453.837 385.944 453.081C385.773 452.316 385.496 451.651 385.113 451.087C384.741 450.513 384.252 450.07 383.648 449.758C383.054 449.445 382.328 449.289 381.472 449.289C380.687 449.289 379.992 449.425 379.388 449.697C378.793 449.969 378.29 450.362 377.877 450.876C377.474 451.379 377.167 451.994 376.955 452.719C376.744 453.444 376.638 454.27 376.638 455.196L375.067 454.849C375.067 453.177 375.359 451.772 375.943 450.634C376.527 449.496 377.333 448.635 378.36 448.051C379.388 447.466 380.566 447.174 381.895 447.174C382.872 447.174 383.723 447.325 384.448 447.628C385.184 447.93 385.803 448.338 386.307 448.851C386.82 449.365 387.233 449.954 387.545 450.619C387.858 451.273 388.084 451.973 388.225 452.719C388.366 453.454 388.437 454.189 388.437 454.924V463.898H386.201ZM374.402 463.898V442.144H376.411V454.426H376.638V463.898H374.402ZM399.801 464.351C398.209 464.351 396.83 463.999 395.661 463.294C394.503 462.589 393.602 461.597 392.957 460.318C392.312 459.038 391.99 457.538 391.99 455.816C391.99 454.033 392.307 452.492 392.942 451.193C393.576 449.894 394.468 448.892 395.616 448.187C396.774 447.482 398.139 447.129 399.71 447.129C401.321 447.129 402.696 447.502 403.834 448.247C404.972 448.982 405.833 450.04 406.418 451.419C407.002 452.799 407.269 454.446 407.218 456.359H404.952V455.574C404.912 453.459 404.454 451.863 403.577 450.785C402.711 449.707 401.442 449.168 399.77 449.168C398.018 449.168 396.673 449.738 395.737 450.876C394.81 452.014 394.347 453.635 394.347 455.74C394.347 457.795 394.81 459.391 395.737 460.529C396.673 461.657 397.998 462.221 399.71 462.221C400.878 462.221 401.895 461.954 402.762 461.42C403.638 460.877 404.328 460.096 404.831 459.079L406.901 459.879C406.256 461.3 405.305 462.402 404.046 463.188C402.797 463.963 401.382 464.351 399.801 464.351ZM393.561 456.359V454.501H406.025V456.359H393.561ZM430.126 463.898L430.141 453.187C430.141 451.928 429.788 450.941 429.083 450.226C428.388 449.501 427.502 449.138 426.425 449.138C425.81 449.138 425.211 449.279 424.627 449.561C424.043 449.843 423.559 450.296 423.176 450.921C422.804 451.545 422.618 452.361 422.618 453.368L421.303 452.991C421.273 451.822 421.5 450.8 421.983 449.924C422.477 449.048 423.151 448.368 424.007 447.884C424.874 447.391 425.85 447.144 426.938 447.144C428.58 447.144 429.894 447.653 430.881 448.67C431.868 449.677 432.362 451.042 432.362 452.764L432.347 463.898H430.126ZM410.653 463.898V447.582H412.647V451.601H412.889V463.898H410.653ZM420.412 463.898L420.427 453.338C420.427 452.039 420.08 451.017 419.385 450.271C418.7 449.516 417.793 449.138 416.665 449.138C415.537 449.138 414.626 449.526 413.931 450.302C413.236 451.067 412.889 452.089 412.889 453.368L411.559 452.643C411.559 451.596 411.806 450.659 412.299 449.833C412.793 448.997 413.468 448.343 414.324 447.869C415.18 447.386 416.152 447.144 417.239 447.144C418.277 447.144 419.198 447.366 420.004 447.809C420.82 448.252 421.459 448.897 421.923 449.743C422.386 450.589 422.618 451.616 422.618 452.824L422.602 463.898H420.412ZM443.634 464.351C442.043 464.351 440.663 463.999 439.495 463.294C438.337 462.589 437.435 461.597 436.791 460.318C436.146 459.038 435.824 457.538 435.824 455.816C435.824 454.033 436.141 452.492 436.775 451.193C437.41 449.894 438.301 448.892 439.449 448.187C440.608 447.482 441.972 447.129 443.543 447.129C445.155 447.129 446.53 447.502 447.668 448.247C448.806 448.982 449.667 450.04 450.251 451.419C450.835 452.799 451.102 454.446 451.052 456.359H448.786V455.574C448.745 453.459 448.287 451.863 447.411 450.785C446.545 449.707 445.276 449.168 443.604 449.168C441.851 449.168 440.507 449.738 439.57 450.876C438.644 452.014 438.18 453.635 438.18 455.74C438.18 457.795 438.644 459.391 439.57 460.529C440.507 461.657 441.831 462.221 443.543 462.221C444.712 462.221 445.729 461.954 446.595 461.42C447.471 460.877 448.161 460.096 448.665 459.079L450.734 459.879C450.09 461.3 449.138 462.402 447.879 463.188C446.63 463.963 445.215 464.351 443.634 464.351ZM437.395 456.359V454.501H449.858V456.359H437.395Z" fill="#6E7191"/>
<path d="M49.3621 552.286C47.5061 552.286 45.9393 551.876 44.6616 551.056C43.384 550.228 42.4171 549.084 41.7611 547.625C41.105 546.166 40.7769 544.482 40.7769 542.575C40.7769 540.667 41.105 538.983 41.7611 537.525C42.4171 536.066 43.384 534.926 44.6616 534.106C45.9393 533.277 47.5061 532.863 49.3621 532.863C51.5289 532.863 53.2986 533.42 54.6712 534.533C56.0438 535.638 56.9847 537.123 57.4941 538.988L55.5517 539.493C55.1546 538.017 54.4424 536.847 53.4151 535.984C52.3879 535.12 51.0368 534.689 49.3621 534.689C47.9032 534.689 46.6903 535.021 45.7234 535.686C44.7566 536.351 44.0271 537.279 43.5351 538.47C43.0516 539.653 42.8013 541.021 42.784 542.575C42.7754 544.129 43.0128 545.497 43.4962 546.68C43.9883 547.862 44.7221 548.79 45.6976 549.464C46.6817 550.128 47.9032 550.461 49.3621 550.461C51.0368 550.461 52.3879 550.029 53.4151 549.166C54.4424 548.294 55.1546 547.124 55.5517 545.657L57.4941 546.162C56.9847 548.026 56.0438 549.515 54.6712 550.629C53.2986 551.734 51.5289 552.286 49.3621 552.286ZM66.7307 552.286C65.3408 552.286 64.1538 551.971 63.1697 551.341C62.1856 550.711 61.4302 549.839 60.9036 548.725C60.377 547.612 60.1137 546.334 60.1137 544.893C60.1137 543.425 60.3814 542.139 60.9166 541.034C61.4518 539.929 62.2115 539.07 63.1956 538.457C64.1884 537.835 65.3667 537.525 66.7307 537.525C68.1292 537.525 69.3205 537.84 70.3046 538.47C71.2973 539.091 72.0527 539.959 72.5707 541.073C73.0973 542.178 73.3606 543.451 73.3606 544.893C73.3606 546.36 73.0973 547.651 72.5707 548.764C72.0441 549.869 71.2844 550.733 70.2916 551.354C69.2989 551.976 68.1119 552.286 66.7307 552.286ZM66.7307 550.461C68.2846 550.461 69.4413 549.947 70.201 548.92C70.9607 547.884 71.3405 546.541 71.3405 544.893C71.3405 543.201 70.9564 541.854 70.1881 540.852C69.4284 539.851 68.2759 539.35 66.7307 539.35C65.6861 539.35 64.8229 539.588 64.1409 540.063C63.4675 540.529 62.9625 541.181 62.6258 542.018C62.2978 542.847 62.1338 543.805 62.1338 544.893C62.1338 546.576 62.5223 547.927 63.2992 548.946C64.0761 549.956 65.22 550.461 66.7307 550.461ZM77.0155 551.898V532.863H78.919V551.898H77.0155ZM89.1806 552.286C87.7908 552.286 86.6038 551.971 85.6197 551.341C84.6355 550.711 83.8802 549.839 83.3536 548.725C82.827 547.612 82.5637 546.334 82.5637 544.893C82.5637 543.425 82.8313 542.139 83.3665 541.034C83.9018 539.929 84.6614 539.07 85.6456 538.457C86.6383 537.835 87.8167 537.525 89.1806 537.525C90.5791 537.525 91.7704 537.84 92.7546 538.47C93.7473 539.091 94.5027 539.959 95.0206 541.073C95.5472 542.178 95.8105 543.451 95.8105 544.893C95.8105 546.36 95.5472 547.651 95.0206 548.764C94.494 549.869 93.7344 550.733 92.7416 551.354C91.7488 551.976 90.5619 552.286 89.1806 552.286ZM89.1806 550.461C90.7345 550.461 91.8913 549.947 92.651 548.92C93.4106 547.884 93.7905 546.541 93.7905 544.893C93.7905 543.201 93.4063 541.854 92.638 540.852C91.8783 539.851 90.7259 539.35 89.1806 539.35C88.1361 539.35 87.2728 539.588 86.5908 540.063C85.9175 540.529 85.4125 541.181 85.0758 542.018C84.7478 542.847 84.5837 543.805 84.5837 544.893C84.5837 546.576 84.9722 547.927 85.7492 548.946C86.5261 549.956 87.6699 550.461 89.1806 550.461ZM99.2065 551.898V537.913H100.916V541.28L100.579 540.84C100.734 540.425 100.937 540.045 101.188 539.7C101.438 539.346 101.71 539.057 102.003 538.832C102.366 538.513 102.789 538.271 103.272 538.107C103.756 537.935 104.244 537.835 104.736 537.809C105.228 537.775 105.677 537.809 106.082 537.913V539.7C105.573 539.571 105.016 539.54 104.412 539.609C103.808 539.678 103.251 539.92 102.742 540.335C102.275 540.697 101.926 541.133 101.693 541.642C101.46 542.143 101.304 542.678 101.227 543.248C101.149 543.809 101.11 544.366 101.11 544.918V551.898H99.2065ZM122.08 552.286C120.656 552.286 119.395 551.993 118.299 551.406C117.211 550.819 116.356 549.99 115.735 548.92C115.113 547.849 114.803 546.597 114.803 545.164V533.264L116.719 533.251V544.918C116.719 545.885 116.883 546.723 117.211 547.431C117.539 548.13 117.966 548.708 118.493 549.166C119.028 549.615 119.611 549.947 120.241 550.163C120.871 550.379 121.484 550.487 122.08 550.487C122.684 550.487 123.301 550.379 123.932 550.163C124.562 549.947 125.14 549.615 125.667 549.166C126.193 548.708 126.621 548.13 126.949 547.431C127.277 546.723 127.441 545.885 127.441 544.918V533.251H129.357V545.164C129.357 546.597 129.046 547.849 128.425 548.92C127.803 549.982 126.944 550.81 125.848 551.406C124.76 551.993 123.504 552.286 122.08 552.286ZM138.745 552.273C137.105 552.273 135.754 551.92 134.692 551.212C133.639 550.504 132.991 549.52 132.749 548.259L134.692 547.936C134.899 548.73 135.369 549.364 136.103 549.839C136.846 550.305 137.761 550.538 138.848 550.538C139.91 550.538 140.748 550.318 141.361 549.878C141.973 549.429 142.28 548.82 142.28 548.052C142.28 547.62 142.181 547.271 141.982 547.003C141.792 546.727 141.399 546.472 140.804 546.239C140.208 546.006 139.319 545.73 138.136 545.411C136.867 545.065 135.874 544.72 135.158 544.375C134.441 544.029 133.932 543.632 133.63 543.183C133.328 542.726 133.177 542.169 133.177 541.513C133.177 540.719 133.401 540.024 133.85 539.428C134.299 538.824 134.921 538.358 135.715 538.03C136.509 537.693 137.433 537.525 138.486 537.525C139.539 537.525 140.48 537.697 141.309 538.043C142.146 538.379 142.819 538.854 143.329 539.467C143.838 540.08 144.14 540.792 144.235 541.604L142.293 541.953C142.163 541.133 141.753 540.486 141.063 540.011C140.381 539.527 139.513 539.277 138.46 539.26C137.467 539.234 136.66 539.424 136.038 539.829C135.417 540.227 135.106 540.758 135.106 541.422C135.106 541.793 135.218 542.113 135.443 542.38C135.667 542.639 136.073 542.885 136.66 543.119C137.256 543.352 138.102 543.606 139.198 543.883C140.484 544.211 141.494 544.556 142.228 544.918C142.962 545.281 143.484 545.708 143.795 546.2C144.106 546.692 144.261 547.301 144.261 548.026C144.261 549.347 143.769 550.387 142.785 551.147C141.809 551.898 140.463 552.273 138.745 552.273ZM151.674 552.286C150.621 552.286 149.736 552.097 149.019 551.717C148.311 551.337 147.78 550.832 147.426 550.202C147.072 549.571 146.896 548.885 146.896 548.143C146.896 547.383 147.047 546.736 147.349 546.2C147.66 545.657 148.078 545.212 148.605 544.867C149.14 544.521 149.757 544.258 150.456 544.077C151.164 543.904 151.946 543.753 152.8 543.624C153.664 543.485 154.505 543.369 155.325 543.274C156.154 543.17 156.879 543.071 157.501 542.976L156.827 543.39C156.853 542.009 156.586 540.986 156.025 540.322C155.463 539.657 154.488 539.324 153.098 539.324C152.14 539.324 151.328 539.54 150.664 539.972C150.008 540.404 149.546 541.086 149.278 542.018L147.426 541.474C147.746 540.222 148.389 539.251 149.356 538.56C150.323 537.87 151.579 537.525 153.124 537.525C154.402 537.525 155.485 537.766 156.374 538.25C157.272 538.725 157.906 539.415 158.278 540.322C158.45 540.727 158.563 541.181 158.614 541.681C158.666 542.182 158.692 542.691 158.692 543.209V551.898H156.996V548.389L157.488 548.596C157.013 549.796 156.275 550.711 155.274 551.341C154.272 551.971 153.072 552.286 151.674 552.286ZM151.894 550.642C152.783 550.642 153.56 550.482 154.225 550.163C154.889 549.843 155.425 549.407 155.83 548.855C156.236 548.294 156.499 547.664 156.62 546.964C156.724 546.515 156.78 546.023 156.789 545.488C156.797 544.944 156.801 544.539 156.801 544.271L157.527 544.647C156.879 544.733 156.176 544.819 155.416 544.905C154.665 544.992 153.922 545.091 153.189 545.203C152.464 545.316 151.807 545.449 151.22 545.605C150.823 545.717 150.439 545.877 150.068 546.084C149.697 546.282 149.39 546.55 149.149 546.887C148.916 547.223 148.799 547.642 148.799 548.143C148.799 548.548 148.898 548.941 149.097 549.321C149.304 549.701 149.632 550.016 150.081 550.266C150.538 550.517 151.143 550.642 151.894 550.642ZM168.158 558.502C167.441 558.502 166.733 558.394 166.034 558.178C165.343 557.971 164.705 557.639 164.118 557.181C163.531 556.732 163.039 556.145 162.641 555.42L164.364 554.462C164.752 555.239 165.296 555.796 165.995 556.132C166.703 556.478 167.424 556.65 168.158 556.65C169.168 556.65 169.983 556.46 170.605 556.08C171.235 555.709 171.693 555.157 171.978 554.423C172.263 553.689 172.401 552.774 172.392 551.678V547.949H172.612V537.913H174.308V551.704C174.308 552.101 174.295 552.481 174.27 552.843C174.252 553.214 174.213 553.577 174.153 553.931C173.989 554.975 173.648 555.834 173.13 556.508C172.621 557.181 171.947 557.682 171.11 558.01C170.281 558.338 169.297 558.502 168.158 558.502ZM168.028 552.286C166.725 552.286 165.611 551.963 164.687 551.315C163.764 550.659 163.056 549.774 162.564 548.661C162.072 547.547 161.826 546.291 161.826 544.893C161.826 543.503 162.067 542.251 162.551 541.137C163.043 540.024 163.746 539.143 164.661 538.496C165.577 537.848 166.673 537.525 167.95 537.525C169.263 537.525 170.368 537.844 171.265 538.483C172.163 539.122 172.841 539.998 173.298 541.111C173.765 542.216 173.998 543.477 173.998 544.893C173.998 546.282 173.769 547.538 173.311 548.661C172.854 549.774 172.18 550.659 171.291 551.315C170.402 551.963 169.314 552.286 168.028 552.286ZM168.222 550.512C169.215 550.512 170.035 550.271 170.683 549.787C171.33 549.304 171.814 548.639 172.133 547.793C172.452 546.938 172.612 545.972 172.612 544.893C172.612 543.796 172.452 542.829 172.133 541.992C171.814 541.146 171.33 540.486 170.683 540.011C170.044 539.536 169.237 539.299 168.261 539.299C167.26 539.299 166.431 539.545 165.775 540.037C165.119 540.529 164.631 541.198 164.312 542.044C164.001 542.89 163.846 543.839 163.846 544.893C163.846 545.954 164.005 546.913 164.325 547.767C164.653 548.613 165.141 549.282 165.788 549.774C166.435 550.266 167.247 550.512 168.222 550.512ZM184.386 552.286C183.022 552.286 181.839 551.984 180.838 551.38C179.845 550.776 179.073 549.925 178.52 548.829C177.968 547.733 177.691 546.446 177.691 544.97C177.691 543.442 177.963 542.121 178.507 541.008C179.051 539.894 179.815 539.035 180.799 538.431C181.792 537.827 182.962 537.525 184.308 537.525C185.69 537.525 186.868 537.844 187.843 538.483C188.819 539.113 189.557 540.019 190.058 541.202C190.558 542.385 190.787 543.796 190.744 545.436H188.802V544.763C188.767 542.95 188.374 541.582 187.623 540.658C186.881 539.735 185.793 539.273 184.36 539.273C182.858 539.273 181.706 539.76 180.903 540.736C180.109 541.711 179.712 543.101 179.712 544.905C179.712 546.667 180.109 548.035 180.903 549.01C181.706 549.977 182.841 550.461 184.308 550.461C185.31 550.461 186.182 550.232 186.924 549.774C187.675 549.308 188.266 548.639 188.698 547.767L190.472 548.454C189.92 549.671 189.104 550.616 188.025 551.289C186.954 551.954 185.741 552.286 184.386 552.286ZM179.038 545.436V543.844H189.721V545.436H179.038Z" fill="#6E7191"/>
<rect x="46.2048" y="582.611" width="478.033" height="125.341" rx="7.82334" fill="white"/>
<rect x="46.2048" y="582.611" width="478.033" height="125.341" rx="7.82334" stroke="#EFF0F7" stroke-width="1.61862"/>
<path d="M264.34 655.67C263.175 655.67 262.113 655.389 261.155 654.828C260.205 654.258 259.446 653.49 258.876 652.523C258.315 651.547 258.034 650.451 258.034 649.234V642.772C258.034 641.521 258.315 640.407 258.876 639.432C259.437 638.447 260.201 637.675 261.168 637.114C262.143 636.544 263.248 636.259 264.483 636.259C265.545 636.259 266.529 636.492 267.435 636.958C268.35 637.424 269.097 638.076 269.675 638.914L268.212 640.118C267.815 639.496 267.288 639 266.632 638.629C265.976 638.257 265.26 638.072 264.483 638.072C263.611 638.072 262.834 638.283 262.152 638.706C261.47 639.129 260.935 639.686 260.546 640.377C260.158 641.059 259.964 641.801 259.964 642.604V646.67L259.485 646.126C260.028 645.272 260.741 644.581 261.621 644.054C262.51 643.528 263.477 643.264 264.522 643.264C265.679 643.264 266.719 643.541 267.642 644.093C268.566 644.637 269.3 645.375 269.844 646.307C270.388 647.24 270.66 648.284 270.66 649.441C270.66 650.589 270.37 651.634 269.792 652.575C269.222 653.516 268.458 654.267 267.5 654.828C266.55 655.389 265.497 655.67 264.34 655.67ZM264.34 653.818C265.152 653.818 265.89 653.624 266.555 653.235C267.228 652.847 267.759 652.32 268.147 651.655C268.545 650.991 268.743 650.253 268.743 649.441C268.743 648.63 268.545 647.892 268.147 647.227C267.759 646.553 267.232 646.023 266.568 645.634C265.903 645.237 265.165 645.038 264.353 645.038C263.542 645.038 262.804 645.237 262.139 645.634C261.474 646.023 260.943 646.553 260.546 647.227C260.158 647.892 259.964 648.63 259.964 649.441C259.964 650.244 260.158 650.978 260.546 651.642C260.935 652.307 261.461 652.838 262.126 653.235C262.791 653.624 263.529 653.818 264.34 653.818ZM280.72 655.67C279.571 655.67 278.536 655.402 277.612 654.867C276.697 654.331 275.972 653.606 275.436 652.691C274.901 651.768 274.634 650.732 274.634 649.584V642.332C274.634 641.184 274.901 640.152 275.436 639.237C275.972 638.314 276.697 637.584 277.612 637.049C278.536 636.514 279.571 636.246 280.72 636.246C281.868 636.246 282.899 636.514 283.814 637.049C284.738 637.584 285.468 638.314 286.003 639.237C286.538 640.152 286.806 641.184 286.806 642.332V649.584C286.806 650.732 286.538 651.768 286.003 652.691C285.468 653.606 284.738 654.331 283.814 654.867C282.899 655.402 281.868 655.67 280.72 655.67ZM280.72 653.831C281.488 653.831 282.187 653.645 282.817 653.274C283.448 652.894 283.948 652.389 284.319 651.759C284.691 651.129 284.876 650.434 284.876 649.674V642.241C284.876 641.473 284.691 640.774 284.319 640.144C283.948 639.514 283.448 639.013 282.817 638.642C282.187 638.262 281.488 638.072 280.72 638.072C279.951 638.072 279.252 638.262 278.622 638.642C277.992 639.013 277.491 639.514 277.12 640.144C276.749 640.774 276.563 641.473 276.563 642.241V649.674C276.563 650.434 276.749 651.129 277.12 651.759C277.491 652.389 277.992 652.894 278.622 653.274C279.252 653.645 279.951 653.831 280.72 653.831ZM292.793 655.281L291.498 653.986L308.888 636.635L310.183 637.916L292.793 655.281ZM306.299 655.67C305.444 655.67 304.663 655.462 303.955 655.048C303.256 654.625 302.695 654.064 302.272 653.365C301.849 652.657 301.637 651.871 301.637 651.008C301.637 650.162 301.853 649.385 302.284 648.677C302.716 647.969 303.286 647.404 303.994 646.981C304.702 646.558 305.47 646.346 306.299 646.346C307.153 646.346 307.935 646.558 308.642 646.981C309.35 647.395 309.911 647.956 310.326 648.664C310.749 649.363 310.96 650.145 310.96 651.008C310.96 651.871 310.749 652.657 310.326 653.365C309.911 654.064 309.35 654.625 308.642 655.048C307.935 655.462 307.153 655.67 306.299 655.67ZM306.299 653.947C306.825 653.947 307.313 653.814 307.762 653.546C308.211 653.278 308.569 652.924 308.837 652.484C309.104 652.035 309.238 651.543 309.238 651.008C309.238 650.473 309.104 649.985 308.837 649.545C308.569 649.096 308.211 648.738 307.762 648.47C307.313 648.202 306.825 648.068 306.299 648.068C305.763 648.068 305.271 648.202 304.822 648.47C304.382 648.738 304.024 649.096 303.748 649.545C303.48 649.985 303.346 650.473 303.346 651.008C303.346 651.543 303.48 652.035 303.748 652.484C304.024 652.924 304.382 653.278 304.822 653.546C305.271 653.814 305.763 653.947 306.299 653.947ZM295.383 645.569C294.528 645.569 293.747 645.362 293.039 644.948C292.331 644.525 291.766 643.964 291.343 643.264C290.928 642.557 290.721 641.771 290.721 640.908C290.721 640.062 290.937 639.285 291.368 638.577C291.8 637.869 292.37 637.304 293.078 636.881C293.786 636.458 294.554 636.246 295.383 636.246C296.237 636.246 297.014 636.458 297.713 636.881C298.421 637.295 298.987 637.856 299.41 638.564C299.833 639.263 300.044 640.044 300.044 640.908C300.044 641.771 299.833 642.557 299.41 643.264C298.987 643.964 298.421 644.525 297.713 644.948C297.014 645.362 296.237 645.569 295.383 645.569ZM295.383 643.847C295.918 643.847 296.406 643.713 296.846 643.446C297.295 643.178 297.653 642.824 297.921 642.384C298.188 641.935 298.322 641.443 298.322 640.908C298.322 640.372 298.188 639.885 297.921 639.444C297.653 638.996 297.295 638.637 296.846 638.37C296.406 638.102 295.918 637.968 295.383 637.968C294.847 637.968 294.355 638.102 293.906 638.37C293.466 638.637 293.112 638.996 292.845 639.444C292.577 639.885 292.443 640.372 292.443 640.908C292.443 641.443 292.577 641.935 292.845 642.384C293.112 642.824 293.466 643.178 293.906 643.446C294.355 643.713 294.847 643.847 295.383 643.847Z" fill="#14142B"/>
<rect x="537.996" y="581.802" width="233.082" height="126.959" rx="8.63265" fill="#24252C"/>
<path d="M633.361 655.657C632.438 655.657 631.587 655.493 630.81 655.165C630.033 654.836 629.364 654.37 628.803 653.766C628.242 653.153 627.832 652.424 627.573 651.578L629.386 651.034C629.697 651.957 630.206 652.657 630.914 653.132C631.63 653.606 632.438 653.835 633.335 653.818C634.164 653.801 634.876 653.615 635.472 653.261C636.076 652.907 636.538 652.415 636.857 651.785C637.177 651.155 637.337 650.425 637.337 649.596C637.337 648.327 636.965 647.309 636.223 646.541C635.489 645.764 634.518 645.375 633.309 645.375C632.973 645.375 632.619 645.423 632.248 645.518C631.876 645.604 631.531 645.729 631.212 645.893L630.253 644.378L637.505 637.683L637.816 638.46H628.311V636.635H639.085V638.486L632.766 644.52L632.74 643.769C634.035 643.605 635.174 643.752 636.158 644.21C637.142 644.667 637.911 645.366 638.463 646.307C639.024 647.24 639.305 648.336 639.305 649.596C639.305 650.788 639.046 651.841 638.528 652.756C638.019 653.662 637.315 654.375 636.417 654.893C635.519 655.402 634.501 655.657 633.361 655.657ZM649.29 655.67C648.142 655.67 647.106 655.402 646.182 654.867C645.267 654.331 644.542 653.606 644.007 652.691C643.472 651.768 643.204 650.732 643.204 649.584V642.332C643.204 641.184 643.472 640.152 644.007 639.237C644.542 638.314 645.267 637.584 646.182 637.049C647.106 636.514 648.142 636.246 649.29 636.246C650.438 636.246 651.47 636.514 652.385 637.049C653.309 637.584 654.038 638.314 654.573 639.237C655.109 640.152 655.376 641.184 655.376 642.332V649.584C655.376 650.732 655.109 651.768 654.573 652.691C654.038 653.606 653.309 654.331 652.385 654.867C651.47 655.402 650.438 655.67 649.29 655.67ZM649.29 653.831C650.059 653.831 650.758 653.645 651.388 653.274C652.018 652.894 652.519 652.389 652.89 651.759C653.261 651.129 653.447 650.434 653.447 649.674V642.241C653.447 641.473 653.261 640.774 652.89 640.144C652.519 639.514 652.018 639.013 651.388 638.642C650.758 638.262 650.059 638.072 649.29 638.072C648.522 638.072 647.823 638.262 647.192 638.642C646.562 639.013 646.062 639.514 645.69 640.144C645.319 640.774 645.134 641.473 645.134 642.241V649.674C645.134 650.434 645.319 651.129 645.69 651.759C646.062 652.389 646.562 652.894 647.192 653.274C647.823 653.645 648.522 653.831 649.29 653.831ZM661.363 655.281L660.069 653.986L677.459 636.635L678.754 637.916L661.363 655.281ZM674.869 655.67C674.015 655.67 673.233 655.462 672.525 655.048C671.826 654.625 671.265 654.064 670.842 653.365C670.419 652.657 670.208 651.871 670.208 651.008C670.208 650.162 670.423 649.385 670.855 648.677C671.287 647.969 671.856 647.404 672.564 646.981C673.272 646.558 674.041 646.346 674.869 646.346C675.724 646.346 676.505 646.558 677.213 646.981C677.921 647.395 678.482 647.956 678.896 648.664C679.319 649.363 679.531 650.145 679.531 651.008C679.531 651.871 679.319 652.657 678.896 653.365C678.482 654.064 677.921 654.625 677.213 655.048C676.505 655.462 675.724 655.67 674.869 655.67ZM674.869 653.947C675.396 653.947 675.884 653.814 676.332 653.546C676.781 653.278 677.14 652.924 677.407 652.484C677.675 652.035 677.809 651.543 677.809 651.008C677.809 650.473 677.675 649.985 677.407 649.545C677.14 649.096 676.781 648.738 676.332 648.47C675.884 648.202 675.396 648.068 674.869 648.068C674.334 648.068 673.842 648.202 673.393 648.47C672.953 648.738 672.595 649.096 672.318 649.545C672.051 649.985 671.917 650.473 671.917 651.008C671.917 651.543 672.051 652.035 672.318 652.484C672.595 652.924 672.953 653.278 673.393 653.546C673.842 653.814 674.334 653.947 674.869 653.947ZM663.953 645.569C663.099 645.569 662.317 645.362 661.609 644.948C660.902 644.525 660.336 643.964 659.913 643.264C659.499 642.557 659.292 641.771 659.292 640.908C659.292 640.062 659.507 639.285 659.939 638.577C660.371 637.869 660.94 637.304 661.648 636.881C662.356 636.458 663.125 636.246 663.953 636.246C664.808 636.246 665.585 636.458 666.284 636.881C666.992 637.295 667.557 637.856 667.98 638.564C668.403 639.263 668.615 640.044 668.615 640.908C668.615 641.771 668.403 642.557 667.98 643.264C667.557 643.964 666.992 644.525 666.284 644.948C665.585 645.362 664.808 645.569 663.953 645.569ZM663.953 643.847C664.488 643.847 664.976 643.713 665.416 643.446C665.865 643.178 666.224 642.824 666.491 642.384C666.759 641.935 666.893 641.443 666.893 640.908C666.893 640.372 666.759 639.885 666.491 639.444C666.224 638.996 665.865 638.637 665.416 638.37C664.976 638.102 664.488 637.968 663.953 637.968C663.418 637.968 662.926 638.102 662.477 638.37C662.037 638.637 661.683 638.996 661.415 639.444C661.148 639.885 661.014 640.372 661.014 640.908C661.014 641.443 661.148 641.935 661.415 642.384C661.683 642.824 662.037 643.178 662.477 643.446C662.926 643.713 663.418 643.847 663.953 643.847Z" fill="#CCCCCC"/>
<rect x="784.027" y="581.802" width="96.5778" height="126.959" rx="8.63265" fill="#5F33E1"/>
<path d="M811.379 655.281V638.758L807.87 640.869V638.732L811.379 636.635H813.308V655.281H811.379ZM824.845 655.67C823.697 655.67 822.661 655.402 821.738 654.867C820.823 654.331 820.097 653.606 819.562 652.691C819.027 651.768 818.759 650.732 818.759 649.584V642.332C818.759 641.184 819.027 640.152 819.562 639.237C820.097 638.314 820.823 637.584 821.738 637.049C822.661 636.514 823.697 636.246 824.845 636.246C825.994 636.246 827.025 636.514 827.94 637.049C828.864 637.584 829.593 638.314 830.129 639.237C830.664 640.152 830.931 641.184 830.931 642.332V649.584C830.931 650.732 830.664 651.768 830.129 652.691C829.593 653.606 828.864 654.331 827.94 654.867C827.025 655.402 825.994 655.67 824.845 655.67ZM824.845 653.831C825.614 653.831 826.313 653.645 826.943 653.274C827.573 652.894 828.074 652.389 828.445 651.759C828.816 651.129 829.002 650.434 829.002 649.674V642.241C829.002 641.473 828.816 640.774 828.445 640.144C828.074 639.514 827.573 639.013 826.943 638.642C826.313 638.262 825.614 638.072 824.845 638.072C824.077 638.072 823.378 638.262 822.748 638.642C822.118 639.013 821.617 639.514 821.246 640.144C820.874 640.774 820.689 641.473 820.689 642.241V649.674C820.689 650.434 820.874 651.129 821.246 651.759C821.617 652.389 822.118 652.894 822.748 653.274C823.378 653.645 824.077 653.831 824.845 653.831ZM836.919 655.281L835.624 653.986L853.014 636.635L854.309 637.916L836.919 655.281ZM850.424 655.67C849.57 655.67 848.789 655.462 848.081 655.048C847.381 654.625 846.82 654.064 846.397 653.365C845.974 652.657 845.763 651.871 845.763 651.008C845.763 650.162 845.979 649.385 846.41 648.677C846.842 647.969 847.412 647.404 848.12 646.981C848.827 646.558 849.596 646.346 850.424 646.346C851.279 646.346 852.06 646.558 852.768 646.981C853.476 647.395 854.037 647.956 854.452 648.664C854.875 649.363 855.086 650.145 855.086 651.008C855.086 651.871 854.875 652.657 854.452 653.365C854.037 654.064 853.476 654.625 852.768 655.048C852.06 655.462 851.279 655.67 850.424 655.67ZM850.424 653.947C850.951 653.947 851.439 653.814 851.888 653.546C852.337 653.278 852.695 652.924 852.962 652.484C853.23 652.035 853.364 651.543 853.364 651.008C853.364 650.473 853.23 649.985 852.962 649.545C852.695 649.096 852.337 648.738 851.888 648.47C851.439 648.202 850.951 648.068 850.424 648.068C849.889 648.068 849.397 648.202 848.948 648.47C848.508 648.738 848.15 649.096 847.874 649.545C847.606 649.985 847.472 650.473 847.472 651.008C847.472 651.543 847.606 652.035 847.874 652.484C848.15 652.924 848.508 653.278 848.948 653.546C849.397 653.814 849.889 653.947 850.424 653.947ZM839.508 645.569C838.654 645.569 837.873 645.362 837.165 644.948C836.457 644.525 835.891 643.964 835.468 643.264C835.054 642.557 834.847 641.771 834.847 640.908C834.847 640.062 835.063 639.285 835.494 638.577C835.926 637.869 836.496 637.304 837.204 636.881C837.911 636.458 838.68 636.246 839.508 636.246C840.363 636.246 841.14 636.458 841.839 636.881C842.547 637.295 843.113 637.856 843.536 638.564C843.959 639.263 844.17 640.044 844.17 640.908C844.17 641.771 843.959 642.557 843.536 643.264C843.113 643.964 842.547 644.525 841.839 644.948C841.14 645.362 840.363 645.569 839.508 645.569ZM839.508 643.847C840.044 643.847 840.531 643.713 840.972 643.446C841.421 643.178 841.779 642.824 842.046 642.384C842.314 641.935 842.448 641.443 842.448 640.908C842.448 640.372 842.314 639.885 842.046 639.444C841.779 638.996 841.421 638.637 840.972 638.37C840.531 638.102 840.044 637.968 839.508 637.968C838.973 637.968 838.481 638.102 838.032 638.37C837.592 638.637 837.238 638.996 836.97 639.444C836.703 639.885 836.569 640.372 836.569 640.908C836.569 641.443 836.703 641.935 836.97 642.384C837.238 642.824 837.592 643.178 838.032 643.446C838.481 643.713 838.973 643.847 839.508 643.847Z" fill="black"/>
<path d="M49.3621 764.286C47.5061 764.286 45.9393 763.876 44.6616 763.056C43.384 762.228 42.4171 761.084 41.7611 759.625C41.105 758.166 40.7769 756.482 40.7769 754.575C40.7769 752.667 41.105 750.983 41.7611 749.525C42.4171 748.066 43.384 746.926 44.6616 746.106C45.9393 745.277 47.5061 744.863 49.3621 744.863C51.5289 744.863 53.2986 745.42 54.6712 746.533C56.0438 747.638 56.9847 749.123 57.4941 750.988L55.5517 751.493C55.1546 750.017 54.4424 748.847 53.4151 747.984C52.3879 747.12 51.0368 746.689 49.3621 746.689C47.9032 746.689 46.6903 747.021 45.7234 747.686C44.7566 748.351 44.0271 749.279 43.5351 750.47C43.0516 751.653 42.8013 753.021 42.784 754.575C42.7754 756.129 43.0128 757.497 43.4962 758.68C43.9883 759.862 44.7221 760.79 45.6976 761.464C46.6817 762.128 47.9032 762.461 49.3621 762.461C51.0368 762.461 52.3879 762.029 53.4151 761.166C54.4424 760.294 55.1546 759.124 55.5517 757.657L57.4941 758.162C56.9847 760.026 56.0438 761.515 54.6712 762.629C53.2986 763.734 51.5289 764.286 49.3621 764.286ZM66.7307 764.286C65.3408 764.286 64.1538 763.971 63.1697 763.341C62.1856 762.711 61.4302 761.839 60.9036 760.725C60.377 759.612 60.1137 758.334 60.1137 756.893C60.1137 755.425 60.3814 754.139 60.9166 753.034C61.4518 751.929 62.2115 751.07 63.1956 750.457C64.1884 749.835 65.3667 749.525 66.7307 749.525C68.1292 749.525 69.3205 749.84 70.3046 750.47C71.2973 751.091 72.0527 751.959 72.5707 753.073C73.0973 754.178 73.3606 755.451 73.3606 756.893C73.3606 758.36 73.0973 759.651 72.5707 760.764C72.0441 761.869 71.2844 762.733 70.2916 763.354C69.2989 763.976 68.1119 764.286 66.7307 764.286ZM66.7307 762.461C68.2846 762.461 69.4413 761.947 70.201 760.92C70.9607 759.884 71.3405 758.541 71.3405 756.893C71.3405 755.201 70.9564 753.854 70.1881 752.852C69.4284 751.851 68.2759 751.35 66.7307 751.35C65.6861 751.35 64.8229 751.588 64.1409 752.063C63.4675 752.529 62.9625 753.181 62.6258 754.018C62.2978 754.847 62.1338 755.805 62.1338 756.893C62.1338 758.576 62.5223 759.927 63.2992 760.946C64.0761 761.956 65.22 762.461 66.7307 762.461ZM77.0155 763.898V744.863H78.919V763.898H77.0155ZM89.1806 764.286C87.7908 764.286 86.6038 763.971 85.6197 763.341C84.6355 762.711 83.8802 761.839 83.3536 760.725C82.827 759.612 82.5637 758.334 82.5637 756.893C82.5637 755.425 82.8313 754.139 83.3665 753.034C83.9018 751.929 84.6614 751.07 85.6456 750.457C86.6383 749.835 87.8167 749.525 89.1806 749.525C90.5791 749.525 91.7704 749.84 92.7546 750.47C93.7473 751.091 94.5027 751.959 95.0206 753.073C95.5472 754.178 95.8105 755.451 95.8105 756.893C95.8105 758.36 95.5472 759.651 95.0206 760.764C94.494 761.869 93.7344 762.733 92.7416 763.354C91.7488 763.976 90.5619 764.286 89.1806 764.286ZM89.1806 762.461C90.7345 762.461 91.8913 761.947 92.651 760.92C93.4106 759.884 93.7905 758.541 93.7905 756.893C93.7905 755.201 93.4063 753.854 92.638 752.852C91.8783 751.851 90.7259 751.35 89.1806 751.35C88.1361 751.35 87.2728 751.588 86.5908 752.063C85.9175 752.529 85.4125 753.181 85.0758 754.018C84.7478 754.847 84.5837 755.805 84.5837 756.893C84.5837 758.576 84.9722 759.927 85.7492 760.946C86.5261 761.956 87.6699 762.461 89.1806 762.461ZM99.2065 763.898V749.913H100.916V753.28L100.579 752.84C100.734 752.425 100.937 752.045 101.188 751.7C101.438 751.346 101.71 751.057 102.003 750.832C102.366 750.513 102.789 750.271 103.272 750.107C103.756 749.935 104.244 749.835 104.736 749.809C105.228 749.775 105.677 749.809 106.082 749.913V751.7C105.573 751.571 105.016 751.54 104.412 751.609C103.808 751.678 103.251 751.92 102.742 752.335C102.275 752.697 101.926 753.133 101.693 753.642C101.46 754.143 101.304 754.678 101.227 755.248C101.149 755.809 101.11 756.366 101.11 756.918V763.898H99.2065ZM113.791 764.273C112.151 764.273 110.8 763.92 109.738 763.212C108.685 762.504 108.037 761.52 107.796 760.259L109.738 759.936C109.945 760.73 110.416 761.364 111.149 761.839C111.892 762.305 112.807 762.538 113.895 762.538C114.956 762.538 115.794 762.318 116.407 761.878C117.02 761.429 117.326 760.82 117.326 760.052C117.326 759.62 117.227 759.271 117.028 759.003C116.838 758.727 116.446 758.472 115.85 758.239C115.254 758.006 114.365 757.73 113.182 757.411C111.913 757.065 110.921 756.72 110.204 756.375C109.488 756.029 108.978 755.632 108.676 755.183C108.374 754.726 108.223 754.169 108.223 753.513C108.223 752.719 108.447 752.024 108.896 751.428C109.345 750.824 109.967 750.358 110.761 750.03C111.555 749.693 112.479 749.525 113.532 749.525C114.585 749.525 115.526 749.697 116.355 750.043C117.192 750.379 117.866 750.854 118.375 751.467C118.884 752.08 119.186 752.792 119.281 753.604L117.339 753.953C117.21 753.133 116.8 752.486 116.109 752.011C115.427 751.527 114.559 751.277 113.506 751.26C112.513 751.234 111.706 751.424 111.085 751.829C110.463 752.227 110.152 752.758 110.152 753.422C110.152 753.793 110.265 754.113 110.489 754.38C110.714 754.639 111.119 754.885 111.706 755.119C112.302 755.352 113.148 755.606 114.244 755.883C115.531 756.211 116.541 756.556 117.274 756.918C118.008 757.281 118.53 757.708 118.841 758.2C119.152 758.692 119.307 759.301 119.307 760.026C119.307 761.347 118.815 762.387 117.831 763.147C116.856 763.898 115.509 764.273 113.791 764.273ZM135.72 764.286C134.296 764.286 133.035 763.993 131.939 763.406C130.851 762.819 129.997 761.99 129.375 760.92C128.754 759.849 128.443 758.597 128.443 757.164V745.264L130.359 745.251V756.918C130.359 757.885 130.523 758.723 130.851 759.431C131.179 760.13 131.607 760.708 132.133 761.166C132.669 761.615 133.251 761.947 133.881 762.163C134.512 762.379 135.125 762.487 135.72 762.487C136.324 762.487 136.942 762.379 137.572 762.163C138.202 761.947 138.78 761.615 139.307 761.166C139.834 760.708 140.261 760.13 140.589 759.431C140.917 758.723 141.081 757.885 141.081 756.918V745.251H142.998V757.164C142.998 758.597 142.687 759.849 142.065 760.92C141.444 761.982 140.585 762.81 139.488 763.406C138.401 763.993 137.145 764.286 135.72 764.286ZM152.385 764.273C150.745 764.273 149.394 763.92 148.332 763.212C147.279 762.504 146.631 761.52 146.39 760.259L148.332 759.936C148.539 760.73 149.01 761.364 149.743 761.839C150.486 762.305 151.401 762.538 152.489 762.538C153.55 762.538 154.388 762.318 155.001 761.878C155.614 761.429 155.92 760.82 155.92 760.052C155.92 759.62 155.821 759.271 155.622 759.003C155.432 758.727 155.04 758.472 154.444 758.239C153.848 758.006 152.959 757.73 151.776 757.411C150.507 757.065 149.515 756.72 148.798 756.375C148.082 756.029 147.572 755.632 147.27 755.183C146.968 754.726 146.817 754.169 146.817 753.513C146.817 752.719 147.041 752.024 147.49 751.428C147.939 750.824 148.561 750.358 149.355 750.03C150.149 749.693 151.073 749.525 152.126 749.525C153.179 749.525 154.12 749.697 154.949 750.043C155.786 750.379 156.46 750.854 156.969 751.467C157.478 752.08 157.78 752.792 157.875 753.604L155.933 753.953C155.804 753.133 155.394 752.486 154.703 752.011C154.021 751.527 153.153 751.277 152.1 751.26C151.107 751.234 150.3 751.424 149.679 751.829C149.057 752.227 148.746 752.758 148.746 753.422C148.746 753.793 148.859 754.113 149.083 754.38C149.308 754.639 149.713 754.885 150.3 755.119C150.896 755.352 151.742 755.606 152.838 755.883C154.125 756.211 155.135 756.556 155.868 756.918C156.602 757.281 157.124 757.708 157.435 758.2C157.746 758.692 157.901 759.301 157.901 760.026C157.901 761.347 157.409 762.387 156.425 763.147C155.45 763.898 154.103 764.273 152.385 764.273ZM167.23 764.286C165.866 764.286 164.684 763.984 163.682 763.38C162.69 762.776 161.917 761.925 161.365 760.829C160.812 759.733 160.536 758.446 160.536 756.97C160.536 755.442 160.808 754.121 161.352 753.008C161.895 751.894 162.659 751.035 163.644 750.431C164.636 749.827 165.806 749.525 167.153 749.525C168.534 749.525 169.712 749.844 170.688 750.483C171.663 751.113 172.401 752.019 172.902 753.202C173.403 754.385 173.632 755.796 173.588 757.436H171.646V756.763C171.611 754.95 171.219 753.582 170.468 752.658C169.725 751.735 168.638 751.273 167.205 751.273C165.702 751.273 164.55 751.76 163.747 752.736C162.953 753.711 162.556 755.101 162.556 756.905C162.556 758.667 162.953 760.035 163.747 761.01C164.55 761.977 165.685 762.461 167.153 762.461C168.154 762.461 169.026 762.232 169.768 761.774C170.519 761.308 171.111 760.639 171.542 759.767L173.316 760.454C172.764 761.671 171.948 762.616 170.869 763.289C169.799 763.954 168.586 764.286 167.23 764.286ZM161.882 757.436V755.844H172.565V757.436H161.882ZM182.427 764.286C181.124 764.286 180.01 763.963 179.086 763.315C178.163 762.659 177.455 761.774 176.963 760.661C176.471 759.547 176.225 758.291 176.225 756.893C176.225 755.503 176.466 754.251 176.95 753.137C177.442 752.024 178.145 751.143 179.06 750.496C179.976 749.848 181.072 749.525 182.349 749.525C183.662 749.525 184.767 749.844 185.664 750.483C186.562 751.122 187.24 751.998 187.697 753.111C188.164 754.216 188.397 755.477 188.397 756.893C188.397 758.282 188.168 759.538 187.71 760.661C187.253 761.774 186.579 762.659 185.69 763.315C184.801 763.963 183.713 764.286 182.427 764.286ZM182.621 762.512C183.614 762.512 184.434 762.271 185.082 761.787C185.729 761.304 186.213 760.639 186.532 759.793C186.851 758.938 187.011 757.972 187.011 756.893C187.011 755.796 186.851 754.829 186.532 753.992C186.213 753.146 185.729 752.486 185.082 752.011C184.443 751.536 183.636 751.299 182.66 751.299C181.659 751.299 180.83 751.545 180.174 752.037C179.518 752.529 179.03 753.198 178.711 754.044C178.4 754.89 178.245 755.839 178.245 756.893C178.245 757.954 178.404 758.913 178.724 759.767C179.052 760.613 179.54 761.282 180.187 761.774C180.834 762.266 181.646 762.512 182.621 762.512ZM187.011 763.898V753.37H186.804V745.251H188.72V763.898H187.011Z" fill="#6E7191"/>
<path d="M180 913.569C180 952.467 148.66 984 110 984C71.3401 984 40 952.467 40 913.569C40 891.718 62.0887 856.686 81.4499 830.177C95.8021 810.526 124.198 810.526 138.55 830.177C157.911 856.686 180 891.718 180 913.569Z" fill="#5F33E1"/>
<path d="M350 913.569C350 952.467 318.66 984 280 984C241.34 984 210 952.467 210 913.569C210 891.718 232.089 856.686 251.45 830.177C265.802 810.526 294.198 810.526 308.55 830.177C327.911 856.686 350 891.718 350 913.569Z" fill="#6E6A7C"/>
<path d="M520 913.569C520 952.467 488.66 984 450 984C411.34 984 380 952.467 380 913.569C380 891.718 402.089 856.686 421.45 830.177C435.802 810.526 464.198 810.526 478.55 830.177C497.911 856.686 520 891.718 520 913.569Z" fill="#24252C"/>
<path d="M592.258 830.766C606.21 811.662 633.79 811.662 647.742 830.766C657.41 844.002 667.743 859.346 675.654 874.092C683.588 888.879 689 902.91 689 913.568C689 951.92 658.102 983 620 983C581.898 983 551 951.92 551 913.568C551 902.91 556.412 888.879 564.346 874.092C572.257 859.346 582.59 844.002 592.258 830.766Z" fill="#FAFAFA" stroke="#CCCCCC"/>
<defs>
<filter id="filter0_d_101_746" x="24" y="256" width="1648" height="168" filterUnits="userSpaceOnUse" color-interpolation-filters="sRGB">
<feFlood flood-opacity="0" result="BackgroundImageFix"/>
<feColorMatrix in="SourceAlpha" type="matrix" values="0 0 0 0 0 0 0 0 0 0 0 0 0 0 0 0 0 0 127 0" result="hardAlpha"/>
<feOffset/>
<feGaussianBlur stdDeviation="4"/>
<feComposite in2="hardAlpha" operator="out"/>
<feColorMatrix type="matrix" values="0 0 0 0 0 0 0 0 0 0 0 0 0 0 0 0 0 0 0.08 0"/>
<feBlend mode="normal" in2="BackgroundImageFix" result="effect1_dropShadow_101_746"/>
<feBlend mode="normal" in="SourceGraphic" in2="effect1_dropShadow_101_746" result="shape"/>
</filter>
</defs>
</svg>
